<?xml version="1.0" encoding="UTF-8" standalone="no"?>
<svg
   xmlns:dc="http://purl.org/dc/elements/1.1/"
   xmlns:cc="http://creativecommons.org/ns#"
   xmlns:rdf="http://www.w3.org/1999/02/22-rdf-syntax-ns#"
   xmlns:svg="http://www.w3.org/2000/svg"
   xmlns="http://www.w3.org/2000/svg"
   xmlns:sodipodi="http://sodipodi.sourceforge.net/DTD/sodipodi-0.dtd"
   xmlns:inkscape="http://www.inkscape.org/namespaces/inkscape"
   version="1.1"
   id="svg2"
   width="94.43866"
   height="165.72981"
   viewBox="0 0 94.43866 165.72981"
   sodipodi:docname="blast-825-black-bg.svg"
   inkscape:version="1.0.1 (3bc2e813f5, 2020-09-07)">
  <metadata
     id="metadata8">
    <rdf:RDF>
      <cc:Work
         rdf:about="">
        <dc:format>image/svg+xml</dc:format>
        <dc:type
           rdf:resource="http://purl.org/dc/dcmitype/StillImage" />
        <dc:title />
      </cc:Work>
    </rdf:RDF>
  </metadata>
  <defs
     id="defs6" />
  <sodipodi:namedview
     pagecolor="#ffffff"
     bordercolor="#666666"
     borderopacity="1"
     objecttolerance="10"
     gridtolerance="10"
     guidetolerance="10"
     inkscape:pageopacity="0"
     inkscape:pageshadow="2"
     inkscape:window-width="2560"
     inkscape:window-height="1377"
     id="namedview4"
     showgrid="false"
     inkscape:pagecheckerboard="true"
     inkscape:snap-grids="true"
     inkscape:zoom="0.5"
     inkscape:cx="-226.89503"
     inkscape:cy="138.56166"
     inkscape:window-x="1432"
     inkscape:window-y="638"
     inkscape:window-maximized="1"
     inkscape:current-layer="g10"
     inkscape:document-rotation="0" />
  <g
     inkscape:groupmode="layer"
     id="layer2"
     inkscape:label="Trace"
     transform="translate(-3.19181,-2.2125911)" />
  <g
     inkscape:groupmode="layer"
     id="layer1"
     inkscape:label="BG"
     transform="translate(-6.7828812,-4.1474581)" />
  <g
     inkscape:groupmode="layer"
     inkscape:label="Image"
     id="g10"
     transform="translate(-6.7828812,-4.1474581)">
    <path
       style="fill:#000000;fill-opacity:1;stroke:#000000;stroke-width:0.015625;stroke-dashoffset:0.1"
       d=""
       id="path1079"
       transform="translate(3.5910712,1.934867)" />
    <path
       style="fill:#000000;fill-opacity:1;stroke:#000000;stroke-width:0.0110485;stroke-dashoffset:0.1"
       d=""
       id="path1101"
       transform="translate(3.5910712,1.934867)" />
    <path
       style="fill:#000000;fill-opacity:1;stroke:#000000;stroke-width:0.0110485;stroke-dashoffset:0.1"
       d=""
       id="path1105"
       transform="translate(3.5910712,1.934867)" />
    <path
       style="fill:#000000;fill-opacity:1;stroke:#000000;stroke-width:0.0078125;stroke-dashoffset:0.1"
       d=""
       id="path1119"
       transform="translate(3.5910712,1.934867)" />
    <path
       style="fill:#000000;fill-opacity:1;stroke:#000000;stroke-width:0.0078125;stroke-dashoffset:0.1"
       d=""
       id="path1121"
       transform="translate(3.5910712,1.934867)" />
    <path
       style="fill:#000000;fill-opacity:1;stroke:#000000;stroke-width:0.00390625;stroke-dashoffset:0.1"
       d=""
       id="path1145"
       transform="translate(3.5910712,1.934867)" />
    <path
       style="fill:#000000;fill-opacity:1;stroke:#000000;stroke-width:0.00390625;stroke-dashoffset:0.1"
       d=""
       id="path1159"
       transform="translate(3.5910712,1.934867)" />
    <path
       style="fill:#000000;fill-opacity:1;stroke:#000000;stroke-width:0.00390625;stroke-dashoffset:0.1"
       d=""
       id="path1161"
       transform="translate(3.5910712,1.934867)" />
    <path
       style="fill:#000000;fill-opacity:1;stroke:#000000;stroke-width:0.00390625;stroke-dashoffset:0.1"
       d=""
       id="path1165"
       transform="translate(3.5910712,1.934867)" />
    <path
       style="fill:#000000;fill-opacity:1;stroke:#000000;stroke-width:0.00390625;stroke-dashoffset:0.1"
       d=""
       id="path1189"
       transform="translate(3.5910712,1.934867)" />
    <path
       style="fill:#000000;fill-opacity:1;stroke:#000000;stroke-width:0.00390625;stroke-dashoffset:0.1"
       d=""
       id="path1191"
       transform="translate(3.5910712,1.934867)" />
    <path
       style="fill:#000000;fill-opacity:1;stroke:#000000;stroke-width:0.00390625;stroke-dashoffset:0.1"
       d=""
       id="path1193"
       transform="translate(3.5910712,1.934867)" />
    <path
       style="fill:#000000;fill-opacity:1;stroke:#000000;stroke-width:0.00390625;stroke-dashoffset:0.1"
       d=""
       id="path1195"
       transform="translate(3.5910712,1.934867)" />
    <path
       style="fill:#000000;fill-opacity:1;stroke:#000000;stroke-width:0.00390625;stroke-dashoffset:0.1"
       d=""
       id="path1207"
       transform="translate(3.5910712,1.934867)" />
    <path
       style="fill:#000000;fill-opacity:1;stroke:#000000;stroke-width:0.00390625;stroke-dashoffset:0.1"
       d=""
       id="path1227"
       transform="translate(3.5910712,1.934867)" />
    <path
       style="fill:#000000;fill-opacity:1;stroke:#000000;stroke-width:0.00390625;stroke-dashoffset:0.1"
       d=""
       id="path1233"
       transform="translate(3.5910712,1.934867)" />
    <path
       style="fill:#000000;fill-opacity:1;stroke:#000000;stroke-width:0.00390625;stroke-dashoffset:0.1"
       d=""
       id="path1249"
       transform="translate(3.5910712,1.934867)" />
    <path
       style="fill:#000000;fill-opacity:1;stroke:#000000;stroke-width:0.00390625;stroke-dashoffset:0.1"
       d=""
       id="path1279"
       transform="translate(3.5910712,1.934867)" />
    <path
       style="fill:#000000;fill-opacity:1;stroke:#000000;stroke-width:0.0220971;stroke-dashoffset:0.1"
       d=""
       id="path1309"
       transform="translate(3.5910712,1.934867)" />
    <path
       style="fill:#000000;fill-opacity:1;stroke:#000000;stroke-width:0.0220971;stroke-dashoffset:0.1"
       d=""
       id="path1317"
       transform="translate(3.5910712,1.934867)" />
    <path
       style="fill:#000000;fill-opacity:1;stroke:#000000;stroke-width:0.0220971;stroke-dashoffset:0.1"
       d=""
       id="path1363"
       transform="translate(3.5910712,1.934867)" />
    <path
       style="fill:#000000;fill-opacity:1;stroke:#000000;stroke-width:0.0220971;stroke-dashoffset:0.1"
       d=""
       id="path1367"
       transform="translate(3.5910712,1.934867)" />
    <path
       style="fill:#000000;fill-opacity:1;stroke:#000000;stroke-width:0.0220971;stroke-dashoffset:0.1"
       d=""
       id="path1371"
       transform="translate(3.5910712,1.934867)" />
    <path
       style="fill:#000000;fill-opacity:1;stroke:#000000;stroke-width:0.0110485;stroke-dashoffset:0.1"
       d=""
       id="path1429"
       transform="translate(3.5910712,1.934867)" />
    <path
       style="fill:#000000;fill-opacity:1;stroke:#000000;stroke-width:0.0110485;stroke-dashoffset:0.1"
       d=""
       id="path1431"
       transform="translate(3.5910712,1.934867)" />
    <path
       style="fill:#000000;fill-opacity:1;stroke:#000000;stroke-width:0.0110485;stroke-dashoffset:0.1"
       d=""
       id="path1435"
       transform="translate(3.5910712,1.934867)" />
    <path
       style="fill:#000000;fill-opacity:1;stroke:#000000;stroke-width:0.00390625;stroke-dashoffset:0.1"
       d=""
       id="path1437"
       transform="translate(3.5910712,1.934867)" />
    <path
       style="fill:#000000;fill-opacity:1;stroke:#000000;stroke-width:0.00390625;stroke-dashoffset:0.1"
       d=""
       id="path1439"
       transform="translate(3.5910712,1.934867)" />
    <path
       style="fill:#000000;fill-opacity:1;stroke:#000000;stroke-width:0.00390625;stroke-dashoffset:0.1"
       d=""
       id="path1447"
       transform="translate(3.5910712,1.934867)" />
    <path
       style="fill:#000000;fill-opacity:1;stroke:#000000;stroke-width:0.00390625;stroke-dashoffset:0.1"
       d=""
       id="path1459"
       transform="translate(3.5910712,1.934867)" />
    <path
       style="fill:#000000;fill-opacity:1;stroke:#000000;stroke-width:0.00390625;stroke-dashoffset:0.1"
       d=""
       id="path1461"
       transform="translate(3.5910712,1.934867)" />
    <path
       style="fill:#000000;fill-opacity:1;stroke:#000000;stroke-width:0.00390625;stroke-dashoffset:0.1"
       d=""
       id="path1465"
       transform="translate(3.5910712,1.934867)" />
    <path
       style="fill:#000000;fill-opacity:1;stroke:#000000;stroke-width:0.00390625;stroke-dashoffset:0.1"
       d=""
       id="path1469"
       transform="translate(3.5910712,1.934867)" />
    <path
       style="fill:#000000;fill-opacity:1;stroke:#000000;stroke-width:0.00390625;stroke-dashoffset:0.1"
       d=""
       id="path1473"
       transform="translate(3.5910712,1.934867)" />
    <path
       style="fill:#000000;fill-opacity:1;stroke:#000000;stroke-width:0.00390625;stroke-dashoffset:0.1"
       d=""
       id="path1475"
       transform="translate(3.5910712,1.934867)" />
    <path
       style="fill:#000000;fill-opacity:1;stroke:#000000;stroke-width:0.00390625;stroke-dashoffset:0.1"
       d=""
       id="path1479"
       transform="translate(3.5910712,1.934867)" />
    <path
       style="fill:#000000;fill-opacity:1;stroke:#000000;stroke-width:0.00390625;stroke-dashoffset:0.1"
       d=""
       id="path1481"
       transform="translate(3.5910712,1.934867)" />
    <path
       style="fill:#000000;fill-opacity:1;stroke:#000000;stroke-width:0.00390625;stroke-dashoffset:0.1"
       d=""
       id="path1483"
       transform="translate(3.5910712,1.934867)" />
    <path
       style="fill:#000000;fill-opacity:1;stroke:#000000;stroke-width:0.00390625;stroke-dashoffset:0.1"
       d=""
       id="path1485"
       transform="translate(3.5910712,1.934867)" />
    <path
       style="fill:#000000;fill-opacity:1;stroke:#000000;stroke-width:0.00390625;stroke-dashoffset:0.1"
       d=""
       id="path1487"
       transform="translate(3.5910712,1.934867)" />
    <path
       style="fill:#000000;fill-opacity:1;stroke:#000000;stroke-width:0.00390625;stroke-dashoffset:0.1"
       d=""
       id="path1489"
       transform="translate(3.5910712,1.934867)" />
    <path
       style="fill:#000000;fill-opacity:1;stroke:#000000;stroke-width:0.00390625;stroke-dashoffset:0.1"
       d=""
       id="path1491"
       transform="translate(3.5910712,1.934867)" />
    <path
       style="fill:#ef191d;fill-opacity:1;stroke:#ef191d;stroke-width:0.03125;stroke-dashoffset:0.1;stroke-opacity:1"
       d=""
       id="path1507"
       transform="translate(3.5910712,1.934867)" />
    <path
       style="fill:#ef191d;fill-opacity:1;stroke:#ef191d;stroke-width:0.0078125;stroke-dashoffset:0.1;stroke-opacity:1"
       d=""
       id="path1515"
       transform="translate(3.5910712,1.934867)" />
    <path
       style="fill:#ffffff;fill-opacity:1;stroke:#ffffff;stroke-width:0.0220971;stroke-dashoffset:0.1;stroke-opacity:1"
       d=""
       id="path1539"
       transform="translate(3.5910712,1.934867)" />
    <path
       style="fill:#ffffff;fill-opacity:1;stroke:#ffffff;stroke-width:0.0220971;stroke-dashoffset:0.1;stroke-opacity:1"
       d=""
       id="path1541"
       transform="translate(3.5910712,1.934867)" />
    <path
       style="fill:#ec1d25;fill-opacity:1;stroke:#ec1d25;stroke-width:0.00390625;stroke-dashoffset:0.1;stroke-opacity:1"
       d=""
       id="path1643"
       transform="translate(3.5910712,1.934867)" />
    <path
       style="fill:#ec1d25;fill-opacity:1;stroke:#ec1d25;stroke-width:0.00390625;stroke-dashoffset:0.1;stroke-opacity:1"
       d=""
       id="path1647"
       transform="translate(3.5910712,1.934867)" />
    <path
       style="fill:#ec1d25;fill-opacity:1;stroke:#ec1d25;stroke-width:0.015625;stroke-dashoffset:0.1;stroke-opacity:1"
       d=""
       id="path1673"
       transform="translate(3.5910712,1.934867)" />
    <path
       style="fill:#ec1d25;fill-opacity:1;stroke:#ec1d25;stroke-width:0.015625;stroke-dashoffset:0.1;stroke-opacity:1"
       d=""
       id="path1675"
       transform="translate(3.5910712,1.934867)" />
    <path
       style="fill:#ec1d25;fill-opacity:1;stroke:#ec1d25;stroke-width:0.015625;stroke-dashoffset:0.1;stroke-opacity:1"
       d=""
       id="path1677"
       transform="translate(3.5910712,1.934867)" />
    <path
       style="fill:#ec1d25;fill-opacity:1;stroke:#ec1d25;stroke-width:0.0110485;stroke-dashoffset:0.1;stroke-opacity:1"
       d=""
       id="path1697"
       transform="translate(3.5910712,1.934867)" />
    <path
       style="fill:#ec1d25;fill-opacity:1;stroke:#ec1d25;stroke-width:0.00390625;stroke-dashoffset:0.1;stroke-opacity:1"
       d=""
       id="path1713"
       transform="translate(3.5910712,1.934867)" />
    <g
       id="g396">
      <path
         style="fill:#000000;fill-opacity:1;stroke:#000000;stroke-width:0.227287;stroke-dashoffset:0.1"
         d="M 23.17992,169.73681 C 11.57774,169.64971 11.71966,169.66991 9.6358,167.81413 8.41901,166.73053 7.59068,165.36306 7.12593,163.67065 6.90791,162.8767 6.8623,154.25863 6.91847,124.46796 6.95807,103.4662 7.03475,82.472777 7.08888,77.815921 l 0.0984,-8.467011 2.64415,0.0065 c 1.45429,0.0036 3.82071,0.07625 5.25872,0.161472 1.76595,0.10466 2.69833,0.0756 2.87264,-0.08952 0.19199,-0.181877 0.0609,-1.005989 -0.51197,-3.218635 -1.05951,-4.0922 -1.49942,-7.065602 -1.67678,-11.333487 -0.32051,-7.712344 1.01794,-13.310737 4.40534,-18.426398 3.00107,-4.532224 7.51267,-9.30165 12.7976,-13.528952 2.59895,-2.07885 7.25067,-5.27494 8.93204,-6.13701 1.32086,-0.67723 1.53484,-0.0305 -1.83606,-5.54893 L 37.78872,7.49453 38.73407,7.0042 c 1.46125,-0.75792 4.60042,-1.82635 6.73269,-2.29149 2.32687,-0.5076 7.61066,-0.60658 9.65896,-0.18095 8.03376,1.6694 15.23922,6.93623 17.69928,12.93729 0.70679,1.72416 1.12255,3.52287 1.13323,4.90284 0.005,0.6602 0.13541,1.2927 0.29445,1.42931 0.1569,0.13477 1.20857,0.83028 2.33705,1.54557 8.89697,5.639387 14.97903,14.221688 16.96566,23.939993 0.59158,2.893887 0.61762,8.645125 0.0504,11.128713 -0.52193,2.285285 -1.51398,4.845172 -2.54076,6.55617 -0.57415,0.956751 -0.75293,1.473833 -0.6494,1.878222 l 0.14287,0.558014 5.11171,-0.02425 5.11172,-0.02426 0.16294,46.764098 0.16294,46.7641 -0.71665,1.53154 c -0.92254,1.97157 -2.47349,3.63535 -4.20496,4.51087 l -1.36951,0.69249 -30.70419,0.0955 c -16.8873,0.0525 -35.30696,0.061 -40.93258,0.0188 z"
         id="path997"
         sodipodi:nodetypes="cssssccsssssssscsssscsssssscccccsscccc" />
      <g
         id="g328"
         transform="translate(99.105129,-607.89937)">
        <path
           id="path863"
           style="fill:#ec1d25;fill-opacity:1;stroke:#ec1d25;stroke-width:1px;stroke-linecap:butt;stroke-linejoin:miter;stroke-opacity:1"
           d="m -53.771484,705.87305 c -1.515249,-0.001 -3.029677,0.15964 -4.544922,0.51172 -4.20044,1.61913 -5.729771,3.39429 -6.306641,5.22656 l 0.05664,6.02344 4.43164,0.2832 c 0.70446,-0.34093 1.735173,-0.52067 3.195313,-1.34375 -0.23143,-4.53849 6.453449,-4.17973 5.693359,-0.13867 -1.88695,4.42811 -1.299322,3.93862 -13.263672,17.45117 l -0.113281,6.875 21.478516,0.11328 v -6.36328 h -9.886719 l -0.853516,-1.47852 c 0.34242,-0.67129 0.197225,-1.0815 2.046875,-2.55664 4.03011,-3.13908 8.531183,-6.73419 9.601563,-13.29687 0.0798,-0.52825 0.18338,-0.87761 0.05664,-2.95508 -0.68688,-3.77223 -2.617801,-6.68899 -7.044921,-7.89649 -1.51525,-0.29018 -3.031627,-0.4538 -4.546874,-0.45507 z m 7.917968,13.25195 c 0.26575,0 0.356262,0.18783 0.201172,0.41602 -0.15508,0.2282 -0.373715,0.41406 -0.484375,0.41406 -0.11066,0 -0.201172,-0.18586 -0.201172,-0.41406 0,-0.22819 0.218625,-0.41602 0.484375,-0.41602 z m -11.599609,15.35156 c 0.91529,0 1.340239,1.25423 0.574219,1.69532 -0.81753,0.47074 -1.204478,0.47118 -1.523438,0.002 -0.39734,-0.58464 0.224519,-1.69727 0.949219,-1.69727 z"
           transform="translate(6.7828812,4.1474581)" />
        <path
           id="path865"
           style="fill:#ec1d25;fill-opacity:1;stroke:#ec1d25;stroke-width:1px;stroke-linecap:butt;stroke-linejoin:miter;stroke-opacity:1"
           d="m -25.603516,706.98633 -14.318359,0.0566 -0.228516,18.75195 5.966797,0.22656 c 2.08364,-1.94425 4.001888,-5.38608 7.330078,-0.625 1.09255,2.63566 0.84539,5.88661 -0.05664,8.29688 -2.27338,2.43996 -3.267828,2.05939 -4.773438,0.96484 -1.12779,-0.94019 -1.423931,-3.50947 -1.988281,-5.05664 l -7.671875,-0.11328 c 0.34985,4.25901 -0.997936,8.67839 6.990234,12.2168 2.49634,0.37897 5.078783,0.32161 7.726563,-0.0566 0.182047,-0.0273 0.352803,-0.0641 0.527344,-0.0977 0.07361,-0.14878 0.246,-0.2539 0.445312,-0.2539 0.119145,0 0.195921,0.0415 0.238281,0.10351 4.195231,-1.06021 6.092514,-4.03692 7.427735,-7.48047 0.51591,-3.85127 0.341791,-6.73584 0.113281,-9.54492 -0.42787,-3.72012 -2.691024,-5.6063 -5.683594,-6.76172 l -4.771484,-0.0566 h -3.75 v -3.92187 l 6.363281,-0.11329 z m -4.349609,11.49023 c 0.91529,0 1.340239,1.25423 0.574219,1.69532 -0.81753,0.47074 -1.204478,0.47118 -1.523438,0.002 -0.39734,-0.58464 0.224519,-1.69727 0.949219,-1.69727 z m 9.296875,9.21485 c 0.537702,-0.008 0.985876,0.63233 0.830078,1.46289 -0.14892,0.79392 -0.172836,0.79514 -1.035156,0.043 -0.68261,-0.59542 -0.76216,-0.88513 -0.34375,-1.26563 0.17986,-0.16356 0.369594,-0.23754 0.548828,-0.24023 z m -2.792969,0.01 c 0.02246,0.018 0.03516,0.0543 0.03516,0.11133 0,0.22819 -0.198157,0.69482 -0.441407,1.03711 -0.24325,0.3423 -0.443359,0.43718 -0.443359,0.20898 0,-0.22819 0.200109,-0.69677 0.443359,-1.03906 0.182438,-0.25672 0.338871,-0.37233 0.40625,-0.31836 z m -0.634765,1.97852 c 0.12547,0 0.228515,0.0929 0.228515,0.20703 0,0.1141 -0.103045,0.20898 -0.228515,0.20898 -0.12546,0 -0.228516,-0.0948 -0.228516,-0.20898 0,-0.1141 0.103056,-0.20703 0.228516,-0.20703 z"
           transform="translate(6.7828812,4.1474581)" />
        <path
           id="path1497"
           style="fill:#ec1d25;fill-opacity:1;stroke:#ec1d25;stroke-width:0.128837;stroke-dashoffset:0.1;stroke-opacity:1"
           d="m -76.667969,706.17188 c -2.327596,-0.0159 -4.57985,0.12243 -5.75,0.41406 -2.66672,0.66462 -4.755047,1.94012 -5.435547,4.49414 -0.29388,1.10296 -0.28787,4.16755 -0.08789,5.68945 0.25577,1.94659 1.015002,2.87706 2.632812,5.1875 0.45779,0.65379 0.813616,1.23597 0.791016,1.29297 -0.02262,0.0571 -0.416993,0.43828 -0.876953,0.84766 -1.8459,1.64284 -2.731796,3.00595 -2.947266,4.53906 -0.14044,0.99871 -0.14085,3.87665 0,5.31055 0.08308,0.84576 0.133295,1.75516 0.703125,2.69531 1.32497,2.18604 3.127943,3.34865 4.970703,4.10156 0.75359,0.30795 0.791515,0.14329 2.302735,0.32227 l 1.390625,0.16601 c 0.2131,0.0253 0.775881,0.008 2.019531,0.0117 2.46109,0.008 4.155516,-0.32837 5.097656,-0.64062 1.97581,-0.65481 5.585531,-3.97539 6.082031,-6.00391 0.37143,-1.51745 0.522858,-3.46764 0.173829,-5.27344 l -0.267579,-1.38672 -0.404297,-1.56054 c -0.22088,-0.85028 -1.290218,-1.98697 -1.886718,-2.88868 -0.59651,-0.90169 -1.482232,-1.62646 -1.482422,-1.66796 -2e-4,-0.0415 0.620453,-0.51032 1.001953,-0.98438 1.23664,-1.53666 1.983123,-2.34325 2.189453,-3.14648 0.26919,-1.04808 0.235008,-3.21541 -0.07617,-4.67969 -0.33052,-1.55531 -0.871514,-3.3489 -2.433594,-4.90234 -1.69264,-1.68329 -2.118468,-1.69601 -5.392578,-1.86915 -0.755072,-0.0399 -1.538587,-0.063 -2.314453,-0.0684 z m -0.894531,6.22656 c 0.526448,-0.0252 1.098821,0.0589 1.654297,0.24414 0.77838,0.25961 1.206233,1.26044 1.408203,1.85937 0.20771,0.61596 0.295234,2.62976 0.02148,3.5625 -0.24398,0.83129 -0.96563,1.71058 -1.61914,1.84375 -1.30408,0.26573 -2.149553,0.37939 -2.970703,-0.47656 -0.63435,-0.66123 -0.901269,-0.95471 -1.011719,-2.41602 -0.09085,-1.2021 0.08237,-2.58217 0.558594,-3.55273 0.332731,-0.67829 1.081571,-1.02247 1.958984,-1.06445 z m 0.216797,13.78906 c 0.737688,-0.0204 1.450248,0.30206 2.134765,0.94336 0.60152,0.56356 0.949116,1.93799 1.041016,3.19141 0.07939,1.08276 -0.08008,1.92215 -0.484375,2.78906 -0.30717,0.65864 -0.803823,1.17236 -1.376953,1.36523 -0.97151,0.32692 -2.021779,0.37494 -2.792969,-0.17773 -0.39528,-0.28327 -0.796352,-0.20211 -1.138672,-1.29492 -0.55053,-1.75731 -0.743994,-4.09798 0.04102,-5.16993 0.47419,-0.64752 1.247938,-1.31764 1.830078,-1.51171 0.251258,-0.0838 0.500198,-0.12797 0.746094,-0.13477 z m -6.767578,7.73047 c 0.281592,-0.0205 0.548729,0.22922 0.902343,0.74414 0.45091,0.65658 0.385084,0.98397 -0.378906,1.86719 -0.77626,0.89744 -1.66918,1.37528 -1.80664,0.96679 -0.3473,-1.03199 -0.249019,-1.93949 0.294922,-2.69531 0.410534,-0.57046 0.706688,-0.86234 0.988281,-0.88281 z"
           transform="translate(6.7828812,4.1474581)" />
        <path
           id="path1519"
           style="fill:#ef191d;fill-opacity:1;stroke:#ef191d;stroke-width:0.0078125;stroke-dashoffset:0.1;stroke-opacity:1"
           d="m -20.214844,705.62695 c -0.45953,-0.003 -0.62239,0.01 -0.96289,0.0801 -1.5806,0.32606 -2.861727,1.43619 -3.404297,2.94727 -0.13069,0.36397 -0.206141,0.69759 -0.244141,1.08203 -0.01626,0.16439 -0.01445,0.73019 0.002,0.91015 0.04136,0.45483 0.133126,0.84038 0.291016,1.2129 0.30769,0.72588 0.693587,1.2788 1.242187,1.77539 0.48976,0.44333 1.110767,0.78037 1.779297,0.96679 0.34264,0.0955 0.648397,0.14375 0.966797,0.15625 0.502,0.0196 0.909587,-0.009 1.279297,-0.0937 1.37426,-0.31376 2.502571,-1.20896 3.113281,-2.46875 0.26518,-0.54702 0.412713,-1.09193 0.445313,-1.64453 0.0091,-0.15953 0.0072,-0.55458 -0.0039,-0.72461 -0.06005,-0.91993 -0.444768,-1.85112 -1.074218,-2.59961 -0.09896,-0.11768 -0.321048,-0.34405 -0.455078,-0.46289 -0.6227,-0.55211 -1.317093,-0.89681 -2.126954,-1.05859 -0.31967,-0.0639 -0.428996,-0.0751 -0.847656,-0.0781 z m 1.056641,1.33203 c 0.0033,-0.003 0.143605,0.0463 0.166015,0.0586 h 0.002 c 0.005,0.003 0.0072,0.006 0.0039,0.006 -0.01398,-0.001 -0.174875,-0.0615 -0.171875,-0.0645 z m 0.1875,0.0684 c 0.0044,-0.004 0.140059,0.057 0.255859,0.11524 0.106652,0.0536 0.20252,0.13492 0.304688,0.20117 -0.16376,-0.10686 -0.32778,-0.21272 -0.501953,-0.28711 -0.0333,-0.0142 -0.05959,-0.0273 -0.05859,-0.0293 z m 0.757812,0.44532 c 0.04676,0.035 0.09888,0.056 0.144532,0.0937 0.07849,0.065 0.345356,0.32869 0.410156,0.40429 0.06784,0.0791 0.04184,0.0554 -0.03906,-0.0351 -0.153306,-0.17147 -0.331203,-0.32398 -0.515625,-0.46289 z m -4.240234,0.0957 c 0.0025,-8e-4 -0.01805,0.0181 -0.06055,0.0586 -0.04278,0.0408 -0.114956,0.11261 -0.160156,0.15821 -0.04517,0.0456 -0.119416,0.12422 -0.166016,0.17382 -0.09497,0.10116 -0.09094,0.0907 0.02344,-0.041 0.08252,-0.095 0.183519,-0.19416 0.287109,-0.28516 0.048,-0.0422 0.07365,-0.0636 0.07617,-0.0644 z m 4.832031,0.45508 0.01758,0.0137 c 0.0097,0.009 0.01758,0.0166 0.01758,0.0176 1.01e-4,0.006 -0.0054,0.003 -0.01953,-0.0137 z m 0.04492,0.0488 c 0.0077,0.006 0.01367,0.0117 0.01367,0.0137 0,0.006 -0.0073,0.003 -0.01758,-0.01 -0.0097,-0.012 -0.0085,-0.0139 0.0039,-0.004 z m 0.03125,0.0391 c 0.0077,0.006 0.01367,0.0117 0.01367,0.0137 0,0.006 -0.0053,0.003 -0.01563,-0.01 -0.0097,-0.012 -0.01045,-0.0139 0.002,-0.004 z m 0.205078,0.29687 c 0.004,-2e-5 0.05808,0.0883 0.08008,0.13086 0.023,0.0447 0.0067,0.027 -0.02148,-0.0234 -0.0149,-0.0268 -0.03492,-0.062 -0.04492,-0.0781 -0.0098,-0.016 -0.01567,-0.0293 -0.01367,-0.0293 z m 0.0957,0.16407 c 0.002,0 0.0159,0.0207 0.0293,0.0469 0.0134,0.0261 0.02153,0.0488 0.01953,0.0508 -0.0016,0.002 -0.01354,-0.0192 -0.02734,-0.0469 -0.0134,-0.0277 -0.02349,-0.0508 -0.02148,-0.0508 z m -3.162109,0.49804 c 0.42719,-0.0399 0.816431,0.14848 1.025391,0.4961 0.1069,0.17781 0.160025,0.4072 0.140625,0.60156 -0.0369,0.3693 -0.249939,0.68061 -0.574219,0.83789 -0.08269,0.0401 -0.187788,0.0663 -0.304688,0.0781 -0.04962,0.005 -0.153368,0.01 -0.230468,0.01 -0.15173,0 -0.21628,-0.009 -0.31836,-0.0469 -0.0857,-0.0319 -0.247781,-0.11826 -0.300781,-0.16016 -0.1259,-0.0994 -0.267619,-0.30787 -0.324219,-0.47461 l -0.02539,-0.0742 0.002,-0.25391 c 0.0025,-0.2938 0.0027,-0.30023 0.07031,-0.42968 0.17742,-0.33968 0.479194,-0.55029 0.839844,-0.58399 z m -3.154297,0.20313 c 0.0025,0.006 0.003,0.0107 0,0.0137 -0.002,0.003 -0.0042,-0.002 -0.0039,-0.01 6.67e-4,-0.006 0.0026,-0.004 0.0039,-0.004 z m -0.0039,0.0312 c 0,0.006 -0.0038,0.0183 -0.0078,0.0273 -0.005,0.01 -0.0078,0.0109 -0.0078,0.004 0,-0.007 0.0038,-0.0184 0.0078,-0.0274 0.005,-0.01 0.0078,-0.0109 0.0078,-0.004 z m -0.01758,0.0547 c 0.0025,0.006 0.001,0.0107 -0.002,0.0137 -0.002,0.003 -0.0042,-0.002 -0.0039,-0.01 8.34e-4,-0.008 0.0039,-0.007 0.0059,-0.004 z m -0.0078,0.0312 c 0.0025,0.006 0.001,0.0107 -0.002,0.0137 -0.002,0.003 -0.0042,-0.002 -0.0039,-0.01 8.33e-4,-0.008 0.0039,-0.007 0.0059,-0.004 z m -0.0078,0.0273 c 0.0017,0.002 -0.0047,0.0395 -0.01367,0.084 -0.0167,0.0784 -0.02128,0.0992 -0.02148,0.0762 -1.01e-4,-0.018 0.03216,-0.16315 0.03516,-0.16015 z m -0.03906,0.18359 c 0.0021,0.005 0.002,0.0145 0,0.0195 -0.002,0.005 -0.0039,10e-4 -0.0039,-0.01 0,-0.009 0.0022,-0.0118 0.0039,-0.01 z m -0.429687,1.11133 c 0.12546,0 0.228515,0.093 0.228515,0.20703 0,0.1141 -0.103055,0.20703 -0.228515,0.20703 -0.12547,0 -0.226563,-0.093 -0.226563,-0.20703 0,-0.11409 0.101093,-0.20703 0.226563,-0.20703 z m 2.109375,0.41406 c 0.22022,0 0.40039,0.37369 0.40039,0.83008 0,0.7973 -0.890995,1.12466 -1.515625,0.55664 -0.34539,-0.31409 0.516935,-1.38672 1.115235,-1.38672 z m 4.74414,0.64063 c 0.0022,0 -8.12e-4,0.0105 -0.0078,0.0234 -0.0069,0.0129 -0.01363,0.0234 -0.01563,0.0234 -0.0022,0 8.12e-4,-0.0105 0.0078,-0.0234 0.0069,-0.0129 0.01362,-0.0234 0.01563,-0.0234 z m -0.04687,0.0859 c 0.0022,0 -8.12e-4,0.0105 -0.0078,0.0234 -0.0069,0.0129 -0.01363,0.0234 -0.01563,0.0234 -0.0022,0 8.12e-4,-0.0105 0.0078,-0.0234 0.0069,-0.0129 0.01362,-0.0234 0.01563,-0.0234 z m -0.03125,0.0547 c 0.003,0 0.0011,0.007 -0.0039,0.0156 -0.0042,0.009 -0.0097,0.0156 -0.01172,0.0156 -0.002,0 -0.0011,-0.007 0.0039,-0.0156 0.0042,-0.009 0.0097,-0.0156 0.01172,-0.0156 z m -0.03516,0.0664 c -0.03392,0.058 -0.124834,0.19648 -0.177734,0.26758 -0.0288,0.0388 -0.06482,0.0825 -0.07813,0.0976 -0.0134,0.0152 0.0086,-0.0164 0.04883,-0.0703 0.04024,-0.0539 0.105531,-0.14703 0.144531,-0.20703 0.0709,-0.1093 0.0969,-0.14669 0.0625,-0.0879 z m -0.279297,0.39648 c 0.0022,0 -0.0056,0.009 -0.01563,0.0195 -0.0101,0.0106 -0.01948,0.0195 -0.02148,0.0195 -0.0021,0 0.0037,-0.009 0.01367,-0.0195 0.0101,-0.0106 0.02144,-0.0195 0.02344,-0.0195 z m -0.529297,0.41602 c 0.12547,0 0.228516,0.093 0.228516,0.20703 0,0.1141 -0.103046,0.20703 -0.228516,0.20703 -0.12546,0 -0.228515,-0.093 -0.228515,-0.20703 0,-0.11409 0.103055,-0.20703 0.228515,-0.20703 z m -4.326172,0.0371 c -0.0198,-0.0185 -0.0019,-0.006 0.03906,0.0273 0.09205,0.0743 0.188727,0.14592 0.28125,0.20703 -0.06057,-0.0382 -0.130493,-0.0806 -0.203125,-0.13671 -0.04495,-0.0347 -0.09739,-0.0792 -0.117188,-0.0977 z m 0.421876,0.30469 c -10e-7,-0.002 0.0076,-1.4e-4 0.01758,0.006 0.0097,0.006 0.03419,0.0214 0.05469,0.0332 0.0204,0.0118 0.0371,0.0234 0.03711,0.0254 0,0 -0.002,0.002 -0.002,0.002 -0.006,-10e-5 -0.107402,-0.0624 -0.107421,-0.0664 z m 0.134765,0.0781 c 0,-0.002 0.01405,0.003 0.03125,0.0117 0.0172,0.009 0.03124,0.0175 0.03125,0.0195 0,0.005 -3e-6,0.006 -0.0332,-0.0117 -0.0162,-0.008 -0.02929,-0.0175 -0.0293,-0.0195 z m 0.08594,0.0469 c 0,-0.004 0.06036,0.0242 0.06836,0.0312 0.002,0.002 9.4e-5,0.004 -0.0039,0.004 -0.0098,-4e-4 -0.06443,-0.0301 -0.06445,-0.0351 z"
           transform="translate(6.7828812,4.1474581)" />
        <path
           id="path843"
           style="fill:#ec1d25;fill-opacity:1;stroke:#ec1d25;stroke-width:1px;stroke-linecap:butt;stroke-linejoin:miter;stroke-opacity:1"
           d="m -66.539062,682.92383 -4.419922,0.0801 -0.16211,18 8.519532,0.0801 v -4.74023 l -3.777344,-0.0801 z m -0.589844,14.83008 c 0.78511,0 0.846707,0.10208 0.373047,0.62109 -0.61332,0.67202 -1.050046,0.77547 -1.509766,0.35742 -0.48652,-0.44243 0.137479,-0.97851 1.136719,-0.97851 z"
           transform="translate(6.7828812,4.1474581)" />
        <path
           id="path853"
           style="fill:#ef191d;fill-opacity:1;stroke:#ec1d25;stroke-width:1px;stroke-linecap:butt;stroke-linejoin:miter;stroke-opacity:1"
           d="m -35.017578,682.0918 c -0.346876,10e-4 -0.666681,0.0515 -1.097656,0.10351 -1.99657,0.72594 -2.977869,1.71736 -3.636719,4.23242 -0.32946,1.01514 -0.588092,2.78809 0.455078,4.6875 1.25972,1.79405 3.017584,1.7589 4.802734,3.55079 1.09015,1.09944 1.354122,2.29599 0.113282,2.98437 -1.22821,0.49342 -2.13086,-0.11328 -2.13086,-0.11328 -0.58725,-0.28403 -1.017146,-0.5567 -1.535156,-1.2793 -0.3224,-0.44511 -0.620751,-1.0606 -1.050781,-1.25 l -2.13086,4.11914 c 1.53301,1.5058 2.784242,2.26143 3.863282,2.55664 0.7992,0.22921 2.184736,0.39722 2.841796,0.11524 1.12922,-0.45422 2.482108,-0.87814 3.835938,-3.8086 0.24813,-0.78598 0.479651,-2.11481 0.425781,-3.125 -0.32785,-1.98606 -0.409537,-3.66174 -2.841797,-4.6582 -1.63255,-0.34299 -1.920143,-0.59699 -2.783203,-1.42187 -0.73693,-0.86213 -0.565405,-2.47768 0.765625,-2.64258 0.9255,0.0317 0.988926,-0.027 1.847656,0.59765 0.46792,0.37101 1.232647,1.05488 1.279297,1.08008 l 1.5625,-3.18359 c -1.68411,-1.4675 -2.434548,-2.09027 -3.324218,-2.35742 -0.53963,-0.14188 -0.914843,-0.18867 -1.261719,-0.1875 z m 0.01563,16.72851 c 0.123216,-0.0163 0.29358,0.17988 0.625,0.57422 0.89098,1.06013 0.861636,1.19009 -0.402344,1.72266 -0.81424,0.34307 -1.275836,0.31827 -1.910156,-0.10352 -0.79714,-0.53006 -0.791392,-0.55664 0.111328,-0.55664 0.5918,0 1.055738,-0.3499 1.236328,-0.93359 0.141425,-0.45709 0.216628,-0.68678 0.339844,-0.70313 z"
           transform="translate(6.7828812,4.1474581)" />
        <path
           id="path855"
           style="fill:#ec1d25;fill-opacity:1;stroke:#ec1d25;stroke-width:1px;stroke-linecap:butt;stroke-linejoin:miter;stroke-opacity:1"
           d="m -16.197266,682.5332 -10.285156,0.084 v 3.89258 l 2.5,0.0566 0.08594,14.20507 4.800781,-0.0566 -0.05664,-14.11914 2.982422,0.0274 z m -8.208984,0.65821 c 0.537702,-0.008 0.985876,0.63233 0.830078,1.46289 -0.14892,0.79392 -0.172836,0.79514 -1.035156,0.043 -0.68261,-0.59542 -0.76216,-0.88513 -0.34375,-1.26563 0.17986,-0.16356 0.369594,-0.23754 0.548828,-0.24023 z m 1.589844,14.02148 c 0.12546,0 0.228515,0.093 0.228515,0.20703 0,0.1141 -0.103055,0.20703 -0.228515,0.20703 -0.12547,0 -0.226563,-0.093 -0.226563,-0.20703 0,-0.11409 0.101093,-0.20703 0.226563,-0.20703 z m 2.109375,0.41406 c 0.22022,0 0.40039,0.37369 0.40039,0.83008 0,0.7973 -0.890995,1.12466 -1.515625,0.55664 -0.34539,-0.31409 0.516935,-1.38672 1.115235,-1.38672 z"
           transform="translate(6.7828812,4.1474581)" />
        <path
           id="path1695"
           style="fill:#ec1d25;fill-opacity:1;stroke:#ec1d25;stroke-width:0.015625;stroke-dashoffset:0.1;stroke-opacity:1"
           d="m -54.201172,681.36133 c -0.0051,0.005 -0.08388,0.29564 -0.175781,0.64648 -0.09194,0.35084 -0.288937,1.08791 -0.435547,1.63867 -0.14662,0.55076 -0.720784,2.74516 -1.277344,4.875 -1.19778,4.58357 -1.076622,4.13275 -1.107422,4.15235 -0.01787,0.0114 -0.41946,-0.0347 -1.40039,-0.16016 -0.75542,-0.0967 -1.395928,-0.176 -1.423828,-0.17578 -0.0371,3e-4 -0.05088,0.008 -0.05078,0.0273 1.3e-4,0.0263 0.410674,1.84011 0.527344,2.33008 l 0.0625,0.25781 0.226563,0.35743 c 0.12487,0.19675 0.267759,0.42867 0.318359,0.51367 0.08911,0.14983 0.342989,0.65567 0.480469,0.95898 l 0.06836,0.15039 -0.179687,0.63282 c -0.53003,1.87321 -0.635601,2.22361 -0.931641,3.07812 -0.1352,0.39022 -0.243281,0.72022 -0.238281,0.73242 0.0048,0.0121 0.02532,0.0216 0.04492,0.0215 0.01961,0 0.414786,0.009 0.878906,0.0195 0.81192,0.0179 3.491077,0.0653 4.023437,0.0703 0.85454,0.009 1.075985,0.006 1.083985,-0.0156 0.01354,-0.0358 0.478775,-3.08182 0.478515,-3.13282 -1.9e-4,-0.0369 0.27547,-0.0317 2.5,0.0449 0.76677,0.0265 1.315219,0.0515 1.324219,0.0605 0.009,0.009 0.03846,0.30446 0.144531,1.42383 0.05943,0.62705 0.111235,1.15553 0.115235,1.17383 0.0043,0.0183 0.02347,0.038 0.04297,0.043 0.01946,0.005 1.316592,0.007 2.882812,0.004 2.83751,-0.005 2.847816,-0.004 2.847656,-0.0351 -1.5e-4,-0.0285 -0.243885,-0.92993 -0.453125,-1.67383 -0.09491,-0.33743 -0.512542,-1.82591 -1.226562,-4.37695 -1.71179,-6.11581 -2.839093,-10.13624 -3.039063,-10.83594 -0.19767,-0.69165 -0.550603,-1.93536 -0.658203,-2.31836 l -0.109375,-0.38867 -0.169922,-0.0117 c -0.09361,-0.006 -0.957322,-0.0244 -1.919922,-0.041 -0.96259,-0.0166 -2.087206,-0.036 -2.498046,-0.043 -0.410831,-0.007 -0.75086,-0.009 -0.75586,-0.004 z m 2.083984,3.26953 c 0.08032,-0.0276 0.206269,0.0454 0.392579,0.21484 0.27918,0.25386 0.430154,0.67704 0.333984,0.93946 -0.0962,0.26243 -0.324862,0.34021 -0.507813,0.17382 -0.182999,-0.1664 -0.333984,-0.5876 -0.333984,-0.9375 0,-0.2335 0.03492,-0.36299 0.115234,-0.39062 z m 0.792969,5.74219 c 0.02002,0.0198 0.554198,2.80352 0.554688,2.89062 v 0.043 l -0.636719,0.002 c -0.3502,0 -0.648963,-0.002 -0.664062,-0.006 -0.0305,-0.008 -0.0316,0.005 0.0293,-0.24804 0.03147,-0.13059 0.555043,-2.14303 0.664063,-2.55078 0.0349,-0.13048 0.04093,-0.14256 0.05273,-0.13086 z m -0.222656,3.30468 c 0.12547,0 0.228516,0.0948 0.228516,0.20899 0,0.1141 -0.103046,0.20703 -0.228516,0.20703 -0.12546,0 -0.228516,-0.093 -0.228516,-0.20703 0,-0.1141 0.103056,-0.20899 0.228516,-0.20899 z"
           transform="translate(6.7828812,4.1474581)" />
        <path
           id="path1699"
           style="fill:#ec1d25;fill-opacity:1;stroke:#ec1d25;stroke-width:0.0110485;stroke-dashoffset:0.1;stroke-opacity:1"
           d="m -79.363281,682.20703 -0.605469,0.0195 c -0.33298,0.0105 -1.202541,0.0364 -1.931641,0.0586 -0.7291,0.0222 -1.695787,0.0524 -2.148437,0.0664 -0.45265,0.014 -1.467953,0.0451 -2.257813,0.0684 -0.78986,0.0234 -1.442218,0.0429 -1.449218,0.0449 -0.0086,0.003 -0.01167,0.28132 -0.01367,1.02344 -0.004,1.80242 -0.002,17.76944 0.002,17.77344 0.0022,0.002 0.246459,0.0106 0.542969,0.0176 0.01508,3.7e-4 0.150615,0.003 0.171875,0.004 0.209607,-0.12865 0.510551,-0.24939 0.855468,-0.32812 0.62735,-0.14318 1.140625,-0.44412 1.140625,-0.66797 0,-0.22385 0.204139,-0.4082 0.455079,-0.4082 0.52897,0 0.622664,1.11222 0.115234,1.37109 -0.06983,0.0356 -0.179058,0.059 -0.261719,0.0918 0.388695,0.01 0.485222,0.0129 0.902344,0.0234 1.56193,0.0392 2.952834,0.0703 3.089844,0.0703 0.29463,10e-5 0.621335,-0.0154 0.947265,-0.0469 1.6361,-0.15833 2.752153,-0.70834 3.445313,-1.69726 0.26911,-0.38393 0.49575,-0.90856 0.59375,-1.3711 0.012,-0.0566 0.04933,-0.19113 0.08203,-0.29883 0.08929,-0.29404 0.123703,-0.42282 0.158203,-0.5996 0.0952,-0.48552 0.123044,-1.07182 0.08984,-1.84961 -0.0209,-0.49149 -0.03277,-0.60716 -0.07617,-0.80079 -0.1658,-0.73986 -0.369305,-1.33656 -0.640625,-1.875 -0.2614,-0.51874 -0.53842,-0.91544 -1.03125,-1.4746 -0.06573,-0.0746 -0.119101,-0.14049 -0.119141,-0.14649 -3e-5,-0.006 0.04672,-0.0759 0.103516,-0.15625 0.50091,-0.70963 0.927471,-1.56564 1.207031,-2.41797 0.10712,-0.32644 0.135769,-0.44544 0.167969,-0.68555 0.0155,-0.11553 0.04455,-0.32497 0.06445,-0.46484 0.0661,-0.46289 0.07427,-0.5814 0.07227,-0.99414 -0.0016,-0.28456 -0.0063,-0.41555 -0.02148,-0.54102 -0.02705,-0.22377 -0.08131,-0.53656 -0.128906,-0.74414 -0.03777,-0.16483 -0.04297,-0.17912 -0.148437,-0.38086 -0.39862,-0.7625 -0.75592,-1.27235 -1.1875,-1.6914 -0.28685,-0.27852 -0.527017,-0.44957 -0.847657,-0.60742 -0.32064,-0.15785 -0.607745,-0.2467 -1.109375,-0.3418 z m -2.195313,4.54492 0.0332,0.0723 c 0.13137,0.28876 0.25686,0.63614 0.31836,0.88672 0.0616,0.25108 0.07531,0.38746 0.07031,0.64258 -0.0049,0.245 -0.02109,0.34932 -0.08789,0.55664 -0.03879,0.12034 -0.195397,0.45393 -0.216797,0.46093 -0.0067,0.002 -0.170451,0.0131 -0.363282,0.0234 -0.192829,0.01 -0.364512,0.0194 -0.382812,0.0195 h -0.0332 l -0.0039,-0.74414 c -0.003,-0.57861 0.0076,-1.87386 0.01563,-1.88086 8e-4,-7e-4 0.147531,-0.0105 0.326172,-0.0195 z m -0.228515,7.08789 c 0.31241,-0.0164 0.347075,-0.0155 0.359375,0 0.03336,0.0421 0.293303,0.57159 0.345703,0.70313 0.13425,0.33711 0.198218,0.61901 0.199219,0.89648 9e-4,0.18575 -0.01755,0.3172 -0.06445,0.46485 -0.05661,0.1781 -0.172545,0.38842 -0.296875,0.53906 l -0.05859,0.0703 -0.441407,0.002 -0.441406,0.002 v -0.10156 c -2e-4,-0.0562 0.01059,-0.63769 0.02539,-1.29102 0.0148,-0.65333 0.0274,-1.20496 0.02734,-1.22656 v -0.0391 z m 3.736328,1.47461 c 0.33121,-0.0594 0.705093,0.29771 0.876953,1.11524 0.35384,1.68325 -0.298596,2.7416 -1.191406,1.92969 -0.16729,-0.15212 -0.304688,-0.89951 -0.304688,-1.66016 0,-0.84834 0.287931,-1.32539 0.619141,-1.38477 z"
           transform="translate(6.7828812,4.1474581)" />
        <path
           id="path1717"
           style="fill:#ec1d25;fill-opacity:1;stroke:#ec1d25;stroke-width:0.0625;stroke-dashoffset:0.1;stroke-opacity:1"
           d="m -56.580078,614.87109 c -0.0091,0.008 0.385383,0.27697 0.876953,0.59766 1.04505,0.68176 1.563688,1.16798 2.111328,1.97852 1.58148,2.34069 2.447669,6.09249 2.355469,10.21093 -0.08767,3.91413 -0.943412,7.49917 -2.576172,10.79492 -2.02801,4.09357 -4.801677,7.11441 -8.779297,9.10157 -0.64125,0.32036 -1.15916,0.62086 -1.900391,0.57226 -1.04726,0.0837 -1.640353,-1.084 -2.027343,-1.86523 -0.37276,-0.7525 -0.451125,-1.13775 -0.453125,-2.24219 -0.0026,-1.39205 0.221509,-2.52581 0.880859,-4.4668 0.55693,-1.63948 1.111282,-2.92997 2.732422,-6.36328 1.02351,-2.16762 2.025334,-4.4005 1.990234,-4.4375 -0.01099,-0.0116 -0.562329,0.28349 -1.224609,0.65625 -6.31543,3.55463 -10.795618,7.24941 -13.955078,11.50586 -2.4488,3.29903 -4.022249,6.92891 -4.636719,10.69727 -0.27643,1.69546 -0.305569,2.11063 -0.292969,4.39062 0.01289,2.33228 0.06872,3.00591 0.402344,4.9043 0.94407,5.37192 3.259047,11.08774 7.091797,17.51367 0.41106,0.68917 0.752766,1.24724 0.759766,1.24024 0.0074,-0.007 0.125748,-1.02769 0.261718,-2.26563 0.85441,-7.77899 1.637683,-11.10676 3.064453,-13.01172 0.478481,-0.63884 1.276005,-1.16597 1.765626,-1.16797 l 0.15039,-0.002 -0.11914,0.34766 c -0.400261,1.15778 -0.481796,2.91279 -0.228516,4.96679 0.49045,3.9774 0.920845,4.82539 3.384766,6.67383 0.571849,0.36804 1.543571,0.94586 2.582031,1.05078 1.88098,0.27641 3.344371,-0.89332 3.707031,-3.62695 0.06736,-0.54198 0.119623,-1.04998 0.002,-1.5957 -0.17259,-1.02142 -0.245658,-1.3369 -0.861328,-3.76563 -0.57943,-2.28577 -0.702359,-3.09716 -0.755859,-4.99609 -0.05646,-2.00448 -0.09242,-3.65775 0.421875,-6.62696 0.49273,-2.82015 1.548098,-4.87686 3.417968,-7.38671 1.5548,-1.71366 3.681162,-2.92691 6.544922,-3.73243 0.42624,-0.1199 0.787735,-0.2062 0.802735,-0.1914 0.03604,0.0357 -0.222842,0.51818 -1.238282,2.30078 -1.19644,2.10033 -1.740166,3.21978 -2.310546,4.76367 -0.608171,1.64618 -1.041444,3.52151 -1.214844,5.25977 -0.1051,1.05349 -0.111219,3.29621 -0.01172,4.33008 0.27943,2.90396 1.074503,6.00214 2.345703,9.14453 0.55613,1.37371 1.524399,3.38119 4.011719,3.90039 0.4985,0.0351 1.108512,-0.11814 1.539062,-0.38477 0.33262,-0.20598 0.877062,-0.75769 1.138672,-1.15625 0.87766,-1.33702 1.270254,-3.62614 0.964844,-5.61719 -0.34079,-2.2217 -1.039056,-4.46847 -2.472656,-7.95312 -0.33104,-0.80464 -0.587513,-1.47674 -0.570313,-1.49414 0.04101,-0.0414 1.42963,0.64235 2.34375,1.15429 0.86851,0.48641 2.155736,1.34144 2.884766,1.91602 0.74984,0.59098 2.148148,1.9839 2.767578,2.75781 2.68362,3.35287 4.474966,7.98153 5.478516,14.15625 0.08686,0.53426 0.157583,1.0106 0.158203,1.0586 0.0015,0.12033 1.06497,-0.32901 1.53125,-0.49219 1.15295,-0.40349 2.231528,-1.03506 3.767578,-2.63086 2.402567,-2.49604 4.386722,-5.67819 5.701172,-8.98633 -0.144174,-0.34519 0.02638,-0.65996 0.345703,-0.89062 0.470781,-1.31709 0.836517,-2.6455 1.066406,-3.95313 1.17264,-6.6701 -0.564947,-12.82804 -5.179687,-18.35937 -0.80477,-0.96462 -2.982684,-3.11378 -4.027344,-3.97461 -1.03805,-0.85537 -3.228244,-2.48124 -3.277344,-2.43164 -0.05995,0.0606 0.459229,1.63257 1.074219,3.25 1.07911,2.8381 1.215112,3.70419 1.451172,4.75586 0.72054,3.21025 0.556875,4.84484 0.484375,6.38867 -0.12388,2.63717 -0.491445,3.51665 -1.578125,4.60742 -0.43216,0.43379 -0.605833,0.55676 -1.220703,0.86328 -0.97086,0.48399 -1.654617,0.67862 -2.560547,0.72852 -1.50238,0.0828 -2.648766,-0.35071 -3.634766,-1.375 -0.82921,-0.86142 -1.466785,-2.0337 -1.947266,-3.57813 -0.04416,-0.14194 -0.07078,-0.27431 -0.109374,-0.41211 -0.02317,0.0362 -0.03831,0.0773 -0.0625,0.11133 -0.243251,0.3423 -0.44336,0.43523 -0.44336,0.20703 0,-0.1958 0.160197,-0.5592 0.355469,-0.87695 -0.258779,-1.1117 -0.34858,-2.18865 -0.310547,-3.68359 0.05818,-2.28439 0.474207,-4.53806 1.560547,-8.47657 0.78656,-2.89786 1.007252,-7.09982 0.294922,-10.51172 -1.64058,-5.43781 -3.648587,-8.79077 -6.560547,-10.95507 -1.91454,-1.42299 -4.321662,-2.35226 -6.951172,-2.6836 -0.69554,-0.0876 -3.042878,-0.26773 -3.080078,-0.23633 z m 9.037109,26.84375 c 0.91529,0 1.340239,1.25424 0.574219,1.69532 -0.81753,0.47075 -1.204477,0.47118 -1.523438,0.002 -0.397339,-0.58464 0.224519,-1.69727 0.949219,-1.69727 z m -28.80664,1.24414 c 0.12547,0 0.228515,0.0948 0.228515,0.20899 0,0.1141 -0.103045,0.20703 -0.228515,0.20703 -0.12546,0 -0.228516,-0.0929 -0.228516,-0.20703 0,-0.1141 0.103056,-0.20899 0.228516,-0.20899 z m 0.458984,4.98047 c 0.85368,0 1.165488,1.56127 0.367187,1.83985 -0.81767,0.28533 -0.691408,0.2978 -1.480468,-0.15625 -0.54287,-0.31238 -0.553224,-0.48732 -0.05859,-1.0293 0.32826,-0.35969 0.855465,-0.6543 1.171875,-0.6543 z m 34.216797,4.97852 c 0.12547,0 0.228515,0.0929 0.228516,0.20703 0,0.1141 -0.103046,0.20703 -0.228516,0.20703 -0.12546,0 -0.228516,-0.0929 -0.228516,-0.20703 0,-0.1141 0.103056,-0.20703 0.228516,-0.20703 z m -32.394531,0.83008 c 0.12547,0 0.228515,0.093 0.228515,0.20703 0,0.1141 -0.103045,0.20703 -0.228515,0.20703 -0.12546,0 -0.228516,-0.093 -0.228516,-0.20703 0,-0.1141 0.103056,-0.20703 0.228516,-0.20703 z m 45.49414,3.91015 c 0.214705,-0.009 0.359375,0.39505 0.359375,1.04297 0,0.69805 -0.206091,1.26953 -0.457031,1.26953 -0.25094,0 -0.455078,-0.45469 -0.455078,-1.01172 0,-0.55702 0.204138,-1.1285 0.455078,-1.26953 0.03327,-0.0187 0.06698,-0.0299 0.09766,-0.0312 z m 7.941407,0.65235 c 0.12546,0 0.100442,0.18782 -0.05469,0.41601 -0.15509,0.2282 -0.384296,0.41406 -0.509766,0.41406 -0.12546,0 -0.100442,-0.18586 0.05469,-0.41406 0.15509,-0.22819 0.384296,-0.41601 0.509766,-0.41601 z m -3.615235,1.38086 c 0.449633,-0.0979 0.800225,0.42378 0.710938,1.4414 -0.0618,0.70389 0.09376,1.39468 0.34375,1.53516 0.54924,0.3087 0.602211,1.03711 0.07617,1.03711 -0.20719,0 -0.856329,-0.46498 -1.443359,-1.0332 -0.92943,-0.89968 -0.997877,-1.17223 -0.529297,-2.10743 0.266798,-0.5325 0.572018,-0.81428 0.841797,-0.87304 z m -47.488281,1.66601 c 0.05454,0.008 0.114999,0.0311 0.177734,0.0664 0.25094,0.14103 0.457032,0.33881 0.457032,0.43945 0,0.10063 -0.206092,0.18164 -0.457032,0.18164 -0.25094,0 -0.457031,-0.19779 -0.457031,-0.43945 0,-0.18125 0.115688,-0.27306 0.279297,-0.24805 z m 35.080078,3.5918 c 0.12546,0 0.228516,0.093 0.228516,0.20703 0,0.1141 -0.103056,0.20898 -0.228516,0.20898 -0.12547,0 -0.226562,-0.0949 -0.226562,-0.20898 0,-0.11409 0.101092,-0.20703 0.226562,-0.20703 z m 2.109375,0.41601 c 0.22022,0 0.400391,0.37369 0.400391,0.83008 0,0.7973 -0.890995,1.12466 -1.515625,0.55664 -0.34539,-0.31409 0.516934,-1.38672 1.115234,-1.38672 z m 10.894531,0.41407 c 0.25094,0 0.457032,0.18781 0.457032,0.41601 0,0.2282 -0.206092,0.41407 -0.457032,0.41407 -0.25094,0 -0.457031,-0.18587 -0.457031,-0.41407 0,-0.2282 0.206091,-0.41601 0.457031,-0.41601 z m -24.451172,0.0742 c 0.03636,0.005 0.07536,0.0264 0.117188,0.0644 0.16729,0.15213 0.16729,0.4006 0,0.55273 -0.1673,0.15213 -0.302734,0.0289 -0.302734,-0.27539 0,-0.22819 0.07647,-0.3567 0.185546,-0.34179 z m 17.378907,1.17187 c 0.12547,0 0.228515,0.093 0.228515,0.20703 0,0.1141 -0.103045,0.20703 -0.228515,0.20703 -0.12546,0 -0.228516,-0.093 -0.228516,-0.20703 0,-0.11409 0.103056,-0.20703 0.228516,-0.20703 z m 1.826171,4.14844 c 0.12547,0 0.226563,0.093 0.226563,0.20703 0,0.1141 -0.101093,0.20703 -0.226563,0.20703 -0.125459,0 -0.228515,-0.093 -0.228515,-0.20703 0,-0.11409 0.103056,-0.20703 0.228515,-0.20703 z m -1.917968,1.38867 c 0.111593,-0.0104 0.242323,0.0195 0.384765,0.0996 0.51827,0.29129 0.505665,1.41601 -0.01563,1.41601 -0.22409,0 -0.517313,-0.26205 -0.652343,-0.58203 -0.213908,-0.50692 -0.05158,-0.9023 0.283203,-0.93359 z"
           transform="translate(6.7828812,4.1474581)" />
      </g>
      <text
         xml:space="preserve"
         style="font-style:normal;font-variant:normal;font-weight:normal;font-stretch:normal;font-size:16px;line-height:1.25;font-family:Antone;-inkscape-font-specification:'Antone, Normal';font-variant-ligatures:normal;font-variant-caps:normal;font-variant-numeric:normal;font-variant-east-asian:normal;fill:#ffffff;stroke:#ffffff"
         x="14.2075"
         y="160.06451"
         id="text356"><tspan
           sodipodi:role="line"
           id="tspan358"
           x="14.2075"
           y="160.06451">BREWERY</tspan></text>
    </g>
  </g>
</svg>
