<?xml version="1.0" encoding="utf-8"?>
<!-- Generator: Adobe Illustrator 19.0.0, SVG Export Plug-In . SVG Version: 6.00 Build 0)  -->
<svg version="1.1" id="Layer_1" xmlns="http://www.w3.org/2000/svg" xmlns:xlink="http://www.w3.org/1999/xlink" x="0px" y="0px"
	 viewBox="0 0 559.6 278.5" style="enable-background:new 0 0 559.6 278.5;" xml:space="preserve">
<style type="text/css">
	.st0{fill:#939598;}
	.st1{fill:#FFFFFF;}
	.st2{fill:#BCBEC0;}
	.st3{fill:#C33D32;}
</style>
<g>
	<g>
		<path d="M218.6,180c-0.1,0.5,2.1,5.9,0.2,5.4c0.9,3.1,2.5,6.7,1.1,8.8c-0.5,2.6,0.7,5.4,2.8,7c1.1,0.8,2.4,1.3,3.7,1.2
			c1.5-0.1,3-0.8,4.4-1.5c1.6-1.8,4.8-1.8,8.6-2.3c0.5-2.7,4.5-1.8,5-2.1c-1.5-1.3,3.2-2,4-2.9c-1.9-1.1,2.7-3.2,3-3.7
			c-2.6-1.2,2.1-3.1,2.4-3.7c-2.9-1.3,1.1-4.1,1.3-5.3c-3.7-1.8-0.1-5.5-0.3-6.5c-4.3-2.2-0.5-4.8-0.6-5.8c-2.8-0.8,0-4.3-0.2-5
			c-2.6-2.3-1.5-7.5-1.1-9.2c0-0.1-0.1-0.2-0.2-0.1c-1.4,1.1-5.7,4.7-8,2.8c-0.7,0.1-3.7,2.9-5.2,1.6c-0.9,0.3-3.3,4.4-5.7,2.3
			c-0.9,0.3-3,4.1-5.6,2.3c-1,0.7-2.2,4.9-4.2,3.4c-0.4,0.5-0.4,5.6-2.8,3.9c-0.3,0.6,0.4,5.9-1.9,4.3
			C218.9,176.1,220.7,180.7,218.6,180z"/>
		<g>
			<path class="st0" d="M237.9,185.1c-1.8,2.3,12.3-1,12.9-2.4C251.6,181.5,239.5,183.1,237.9,185.1z"/>
			<path class="st0" d="M241.2,178.7c-1.5,1.7,10.6-1.8,10.7-2.7C252.1,174.8,243.4,176.2,241.2,178.7z"/>
			<path class="st0" d="M231.3,193.5c-2.3,2.3,15-1.7,16.3-3.5C248.9,188.1,233.4,191.4,231.3,193.5z"/>
			<path class="st0" d="M251.9,170.3c0.4-1-5.8,0.4-7.5,2.2C242.8,174.1,251.5,171.3,251.9,170.3z"/>
			<path class="st1" d="M222.6,172.5c0,1.6-0.2,3.4-1.5,4c-0.1,0-0.1,0.1-0.2,0.1c0,0.1,0,0.1,0,0.2c0.2,1.6,0.5,3.2-0.5,4.1
				c0.9,3.2,1.1,5.9,0.4,5.4c1.2,2.8,1.7,4.5,1.2,7.3c0,0,1.1,1.3,1.5,1.6c1.6-1-1.2-10.2,0.6-14c0.6,2.9,2.5,6,2.9,6.1
				c0.5,0.1-0.5-9.4,0.5-12.8c0,0,0.9,5,3.3,6.6c1.7,1.1-1.1-6.3,1.3-12.9c0,0,1,6.5,3,7.4c1.8,0.9,0.6-6.4,2.4-10.7
				c0,0,0.7,4.3,2.3,5c1.6,0.7,0.9-4.7,2.8-8.1c0,0,0.1,4,1,4.3c0.5,0.2,5.1-6.1,7.1-8.7c-1.9,1.1-4.1,2.1-6.1,1.2
				c-0.1,0.1-0.2,0.1-0.3,0.2c-1.2,0.8-3,1.9-4.6,1.5c-0.1,0.1-0.1,0.1-0.2,0.2c-1.1,1.1-3.2,3.2-5.6,2.2c0,0-0.1,0.1-0.1,0.1
				c-1,1-2.8,2.9-5.2,2.2c-0.1,0.1-0.1,0.2-0.2,0.3c-0.7,1.2-1.6,2.7-3,3c-0.1,0-0.2,0-0.3,0.1c-0.3,1.4-0.7,3.2-2.1,3.8
				C223,172.4,222.8,172.5,222.6,172.5z"/>
			<path class="st0" d="M251.8,164.4c0.7-1.1-3.7,0-5.6,3.4C245.9,168.3,250.7,166.2,251.8,164.4z"/>
		</g>
	</g>
	<g>
		<path d="M282.4,236.2c-26,0-31.9-0.5-34.9-5.1c-3.6-5.5-0.9-10.9,1-14.8l0,0c9.1-20.1,9.2-38.5,9.3-52c0-1.3,0-2.6,0-3.8
			c0.2-16.6-4.3-29.6-9.2-43.4c-5-14.3-10.2-29.1-9.9-48.4c0.5-26.1,7.1-39,7.8-40.2c1-2,3.6-3.1,9.2-3.9c5.7-0.8,14.7-1.2,26.6-1.2
			c11.9,0,20.9,0.4,26.6,1.2c5.6,0.8,8.2,1.9,9.2,3.9c0.4,0.7,0.8,1.5,1.2,2.6c0.9,2.2,1.8,4.7,2.6,7.5c1.7,6,3.7,16.1,4,30.1
			c0.4,19.3-4.8,34.1-9.9,48.4c-4.8,13.8-9.4,26.8-9.2,43.4c0,1.2,0,2.5,0,3.8c0.1,13.5,0.2,31.9,9.3,52l0,0c1.9,3.9,4.6,9.2,1,14.8
			C314.3,235.8,308.4,236.2,282.4,236.2L282.4,236.2z"/>
		<path class="st1" d="M307.6,210.9c-10.4,1.8-21.1,2.7-31.7,2.7c0,0,0,0,0,0c-10.2,0-20.4-0.8-30.5-2.5c-0.8-0.1-1.6,0.3-1.9,1.1
			c-0.5,1.2-1,2.5-1.6,3.8c-2.1,4.2-4.2,8.4-1.4,12.8c2.2,3.3,7.4,4,35.3,4c11.1,0,18.6-0.1,23.7-0.5c7.9-0.5-30.7-0.7-48.5-3.9
			c-7.6-1.4-5.6-6.5-3.7-9.8c0.7-1.2,2-1.9,3.4-1.8C274.2,218.9,301.3,214.8,307.6,210.9z"/>
		<g>
			<g>
				<path class="st1" d="M282.8,71.4c-13.6,0-27.2,0.9-40.7,2.8c1.2,33.5,19.5,53.3,19,86.4c-0.2,12.1,0.5,29.9-6.7,49.8
					c9.2,1.6,18.7,2.4,28,2.4c0,0,0,0,0,0c8.5,0,17.1-0.7,25.5-2c1.2-0.2,1.9-1.4,1.6-2.6c-6.3-19-5.7-36-5.9-47.6
					c-0.5-32.5,17.1-52.2,18.9-84.5c0.1-1-0.7-1.9-1.7-2C308.3,72.3,295.5,71.4,282.8,71.4z"/>
				<path class="st2" d="M320.2,78.2c0.1-1.1-0.7-2.2-1.9-2.3c0,0,0,0,0,0c-0.9-0.1-1.9-0.3-2.8-0.4c-1.5-0.2-3.1-0.4-4.6-0.6
					c-1.5-0.2-3.1-0.3-4.6-0.5l-4.6-0.4c-6.2-0.4-12.4-0.6-18.6-0.5l-2.3,0l-1.2,0l-1.2,0l-4.6,0.2c-1.5,0.1-3.1,0.2-4.6,0.3
					l-2.3,0.2c-0.8,0.1-1.5,0.2-2.3,0.2l-4.6,0.5l-4.6,0.7l-2.3,0.3l-2.3,0.4l-4.5,0.9c0,0,33-2.1,46.6,0c3.1,0.5,5.3,3.3,4.9,6.5
					c-4.7,39.6-15.4,49.7-9.8,113.3c0.5,5.6-4,11.3-30.4,11.3c8.3,1.3,16.7,1.9,25,1.9h0c7.4,0,14.9-0.5,22.3-1.5
					c1.3-0.2,2.1-1.5,1.8-2.7c-4.9-16.3-5-30.9-5.1-41.8c0-1.3,0-2.6,0-3.8c-0.3-17.6,4.7-31.6,9.5-45.3
					C314.9,103.9,319,92.2,320.2,78.2z"/>
			</g>
			<g>
				<g>
					<path class="st1" d="M292.8,187.5c0.3-0.1,0.7-0.1,1,0.1c0.3,0.1,0.6,0.4,0.8,0.7c0.2,0.3,0.2,0.7,0.2,1.1
						c-0.1,0.4-0.2,0.7-0.5,1c-0.5,0.6-1.5,0.7-2.1,0.3c-0.3-0.2-0.6-0.5-0.7-0.8c-0.1-0.3-0.2-0.7-0.1-1c0.1,0.6,0.6,1.1,1,1.2
						c0.5,0.2,1,0,1.3-0.3c0.3-0.3,0.5-0.8,0.3-1.3C293.9,188,293.4,187.6,292.8,187.5z"/>
					<path class="st1" d="M295,157.4c0.5-0.1,1-0.1,1.4,0.2c0.5,0.2,0.9,0.6,1.1,1.1c0.3,0.5,0.3,1,0.3,1.6c0,0.3-0.1,0.5-0.3,0.8
						c-0.1,0.2-0.3,0.5-0.5,0.7c-0.2,0.2-0.4,0.4-0.7,0.5c-0.3,0.1-0.5,0.2-0.8,0.2c-0.5,0.1-1.1,0-1.6-0.3
						c-0.5-0.2-0.9-0.7-1.1-1.1c-0.2-0.5-0.3-1-0.1-1.4c0.2,0.9,0.8,1.6,1.5,1.9c0.7,0.3,1.6,0.1,2.1-0.5c0.5-0.5,0.7-1.3,0.5-2.1
						C296.6,158.2,295.9,157.6,295,157.4z"/>
					<path class="st1" d="M300.2,196.1c0.4-0.1,0.9,0.1,1.1,0.5c0.2,0.4,0.1,0.9-0.2,1.3c-0.3,0.3-0.9,0.4-1.3,0.2
						c-0.4-0.2-0.6-0.7-0.5-1.1c0.1,0.4,0.3,0.7,0.6,0.8c0.3,0.1,0.6,0,0.9-0.2c0.2-0.2,0.3-0.6,0.2-0.9
						C300.9,196.4,300.6,196.2,300.2,196.1z"/>
					<path class="st1" d="M299.8,203.9c0.4-0.1,0.9,0.1,1.1,0.5c0.2,0.4,0.1,0.9-0.2,1.3c-0.3,0.3-0.9,0.4-1.3,0.2
						c-0.4-0.2-0.6-0.7-0.5-1.1c0.1,0.4,0.3,0.7,0.6,0.8c0.3,0.1,0.6,0,0.9-0.2c0.2-0.2,0.3-0.6,0.2-0.9
						C300.5,204.2,300.2,203.9,299.8,203.9z"/>
					<path class="st1" d="M297.7,180.1c0.4-0.1,0.9,0.1,1.1,0.5c0.2,0.4,0.1,0.9-0.2,1.3c-0.3,0.3-0.9,0.4-1.3,0.2
						c-0.4-0.2-0.6-0.7-0.5-1.1c0.1,0.4,0.3,0.7,0.6,0.8c0.3,0.1,0.6,0,0.9-0.2c0.2-0.2,0.3-0.6,0.2-0.9
						C298.4,180.4,298.1,180.2,297.7,180.1z"/>
					<path class="st1" d="M308.2,103.3c0.4-0.1,0.9,0.1,1.1,0.5c0.2,0.4,0.1,0.9-0.2,1.3c-0.3,0.3-0.9,0.4-1.3,0.2
						c-0.4-0.2-0.6-0.7-0.5-1.1c0.1,0.4,0.3,0.7,0.6,0.8c0.3,0.1,0.6,0,0.9-0.2c0.2-0.2,0.3-0.6,0.2-0.9
						C308.9,103.6,308.6,103.4,308.2,103.3z"/>
					<path class="st1" d="M299.2,138.5c0.4-0.1,0.9,0.1,1.1,0.5c0.2,0.4,0.1,0.9-0.2,1.3c-0.3,0.3-0.9,0.4-1.3,0.2
						c-0.4-0.2-0.6-0.7-0.5-1.1c0.1,0.4,0.3,0.7,0.6,0.8c0.3,0.1,0.6,0,0.9-0.2c0.2-0.2,0.3-0.6,0.2-0.9
						C299.9,138.9,299.6,138.6,299.2,138.5z"/>
					<path class="st1" d="M299.8,98.9c0.4-0.1,0.9,0.1,1.1,0.5c0.2,0.4,0.1,0.9-0.2,1.3c-0.3,0.3-0.9,0.4-1.3,0.2
						c-0.4-0.2-0.6-0.7-0.5-1.1c0.1,0.4,0.3,0.7,0.6,0.8c0.3,0.1,0.6,0,0.9-0.2c0.2-0.2,0.3-0.6,0.2-0.9
						C300.5,99.3,300.2,99,299.8,98.9z"/>
					<path class="st1" d="M292.9,168.9c0.4-0.1,0.9,0.1,1.1,0.5c0.2,0.4,0.1,0.9-0.2,1.3c-0.3,0.3-0.9,0.4-1.3,0.2
						c-0.4-0.2-0.6-0.7-0.5-1.1c0.1,0.4,0.3,0.7,0.6,0.8c0.3,0.1,0.6,0,0.9-0.2c0.2-0.2,0.3-0.6,0.2-0.9
						C293.6,169.2,293.3,168.9,292.9,168.9z"/>
					<path class="st1" d="M312.1,90.6c0.3-0.1,0.7,0,1,0.1c0.3,0.1,0.6,0.4,0.7,0.7c0.2,0.3,0.2,0.7,0.2,1.1c-0.1,0.4-0.2,0.7-0.5,1
						c-0.3,0.3-0.6,0.4-1,0.5c-0.4,0-0.7,0-1.1-0.2c-0.3-0.2-0.6-0.4-0.7-0.7c-0.1-0.3-0.2-0.7-0.1-1c0.1,0.6,0.5,1.1,1,1.3
						c0.5,0.2,1,0,1.4-0.3c0.4-0.3,0.5-0.9,0.3-1.4C313.2,91.1,312.7,90.7,312.1,90.6z"/>
					<path class="st1" d="M303.3,115.4c0.3-0.1,0.7-0.1,1,0.1c0.3,0.1,0.6,0.4,0.8,0.7c0.2,0.3,0.2,0.7,0.2,1.1
						c-0.1,0.4-0.2,0.7-0.5,1c-0.5,0.6-1.5,0.7-2.1,0.3c-0.3-0.2-0.6-0.5-0.7-0.8c-0.1-0.3-0.2-0.7-0.1-1c0.1,0.6,0.6,1.1,1,1.2
						c0.5,0.2,1,0,1.3-0.3c0.3-0.3,0.5-0.8,0.3-1.3C304.4,115.9,304,115.5,303.3,115.4z"/>
					<path class="st1" d="M293.3,144.1c0.3-0.1,0.7-0.1,1,0.1c0.3,0.1,0.6,0.4,0.8,0.7c0.2,0.3,0.2,0.7,0.2,1.1
						c-0.1,0.4-0.2,0.7-0.5,1c-0.5,0.6-1.5,0.7-2.1,0.3c-0.3-0.2-0.6-0.5-0.7-0.8c-0.1-0.3-0.2-0.7-0.1-1c0.1,0.6,0.6,1.1,1,1.2
						c0.5,0.2,1,0,1.3-0.3c0.3-0.3,0.5-0.8,0.3-1.3C294.3,144.7,293.9,144.3,293.3,144.1z"/>
					<path class="st1" d="M305.5,81.4c0.5-0.1,1-0.1,1.4,0.2c0.5,0.2,0.9,0.6,1.1,1.1c0.3,0.5,0.3,1,0.3,1.6c0,0.3-0.1,0.5-0.3,0.8
						c-0.1,0.2-0.3,0.5-0.5,0.7c-0.2,0.2-0.4,0.4-0.7,0.5c-0.3,0.1-0.5,0.2-0.8,0.2c-0.5,0.1-1.1,0-1.6-0.3
						c-0.5-0.2-0.9-0.7-1.1-1.1c-0.2-0.5-0.3-1-0.1-1.4c0.2,0.9,0.8,1.6,1.5,1.9c0.7,0.3,1.6,0.1,2.1-0.5c0.5-0.5,0.7-1.3,0.5-2.1
						C307.1,82.2,306.4,81.6,305.5,81.4z"/>
					<path class="st1" d="M295.3,123c0.5-0.1,1-0.1,1.4,0.2c0.5,0.2,0.9,0.6,1.1,1.1c0.3,0.5,0.3,1,0.3,1.6c0,0.3-0.1,0.5-0.3,0.8
						c-0.1,0.2-0.3,0.5-0.5,0.7c-0.2,0.2-0.4,0.4-0.7,0.5c-0.3,0.1-0.5,0.2-0.8,0.2c-0.5,0.1-1.1,0-1.6-0.3
						c-0.5-0.2-0.9-0.7-1.1-1.1c-0.2-0.5-0.3-1-0.1-1.4c0.2,0.9,0.8,1.6,1.5,1.9c0.7,0.3,1.6,0.1,2.1-0.5c0.5-0.5,0.7-1.3,0.5-2.1
						C296.9,123.8,296.2,123.1,295.3,123z"/>
				</g>
				<g>
					<path class="st0" d="M262.5,203.9c0.4-0.1,0.9,0.1,1.1,0.5c0.2,0.4,0.1,0.9-0.2,1.3c-0.3,0.3-0.9,0.4-1.3,0.2
						c-0.4-0.2-0.6-0.7-0.5-1.1c0.1,0.4,0.3,0.7,0.6,0.8c0.3,0.1,0.6,0,0.9-0.2c0.2-0.2,0.3-0.6,0.2-0.9
						C263.2,204.2,262.9,203.9,262.5,203.9z"/>
					<path class="st0" d="M290.7,108.2c0.4-0.1,0.9,0.1,1.1,0.5c0.2,0.4,0.1,0.9-0.2,1.3c-0.3,0.3-0.9,0.4-1.3,0.2
						c-0.4-0.2-0.6-0.7-0.5-1.1c0.1,0.4,0.3,0.7,0.6,0.8c0.3,0.1,0.6,0,0.9-0.2c0.2-0.2,0.3-0.6,0.2-0.9
						C291.3,108.6,291,108.3,290.7,108.2z"/>
					<path class="st0" d="M269.6,130.9c0.4-0.1,0.9,0.1,1.1,0.5c0.2,0.4,0.1,0.9-0.2,1.3c-0.3,0.3-0.9,0.4-1.3,0.2
						c-0.4-0.2-0.6-0.7-0.5-1.1c0.1,0.4,0.3,0.7,0.6,0.8c0.3,0.1,0.6,0,0.9-0.2c0.2-0.2,0.3-0.6,0.2-0.9
						C270.3,131.3,270,131,269.6,130.9z"/>
					<path class="st0" d="M280.6,142.5c0.4-0.1,0.9,0.1,1.1,0.5c0.2,0.4,0.1,0.9-0.2,1.3c-0.3,0.3-0.9,0.4-1.3,0.2
						c-0.4-0.2-0.6-0.7-0.5-1.1c0.1,0.4,0.3,0.7,0.6,0.8c0.3,0.1,0.6,0,0.9-0.2c0.2-0.2,0.3-0.6,0.2-0.9
						C281.3,142.9,281,142.6,280.6,142.5z"/>
					<path class="st0" d="M276.1,118.9c0.5-0.1,1-0.1,1.4,0.2c0.5,0.2,0.9,0.6,1.1,1.1c0.3,0.5,0.3,1,0.3,1.6c0,0.3-0.1,0.5-0.3,0.8
						c-0.1,0.2-0.3,0.5-0.5,0.7c-0.2,0.2-0.4,0.4-0.7,0.5c-0.3,0.1-0.5,0.2-0.8,0.2c-0.5,0.1-1.1,0-1.6-0.3
						c-0.5-0.2-0.9-0.7-1.1-1.1c-0.2-0.5-0.3-1-0.1-1.4c0.2,0.9,0.8,1.6,1.5,1.9c0.7,0.3,1.6,0.1,2.1-0.5c0.5-0.5,0.7-1.3,0.5-2.1
						C277.8,119.7,277.1,119,276.1,118.9z"/>
					<path class="st0" d="M265.6,185.7c0.3-0.1,0.7-0.1,1,0.1c0.3,0.1,0.6,0.4,0.8,0.7c0.2,0.3,0.2,0.7,0.2,1.1
						c-0.1,0.4-0.2,0.7-0.5,1c-0.3,0.3-0.6,0.4-1,0.5c-0.4,0-0.8,0-1.1-0.2c-0.3-0.2-0.6-0.4-0.7-0.8c-0.1-0.3-0.2-0.7-0.1-1
						c0.1,0.6,0.5,1.1,1,1.2c0.5,0.2,1,0,1.3-0.3c0.3-0.3,0.5-0.9,0.3-1.3C266.7,186.3,266.3,185.8,265.6,185.7z"/>
					<path class="st0" d="M259,122.1c0.3-0.1,0.7-0.1,1,0.1c0.3,0.1,0.6,0.4,0.8,0.7c0.2,0.3,0.2,0.7,0.2,1.1
						c-0.1,0.4-0.2,0.7-0.5,1c-0.3,0.3-0.6,0.4-1,0.5c-0.4,0-0.8,0-1.1-0.2c-0.3-0.2-0.6-0.4-0.7-0.8c-0.1-0.3-0.2-0.7-0.1-1
						c0.1,0.6,0.5,1.1,1,1.2c0.5,0.2,1,0,1.3-0.3c0.3-0.3,0.5-0.9,0.3-1.3C260.1,122.6,259.7,122.2,259,122.1z"/>
					<path class="st0" d="M281.8,100.1c0.4-0.1,0.9,0.1,1.1,0.5c0.2,0.4,0.1,0.9-0.2,1.3c-0.3,0.3-0.9,0.4-1.3,0.2
						c-0.4-0.2-0.6-0.7-0.5-1.1c0.1,0.4,0.3,0.7,0.6,0.8c0.3,0.1,0.6,0,0.9-0.2c0.2-0.2,0.3-0.6,0.2-0.9
						C282.5,100.4,282.2,100.2,281.8,100.1z"/>
					<path class="st0" d="M281.7,161c0.4-0.1,0.9,0.1,1.1,0.5c0.2,0.4,0.1,0.9-0.2,1.3c-0.3,0.3-0.9,0.4-1.3,0.2
						c-0.4-0.2-0.6-0.7-0.5-1.1c0.1,0.4,0.3,0.7,0.6,0.8c0.3,0.1,0.6,0,0.9-0.2c0.2-0.2,0.3-0.6,0.2-0.9
						C282.3,161.4,282,161.1,281.7,161z"/>
					<path class="st0" d="M289.8,87.9c0.4-0.1,0.9,0.1,1.1,0.5c0.2,0.4,0.1,0.9-0.2,1.3c-0.3,0.3-0.9,0.4-1.3,0.2
						c-0.4-0.2-0.6-0.7-0.5-1.1c0.1,0.4,0.3,0.7,0.6,0.8c0.3,0.1,0.6,0,0.9-0.2c0.2-0.2,0.3-0.6,0.2-0.9
						C290.5,88.2,290.2,87.9,289.8,87.9z"/>
					<path class="st0" d="M252.7,102.1c0.4-0.1,0.9,0.1,1.1,0.5c0.2,0.4,0.1,0.9-0.2,1.3c-0.3,0.3-0.9,0.4-1.3,0.2
						c-0.4-0.2-0.6-0.7-0.5-1.1c0.1,0.4,0.3,0.7,0.6,0.8c0.3,0.1,0.6,0,0.9-0.2c0.2-0.2,0.3-0.6,0.2-0.9
						C253.3,102.4,253.1,102.2,252.7,102.1z"/>
					<path class="st0" d="M267.4,112.2c0.4-0.1,0.9,0.1,1.1,0.5c0.2,0.4,0.1,0.9-0.2,1.3c-0.3,0.3-0.9,0.4-1.3,0.2
						c-0.4-0.2-0.6-0.7-0.5-1.1c0.1,0.4,0.3,0.7,0.6,0.8c0.3,0.1,0.6,0,0.9-0.2c0.2-0.2,0.3-0.6,0.2-0.9
						C268.1,112.6,267.8,112.3,267.4,112.2z"/>
					<path class="st0" d="M267.3,96.8c0.5-0.1,1-0.1,1.4,0.2c0.5,0.2,0.9,0.6,1.1,1.1c0.3,0.5,0.3,1,0.3,1.6c0,0.3-0.1,0.5-0.3,0.8
						c-0.1,0.2-0.3,0.5-0.5,0.7c-0.2,0.2-0.4,0.4-0.7,0.5c-0.3,0.1-0.5,0.2-0.8,0.2c-0.5,0.1-1.1,0-1.6-0.3
						c-0.5-0.2-0.9-0.7-1.1-1.1c-0.2-0.5-0.3-1-0.1-1.4c0.2,0.9,0.8,1.6,1.5,1.9c0.7,0.3,1.6,0.1,2.1-0.5c0.5-0.5,0.7-1.3,0.5-2.1
						C268.9,97.6,268.2,97,267.3,96.8z"/>
					<path class="st0" d="M249,82.9c0.4-0.1,0.9,0.1,1.1,0.5c0.2,0.4,0.1,0.9-0.2,1.3c-0.3,0.3-0.9,0.4-1.3,0.2
						c-0.4-0.2-0.6-0.7-0.5-1.1c0.1,0.4,0.3,0.7,0.6,0.8c0.3,0.1,0.6,0,0.9-0.2c0.2-0.2,0.3-0.6,0.2-0.9
						C249.7,83.2,249.4,83,249,82.9z"/>
					<path class="st0" d="M259.1,90c0.3-0.1,0.7,0.1,0.8,0.4c0.2,0.3,0.1,0.8-0.2,1c-0.3,0.3-0.7,0.3-1,0.2
						c-0.3-0.2-0.5-0.5-0.4-0.9c0.1,0.3,0.3,0.5,0.5,0.6c0.2,0.1,0.5,0,0.7-0.2c0.2-0.2,0.2-0.4,0.2-0.7
						C259.7,90.3,259.4,90,259.1,90z"/>
					<path class="st0" d="M275.4,107.9c0.3-0.1,0.7,0,1,0.1c0.3,0.1,0.6,0.4,0.7,0.7c0.2,0.3,0.2,0.7,0.2,1.1
						c-0.1,0.4-0.2,0.7-0.5,1c-0.3,0.3-0.6,0.4-1,0.5c-0.4,0-0.7,0-1.1-0.2c-0.3-0.2-0.6-0.4-0.7-0.7c-0.1-0.3-0.2-0.7-0.1-1
						c0.1,0.6,0.5,1.1,1,1.3c0.5,0.2,1,0,1.4-0.3c0.4-0.3,0.5-0.9,0.3-1.4C276.5,108.4,276,108,275.4,107.9z"/>
					<path class="st0" d="M285.1,81.6c0.3-0.1,0.7-0.1,1,0.1c0.3,0.1,0.6,0.4,0.8,0.7c0.2,0.3,0.2,0.7,0.2,1.1
						c-0.1,0.4-0.2,0.7-0.5,1c-0.3,0.3-0.6,0.4-1,0.5c-0.4,0-0.8,0-1.1-0.2c-0.3-0.2-0.6-0.4-0.7-0.8c-0.1-0.3-0.2-0.7-0.1-1
						c0.1,0.6,0.5,1.1,1,1.2c0.5,0.2,1,0,1.3-0.3c0.3-0.3,0.5-0.9,0.3-1.3C286.1,82.1,285.7,81.7,285.1,81.6z"/>
					<path class="st0" d="M289.8,96.8c0.4-0.1,0.9,0.1,1.1,0.5c0.2,0.4,0.1,0.9-0.2,1.3c-0.3,0.3-0.9,0.4-1.3,0.2
						c-0.4-0.2-0.6-0.7-0.5-1.1c0.1,0.4,0.3,0.7,0.6,0.8c0.3,0.1,0.6,0,0.9-0.2c0.2-0.2,0.3-0.6,0.2-0.9
						C290.5,97.1,290.2,96.9,289.8,96.8z"/>
					<path class="st0" d="M266.3,84c0.4-0.1,0.9,0.1,1.1,0.5c0.2,0.4,0.1,0.9-0.2,1.3c-0.3,0.3-0.9,0.4-1.3,0.2
						c-0.4-0.2-0.6-0.7-0.5-1.1c0.1,0.4,0.3,0.7,0.6,0.8c0.3,0.1,0.6,0,0.9-0.2c0.2-0.2,0.3-0.6,0.2-0.9C267,84.3,266.7,84,266.3,84
						z"/>
					<path class="st0" d="M273.7,145.7c0.3-0.1,0.7,0,1,0.1c0.3,0.1,0.6,0.4,0.7,0.7c0.2,0.3,0.2,0.7,0.2,1.1
						c-0.1,0.4-0.2,0.7-0.5,1c-0.3,0.3-0.6,0.4-1,0.5c-0.4,0-0.7,0-1.1-0.2c-0.3-0.2-0.6-0.4-0.7-0.7c-0.1-0.3-0.2-0.7-0.1-1
						c0.1,0.6,0.5,1.1,1,1.3c0.5,0.2,1,0,1.4-0.3c0.4-0.3,0.5-0.9,0.3-1.4C274.8,146.2,274.3,145.8,273.7,145.7z"/>
					<path class="st0" d="M276.6,89.4c0.5-0.2,1.2,0.1,1.5,0.7c0.2,0.3,0.2,0.6,0.2,1c-0.1,0.3-0.2,0.6-0.5,0.9
						c-0.2,0.2-0.6,0.4-0.9,0.4c-0.3,0-0.7,0-1-0.2c-0.3-0.2-0.5-0.4-0.6-0.7c-0.1-0.3-0.1-0.6-0.1-0.9c0.1,0.5,0.5,0.9,0.9,1.1
						c0.4,0.1,0.9,0,1.2-0.3c0.3-0.3,0.4-0.7,0.3-1.1C277.5,89.9,277.2,89.5,276.6,89.4z"/>
					<path class="st0" d="M269.7,176c0.4-0.1,0.9,0.1,1.1,0.5c0.2,0.4,0.1,0.9-0.2,1.3c-0.3,0.3-0.9,0.4-1.3,0.2
						c-0.4-0.2-0.6-0.7-0.5-1.1c0.1,0.4,0.3,0.7,0.6,0.8c0.3,0.1,0.6,0,0.9-0.2c0.2-0.2,0.3-0.6,0.2-0.9
						C270.4,176.4,270.1,176.1,269.7,176z"/>
					<path class="st0" d="M265.7,167.8c0.4-0.1,0.9,0.1,1.1,0.5c0.2,0.4,0.1,0.9-0.2,1.3c-0.3,0.3-0.9,0.4-1.3,0.2
						c-0.4-0.2-0.6-0.7-0.5-1.1c0.1,0.4,0.3,0.7,0.6,0.8c0.3,0.1,0.6,0,0.9-0.2c0.2-0.2,0.3-0.6,0.2-0.9
						C266.4,168.1,266.1,167.9,265.7,167.8z"/>
					<path class="st0" d="M269.7,158.9c0.4-0.1,0.9,0.1,1.1,0.5c0.2,0.4,0.1,0.9-0.2,1.3c-0.3,0.3-0.9,0.4-1.3,0.2
						c-0.4-0.2-0.6-0.7-0.5-1.1c0.1,0.4,0.3,0.7,0.6,0.8c0.3,0.1,0.6,0,0.9-0.2c0.2-0.2,0.3-0.6,0.2-0.9
						C270.4,159.2,270.1,159,269.7,158.9z"/>
					<path class="st0" d="M268.1,196.3c0.3-0.1,0.7,0.1,0.8,0.4c0.2,0.3,0.1,0.8-0.2,1c-0.3,0.3-0.7,0.3-1,0.2
						c-0.3-0.2-0.5-0.5-0.4-0.9c0.1,0.3,0.3,0.5,0.5,0.6c0.2,0.1,0.5,0,0.7-0.2c0.2-0.2,0.2-0.4,0.2-0.7
						C268.6,196.6,268.4,196.4,268.1,196.3z"/>
					<path class="st0" d="M282.7,188.1c0.4-0.1,0.9,0.1,1.1,0.5c0.2,0.4,0.1,0.9-0.2,1.3c-0.3,0.3-0.9,0.4-1.3,0.2
						c-0.4-0.2-0.6-0.7-0.5-1.1c0.1,0.4,0.3,0.7,0.6,0.8c0.3,0.1,0.6,0,0.9-0.2c0.2-0.2,0.3-0.6,0.2-0.9
						C283.4,188.4,283.1,188.2,282.7,188.1z"/>
					<path class="st0" d="M280,195.5c0.3-0.1,0.7,0,1,0.1c0.3,0.1,0.6,0.4,0.7,0.7c0.2,0.3,0.2,0.7,0.2,1.1c-0.1,0.4-0.2,0.7-0.5,1
						c-0.3,0.3-0.6,0.4-1,0.5c-0.4,0-0.7,0-1.1-0.2c-0.3-0.2-0.6-0.4-0.7-0.7c-0.1-0.3-0.2-0.7-0.1-1c0.1,0.6,0.5,1.1,1,1.3
						c0.5,0.2,1,0,1.4-0.3c0.4-0.3,0.5-0.9,0.3-1.4C281.1,196,280.7,195.6,280,195.5z"/>
					<path class="st0" d="M274.6,202.2c0.3-0.1,0.7,0.1,0.8,0.4c0.2,0.3,0.1,0.8-0.2,1c-0.3,0.3-0.7,0.3-1,0.2
						c-0.3-0.2-0.5-0.5-0.4-0.9c0.1,0.3,0.3,0.5,0.5,0.6c0.2,0.1,0.5,0,0.7-0.2c0.2-0.2,0.2-0.4,0.2-0.7
						C275.2,202.4,274.9,202.2,274.6,202.2z"/>
					<path class="st0" d="M277.9,168.4c0.5-0.1,1-0.1,1.4,0.2c0.5,0.2,0.9,0.6,1.1,1.1c0.3,0.5,0.3,1,0.3,1.6c0,0.3-0.1,0.5-0.3,0.8
						c-0.1,0.2-0.3,0.5-0.5,0.7c-0.2,0.2-0.4,0.4-0.7,0.5c-0.3,0.1-0.5,0.2-0.8,0.2c-0.5,0.1-1.1,0-1.6-0.3
						c-0.5-0.2-0.9-0.7-1.1-1.1c-0.2-0.5-0.3-1-0.1-1.4c0.2,0.9,0.8,1.6,1.5,1.9c0.7,0.3,1.6,0.1,2.1-0.5c0.5-0.5,0.7-1.3,0.5-2.1
						C279.5,169.2,278.8,168.6,277.9,168.4z"/>
				</g>
			</g>
			<g>
				<path class="st0" d="M255.2,94c1.1,4,2.6,7.8,4.1,11.6c0.8,1.9,1.5,3.8,2.2,5.8c0.4,1,0.7,1.9,1,2.9c0.3,1,0.6,2,0.9,3
					c0.3,1,0.6,2,0.8,3c0.2,1,0.5,2,0.7,3c0.4,2,0.8,4.1,1.1,6.1c0.5,4.1,0.7,8.2,0.6,12.4c-0.4-4.1-0.9-8.2-1.6-12.2
					c-0.7-4-1.7-8-2.8-11.9c-1.1-3.9-2.5-7.8-3.9-11.7C257,102,255.8,98.1,255.2,94z"/>
				<path class="st0" d="M275.3,178.4c0.4,2,0.5,4,0.4,6c0,2-0.3,4-0.6,6c-0.3,2-0.7,4-1.2,5.9c-0.5,1.9-1.1,3.9-1.9,5.7
					c0.3-2,0.6-4,0.9-5.9c0.2-1,0.3-2,0.5-3c0.2-1,0.3-2,0.5-2.9c0.2-1,0.3-2,0.4-2.9c0.2-1,0.3-2,0.4-3
					C274.9,182.3,275.1,180.4,275.3,178.4z"/>
				<path class="st0" d="M286.3,95.9c0,2.4-0.2,4.9-0.4,7.3c-0.2,2.4-0.6,4.8-0.9,7.2c-0.3,2.4-0.6,4.8-0.9,7.2
					c-0.3,2.4-0.5,4.8-0.6,7.2c-0.4-2.4-0.5-4.9-0.4-7.3c0.1-2.4,0.3-4.9,0.6-7.3c0.3-2.4,0.7-4.8,1.2-7.2
					C285.3,100.7,285.8,98.3,286.3,95.9z"/>
			</g>
		</g>
		<path class="st1" d="M282.8,68.5c13.3,0,26.7,1,39.9,2.8c0-0.8,0-1.6,0-2.5c-0.5-26.4-7.4-38.8-7.4-38.8h0
			c-0.6-1.4-6.4-3.3-32.9-3.3c-26.5,0-32.3,2-32.9,3.3h0c0,0-6.9,12.4-7.4,38.8c0,0.8,0,1.6,0,2.4C255.6,69.4,269.2,68.4,282.8,68.5
			z"/>
		<path class="st2" d="M320.5,68.7c-12.5-1.6-25.1-2.4-37.6-2.5l-0.5,0c-5.9,0-11.9,0.2-17.9,0.5c-5,0.4,17.4-3.3,32.9-4
			c2.3-0.1,4.3-1.9,4.5-4.2c0.9-7.6-0.4-17.4-1.2-22.1c-0.3-1.8-1.7-3.3-3.5-3.7c-11.5-2.5-38.3-2.2-45.8-1.5
			c0.9-0.5,5.8-2.3,31-2.3c25,0,30,1.8,31,2.3l0.5,1h0C315.5,35.8,320,47.8,320.5,68.7z"/>
		<g>
			<g>
				<g>
					<path d="M352.9,184.2c26.6-11.4,52.2-24.9,76.8-40.2c-24,16.4-49.1,30.9-75.3,43.5c0.1-0.2,0.4-1,0-2
						C353.9,184.6,353.1,184.3,352.9,184.2z"/>
					<path d="M340.3,182.2c23.8-9.7,46.7-21,68.9-33.9c-22.2,14-45.3,26.4-69.3,37.1C340.4,184.4,340.5,183.3,340.3,182.2z"/>
					<path d="M347.7,194.7c26-10.8,51-23.4,75.2-37.9c-23.1,14.9-47.2,28.2-72.3,39.7C350,195.6,348.9,195,347.7,194.7z"/>
				</g>
				<g>
					<g>
						<path d="M331.9,193.6c-0.7,1.3,0.3,2.7,1.7,2.8c5.8,0.6,11.6-1.3,15.9-5.8c1-1,4.5-5.1,0.7-4.9c-4.8,0.3-11.6,0.8-15.6,4.6
							C333.3,191.6,332.4,192.7,331.9,193.6z"/>
						<path class="st1" d="M333.5,194.5c0,0.1,9.9-4.1,16.3-6.9c-4.7,0-10.3,0.8-13.9,4.1C334.8,192.6,334,193.6,333.5,194.5
							C333.5,194.5,333.5,194.5,333.5,194.5z"/>
						<path d="M332.3,194.9c0.9,0,2.2,0.6,3,0.4c3.3-0.8,5.3-2.5,8.1-5c-3,0.2-6.9,0.3-9.1,2C333.9,192.7,332.6,194.6,332.3,194.9z"
							/>
					</g>
					<g>
						<path d="M324.9,197c-1.2,1-0.9,2.9,0.5,3.4c6,1.9,11.5,1.7,17.4-0.4c1.1-0.4,6.8-2.7,2.7-3.8c-5-1.3-11.4-3.4-16.7-1.4
							C326.9,195.6,325.7,196.3,324.9,197z"/>
					</g>
					<g>
						<path d="M323.9,200.6c-1.5,0.2-2.8-1.3-2.1-2.6c2.6-5.6,6.2-9.5,11.5-12.6c1.7-1,5.8-3.3,4.5,0.4c-1.8,5.1-4.6,10.9-9.6,13.5
							C326.4,200,325,200.4,323.9,200.6z"/>
						<path class="st1" d="M323.4,198.7c0,0,0.1,0.1,0.2,0.1c1-0.1,2.3-0.6,3.6-1.3c4.3-2.1,6.8-7.3,8.4-11.5
							c-0.4,0.2-0.9,0.5-1.5,0.8C329.1,189.7,325.9,193.4,323.4,198.7C323.4,198.6,323.4,198.6,323.4,198.7z"/>
						<path d="M322.9,199.3c0.3-0.1,0.7-0.3,1-0.5c0.5-0.2,3-0.2,3.3-0.5c1.9-2,2.9-4.5,3.6-7.1c-2.2,1.3-4.6,2.7-6.3,4.6
							C323.6,196.8,323.8,197.6,322.9,199.3z"/>
					</g>
					<g>
						<path d="M313.5,200.5c-1.3,0.9-1.3,2.9,0.1,3.5c5.9,2.6,11.7,2.9,17.9,1.4c1.2-0.3,7.3-2.1,3.2-3.6c-5-1.9-11.4-4.7-17-3.1
							C315.8,199.2,314.4,199.8,313.5,200.5z"/>
					</g>
					<g>
						<path d="M312.3,204.8c-1.6,0.2-2.8-1.4-2.2-2.8c2.8-5.7,6.7-9.7,12.2-12.8c1.1-0.6,6.4-3.4,4.7,0.5c-2.2,4.9-5,11.2-10.3,13.8
							C314.9,204.3,313.4,204.7,312.3,204.8z"/>
						<path class="st1" d="M311.9,202.9c0,0.1,0.1,0.2,0.3,0.2c1.1-0.1,2.4-0.5,3.8-1.2c4.6-2.1,7.2-7.5,9-12
							c-0.5,0.2-1.1,0.5-1.8,0.9c-5.3,2.9-8.7,6.7-11.4,12C311.8,202.8,311.8,202.8,311.9,202.9L311.9,202.9z"/>
						<path d="M311.2,203.5c0.4-0.2,1.3,0,1.7-0.2c0.9-0.4,2.6-0.5,3.4-1.3c1.7-1.6,2.5-3.9,3.2-6.3c-2.1,1-4.6,2-6.2,3.6
							C312.3,200.3,312.1,201.9,311.2,203.5z"/>
					</g>
					<g>
						<path d="M301.1,204.7c-1.4,0.9-1.4,3,0,3.7c6.1,2.9,12.1,3.4,18.7,2c1.2-0.3,7.7-1.9,3.4-3.7c-5.2-2.1-11.7-5.2-17.7-3.8
							C303.5,203.4,302.1,204.1,301.1,204.7z"/>
					</g>
					<g>
						<path d="M299.9,209.2c-1.7,0.2-2.9-1.5-2.2-3c3-5.9,7.2-10.1,12.9-13.2c1.1-0.6,6.8-3.5,4.9,0.6c-2.4,5.1-5.3,11.6-11,14.2
							C302.6,208.7,301.1,209,299.9,209.2z"/>
						<path class="st1" d="M299.4,207.1c0,0.1,0.2,0.3,0.4,0.2c1.1-0.1,2.5-0.5,4-1.2c4.9-2.3,7.7-7.8,9.7-12.6
							c-0.5,0.2-1.2,0.6-2.1,1c-5.6,2.9-9.3,6.9-12.1,12.4C299.3,207,299.3,207.1,299.4,207.1L299.4,207.1z"/>
						<path d="M298.6,208.3c0.6-0.2,1.2-0.4,1.8-0.7c1.1-0.5,3.6-0.4,4.5-1.3c1.8-1.9,2.1-4.8,3.2-7.3c-2.8,1.2-5.1,2.2-7.1,4.2
							C300,204.2,299.5,206.7,298.6,208.3z"/>
					</g>
					<g>
						<path d="M287.4,208.9c-1.5,0.8-1.6,3.1-0.1,3.8c6.2,3.2,12.4,3.9,19.3,2.7c1.3-0.2,8-1.8,3.6-3.7c-5.3-2.4-11.9-5.8-18.2-4.5
							C290,207.7,288.5,208.3,287.4,208.9z"/>
					</g>
					<g>
						<path d="M285.9,213.2c-1.7,0.1-2.9-1.7-2.1-3.2c3.4-5.9,8-10,14.1-12.9c1.2-0.6,7.2-3.2,5,0.9c-2.8,5.1-6.2,11.7-12.1,14.1
							C288.7,212.9,287.1,213.2,285.9,213.2z"/>
						<path class="st1" d="M285.4,211.1c0,0.1,0.2,0.3,0.5,0.3c1.2-0.1,2.6-0.4,4.2-1c5.2-2.1,8.5-7.7,10.9-12.6
							c-0.6,0.2-1.3,0.5-2.3,1c-6,2.7-10,6.6-13.3,12.1C285.3,210.9,285.3,211,285.4,211.1z"/>
						<path d="M284.6,212.5c0.7-0.2,1.4-0.4,2.1-0.7c1.2-0.5,3.4-0.7,4.4-1.6c2.1-1.9,2.9-4.7,4.2-7.1c-3,1.2-5.7,2.1-7.9,4
							C286.2,208.1,284.3,211.6,284.6,212.5z"/>
					</g>
					<g>
						<path d="M273.7,213c-1.5,0.8-1.6,3.1-0.1,3.9c6.2,3.3,12.5,4.2,19.4,3c1.3-0.2,8.1-1.7,3.7-3.7c-5.4-2.5-12-6-18.3-4.8
							C276.3,211.8,274.8,212.4,273.7,213z"/>
					</g>
					<g>
						<path d="M272.1,217.1c-1.7,0-2.9-1.8-2-3.3c3.6-5.8,8.4-9.8,14.6-12.6c1.2-0.6,7.4-3,5,1c-3,5.1-6.6,11.7-12.7,13.9
							C274.9,216.8,273.3,217.1,272.1,217.1z"/>
						<path class="st1" d="M271.6,215c0,0.1,0.2,0.3,0.5,0.3c1.2,0,2.7-0.3,4.3-0.9c5.4-2,8.9-7.6,11.4-12.5
							c-0.6,0.2-1.4,0.5-2.4,0.9c-6.1,2.6-10.3,6.4-13.7,11.9C271.6,214.8,271.5,214.9,271.6,215L271.6,215z"/>
						<path d="M270.6,216.1c0.7-0.1,1.7,0,2.5-0.3c1.2-0.4,3.2-0.8,4.2-1.6c2.3-1.9,3.2-4.9,4.6-7.5c-3,1.2-6,2.5-8.3,4.8
							C272.5,212.7,271.3,214.3,270.6,216.1z"/>
					</g>
					<g>
						<path d="M259.6,216.8c-1.5,0.8-1.7,3.1-0.2,3.9c6.3,3.4,12.6,4.4,19.6,3.3c1.3-0.2,8.2-1.6,3.8-3.7c-5.4-2.6-12-6.2-18.5-5.1
							C262.3,215.6,260.7,216.2,259.6,216.8z"/>
					</g>
					<g>
						<path d="M258.3,221c-1.8,0.1-3-1.8-2.1-3.3c3.6-5.9,8.4-10,14.6-13c1.2-0.6,7.4-3.1,5.1,1c-2.9,5.2-6.5,11.9-12.6,14.2
							C261.1,220.7,259.5,221,258.3,221z"/>
						<path class="st1" d="M257.7,218.9c0,0.1,0.2,0.4,0.5,0.3c1.2,0,2.7-0.4,4.4-1c5.4-2.1,8.9-7.8,11.4-12.8
							c-0.6,0.2-1.4,0.5-2.5,1c-6.1,2.7-10.4,6.6-13.8,12.2C257.7,218.7,257.7,218.8,257.7,218.9L257.7,218.9z"/>
						<path d="M256.9,220.1c2.4-0.4,5.4-0.8,7.2-2c2.2-1.5,2.9-5.1,4.3-7.7c-3.2,1.3-6.5,2.4-8.9,4.9
							C258.4,216.4,257.3,218.4,256.9,220.1z"/>
					</g>
					<g>
						<path d="M245.7,219.5c-1.6,0.7-1.9,3-0.5,3.9c6,3.9,12.4,5.4,19.5,4.8c1.3-0.1,8.4-1,4.2-3.4c-5.2-3-11.6-7.2-18.2-6.5
							C248.4,218.5,246.8,219,245.7,219.5z"/>
					</g>
					<g>
						<path d="M244.1,224.3c-1.8,0-3-1.9-2.1-3.4c3.8-5.9,8.7-10,15-12.8c1.3-0.6,7.5-3,5.1,1.1c-3,5.2-6.8,11.9-13,14.1
							C247,224.1,245.3,224.3,244.1,224.3z"/>
						<path class="st1" d="M243.5,222.2c0.1,0.2,0.3,0.4,0.5,0.4c1.2,0,2.8-0.3,4.5-0.9c5.6-2,9.1-7.7,11.8-12.8
							c-0.6,0.2-1.5,0.5-2.6,1c-6.3,2.6-10.6,6.5-14.1,12.1C243.5,222,243.5,222,243.5,222.2L243.5,222.2z"/>
						<path d="M242.8,223.4c0.8-0.1,1.9-0.1,2.8-0.4c1.4-0.5,3.8-1,4.9-2c2.1-1.9,2.9-4.8,4.2-7.3c-3.1,1.2-6.4,2.2-8.9,4.6
							C244.7,219.5,242,222.5,242.8,223.4z"/>
					</g>
					<g>
						<path d="M231.3,222.7c-1.6,0.7-2,3-0.5,3.9c6.1,3.9,12.4,5.7,19.8,4.8c1.2-0.2,8.6-1,4.2-3.5c-5.3-3-11.8-7.2-18.4-6.5
							C234.1,221.8,232.5,222.2,231.3,222.7z"/>
					</g>
					<g>
						<path d="M229.7,227.2c-1.8,0-3-2-2-3.4c4-5.9,9-9.8,15.6-12.5c1.3-0.5,7.7-2.9,5.1,1.2c-3.2,5.1-7.2,11.8-13.6,13.8
							C232.7,227,231,227.2,229.7,227.2z"/>
						<path class="st1" d="M229.2,225c0.1,0.2,0.3,0.4,0.5,0.4c1.3,0,2.8-0.2,4.5-0.8c5.7-1.9,9.5-7.6,12.3-12.6
							c-0.6,0.2-1.5,0.5-2.7,0.9c-6.4,2.4-10.9,6.2-14.7,11.8C229.2,224.7,229.2,224.8,229.2,225L229.2,225z"/>
						<path d="M228.2,226.1c0.8-0.1,2.1,0,3.1-0.3c1.6-0.5,3.7-0.7,5-1.8c2.2-1.9,2.9-4.9,4.4-7.5c-3.1,1.1-5.8,2.1-8.3,4
							C230.9,221.7,229.8,223.9,228.2,226.1z"/>
					</g>
					<g>
						<path d="M216.5,225.5c-1.7,0.7-2,3-0.6,4c6.1,4.1,12.6,5.8,19.9,5.2c1-0.1,8.7-1.1,4.3-3.4c-5.2-2.7-11.8-7.5-18.5-6.9
							C219.3,224.5,217.6,225,216.5,225.5z"/>
					</g>
					<g>
						<path d="M215.2,229.6c-1.8-0.1-2.9-2.1-1.9-3.5c4.2-5.8,9.5-9.6,16.2-12.1c1.3-0.5,7.9-2.6,5.1,1.4
							c-3.4,5.1-7.7,11.7-14.2,13.5C218.2,229.5,216.5,229.7,215.2,229.6z"/>
						<path class="st1" d="M214.8,227.4c0.1,0.2,0.2,0.4,0.5,0.4c1.3,0.1,2.8-0.1,4.6-0.7c5.9-1.7,9.9-7.4,12.9-12.4
							c-0.6,0.2-1.5,0.4-2.8,0.9c-6.5,2.2-11.2,5.9-15.2,11.4C214.8,227.1,214.7,227.2,214.8,227.4L214.8,227.4z"/>
						<path d="M214.1,228.5c0.8-0.1,2.1,0.3,3.1,0c1.8-0.5,4.8-1,6.3-2.3c2-1.8,2.4-4.7,3.7-7.1c-3.4,1.1-7.2,1.8-10.1,4
							c-1.1,0.8-2.4,2-3,3.4C213.8,227.1,213.7,228,214.1,228.5z"/>
					</g>
				</g>
			</g>
			<g>
				<g>
					<path d="M369,207.2c27.9-7.7,55.1-17.5,81.5-29.4c-26,13-52.9,23.9-80.5,32.8c0.1-0.1,0.5-0.9,0.2-1.9
						C369.9,207.7,369.1,207.3,369,207.2z"/>
					<path d="M356.8,203.5c24.9-6.4,49.2-14.4,72.9-24.1c-23.9,10.8-48.5,19.9-73.7,27.3C356.6,205.8,356.8,204.6,356.8,203.5z"/>
					<path d="M362.4,216.9c27.2-7.1,53.8-16.2,79.6-27.2c-25,11.6-50.6,21.4-77,29.4C364.5,218.1,363.5,217.4,362.4,216.9z"/>
				</g>
				<g>
					<g>
						<path d="M346.8,213.7c-0.9,1.2-0.1,2.7,1.3,3c5.7,1.3,11.6,0.3,16.6-3.6c1.1-0.9,5.1-4.4,1.4-4.7c-4.8-0.4-11.6-0.7-16,2.4
							C348.5,211.9,347.5,212.9,346.8,213.7z"/>
						<path class="st1" d="M348.3,214.7c0,0.1,10.3-2.7,17.1-4.6c-4.6-0.7-10.4-0.7-14.3,2.1C349.9,213.1,348.9,213.9,348.3,214.7
							C348.3,214.7,348.3,214.7,348.3,214.7z"/>
						<path d="M347.1,215.1c0.9,0.1,2.1,0.9,2.9,0.8c3.4-0.3,5.6-1.7,8.7-3.8c-3-0.2-6.9-0.7-9.3,0.7
							C348.9,213,347.4,214.8,347.1,215.1z"/>
					</g>
					<g>
						<path d="M339.4,216.1c-1.3,0.8-1.3,2.8,0,3.4c5.7,2.7,11.1,3.3,17.3,2c1.1-0.2,7.1-1.7,3.2-3.4c-4.8-2-10.8-4.9-16.3-3.6
							C341.6,214.9,340.3,215.5,339.4,216.1z"/>
					</g>
					<g>
						<path d="M338,219.5c-1.5,0-2.6-1.7-1.8-2.9c3.3-5.1,7.4-8.6,13.1-11c1.8-0.7,6.2-2.5,4.4,1c-2.5,4.8-6,10.2-11.4,12
							C340.5,219.3,339.1,219.5,338,219.5z"/>
						<path class="st1" d="M337.8,217.5c0,0,0.1,0.2,0.2,0.2c1,0,2.3-0.3,3.8-0.7c4.5-1.5,7.7-6.3,9.9-10.3c-0.4,0.2-1,0.4-1.6,0.6
							C344.6,209.4,340.9,212.7,337.8,217.5C337.8,217.5,337.8,217.5,337.8,217.5z"/>
						<path d="M337.2,218.1c0.3-0.1,0.7-0.2,1.1-0.3c0.5-0.2,3,0.2,3.4-0.1c2.1-1.7,3.5-4,4.5-6.5c-2.4,1-4.9,2.1-6.8,3.7
							C338.2,215.7,338.3,216.6,337.2,218.1z"/>
					</g>
					<g>
						<path d="M327.7,217.9c-1.4,0.7-1.7,2.7-0.3,3.5c5.5,3.3,11.2,4.5,17.6,3.8c1.2-0.1,7.5-1.1,3.6-3.1
							c-4.7-2.6-10.6-6.2-16.4-5.4C330.1,217,328.7,217.5,327.7,217.9z"/>
					</g>
					<g>
						<path d="M325.9,222.1c-1.6,0-2.6-1.8-1.8-3.1c3.6-5.2,8-8.7,13.8-11c1.1-0.5,6.8-2.5,4.5,1.1c-2.9,4.5-6.5,10.4-12.1,12.2
							C328.6,221.9,327.1,222.1,325.9,222.1z"/>
						<path class="st1" d="M325.7,220.1c0,0.1,0.1,0.2,0.3,0.2c1.1,0,2.4-0.2,3.9-0.7c4.8-1.5,8.2-6.5,10.6-10.6
							c-0.5,0.2-1.1,0.4-1.9,0.7c-5.7,2.1-9.5,5.4-12.9,10.3C325.7,220,325.7,220,325.7,220.1L325.7,220.1z"/>
						<path d="M325,220.6c0.4-0.1,1.3,0.2,1.8,0c1-0.3,2.6-0.2,3.5-0.8c1.9-1.4,3-3.5,4-5.8c-2.2,0.7-4.8,1.3-6.7,2.7
							C326.5,217.6,326.1,219.1,325,220.6z"/>
					</g>
					<g>
						<path d="M314.8,220.4c-1.5,0.7-1.8,2.8-0.5,3.7c5.6,3.7,11.6,5.1,18.3,4.6c1.2-0.1,7.9-0.9,3.9-3.2c-4.9-2.8-10.9-6.8-17-6.2
							C317.4,219.5,315.9,219.9,314.8,220.4z"/>
					</g>
					<g>
						<path d="M313,224.7c-1.7-0.1-2.7-1.9-1.8-3.2c3.8-5.4,8.5-9,14.6-11.4c1.2-0.5,7.2-2.5,4.7,1.2c-3.1,4.7-6.9,10.8-12.8,12.6
							C315.8,224.6,314.2,224.7,313,224.7z"/>
						<path class="st1" d="M312.8,222.6c0,0.1,0.1,0.3,0.4,0.3c1.1,0,2.6-0.2,4.2-0.7c5.2-1.6,8.7-6.7,11.4-11.2
							c-0.5,0.2-1.3,0.4-2.2,0.7c-5.9,2.1-10.2,5.6-13.7,10.6C312.8,222.5,312.7,222.5,312.8,222.6L312.8,222.6z"/>
						<path d="M311.8,223.7c0.6-0.1,1.2-0.2,1.9-0.4c1.2-0.3,3.6,0.1,4.6-0.7c2.1-1.7,2.8-4.5,4.2-6.8c-2.9,0.8-5.4,1.5-7.6,3.2
							C313.8,219.8,312.9,222.2,311.8,223.7z"/>
					</g>
					<g>
						<path d="M300.7,222.8c-1.6,0.6-2,2.8-0.6,3.8c5.7,4,11.8,5.6,18.7,5.3c1.3-0.1,8.2-0.7,4.1-3.2c-5-3.1-11-7.3-17.4-6.9
							C303.4,221.9,301.8,222.3,300.7,222.8z"/>
					</g>
					<g>
						<path d="M298.6,226.8c-1.7-0.2-2.7-2.1-1.6-3.4c4.2-5.3,9.3-8.8,15.7-10.9c1.3-0.4,7.6-2.2,4.8,1.5c-3.5,4.7-7.7,10.8-14,12.3
							C301.4,226.8,299.8,226.9,298.6,226.8z"/>
						<path class="st1" d="M298.3,224.7c0,0.1,0.1,0.3,0.4,0.4c1.2,0.1,2.7,0,4.4-0.4c5.5-1.4,9.5-6.5,12.5-11
							c-0.6,0.1-1.4,0.3-2.5,0.7c-6.3,1.8-10.8,5.2-14.8,10.2C298.4,224.5,298.3,224.5,298.3,224.7z"/>
						<path d="M297.4,225.9c0.7-0.1,1.4-0.2,2.2-0.4c1.3-0.3,3.5-0.2,4.6-1c2.3-1.6,3.5-4.2,5.1-6.5c-3.1,0.8-5.9,1.3-8.4,2.9
							C299.6,221.8,297.2,224.9,297.4,225.9z"/>
					</g>
					<g>
						<path d="M286.6,224.9c-1.6,0.6-2,2.8-0.7,3.8c5.7,4.1,11.8,5.8,18.8,5.7c1.3,0,8.3-0.5,4.2-3.1c-5-3.2-11-7.6-17.5-7.2
							C289.3,224.1,287.7,224.5,286.6,224.9z"/>
					</g>
					<g>
						<path d="M284.4,228.8c-1.7-0.2-2.6-2.2-1.6-3.5c4.4-5.3,9.7-8.6,16.2-10.5c1.3-0.4,7.7-2,4.8,1.7c-3.6,4.6-8.1,10.7-14.4,12
							C287.2,228.9,285.6,228.9,284.4,228.8z"/>
						<path class="st1" d="M284.2,226.6c0,0.1,0.1,0.4,0.4,0.4c1.2,0.1,2.7,0,4.4-0.3c5.6-1.2,9.8-6.3,13-10.8
							c-0.6,0.1-1.4,0.3-2.5,0.6c-6.4,1.7-11.1,4.9-15.2,9.9C284.2,226.4,284.1,226.5,284.2,226.6L284.2,226.6z"/>
						<path d="M283,227.6c0.7,0,1.7,0.3,2.5,0.1c1.3-0.3,3.2-0.3,4.4-1c2.5-1.6,3.8-4.4,5.6-6.8c-3.1,0.8-6.3,1.6-8.9,3.6
							C285.3,224.4,284,225.9,283,227.6z"/>
					</g>
					<g>
						<path d="M272.1,226.8c-1.6,0.6-2.1,2.8-0.7,3.8c5.7,4.2,11.9,6.1,19,5.9c1.3,0,8.4-0.4,4.3-3.1c-5-3.3-11.1-7.8-17.6-7.5
							C274.9,226,273.2,226.3,272.1,226.8z"/>
					</g>
					<g>
						<path d="M270.1,230.8c-1.8-0.2-2.7-2.2-1.6-3.5c4.4-5.4,9.7-8.8,16.3-10.8c1.3-0.4,7.7-2.1,4.9,1.6
							c-3.6,4.7-8.1,10.9-14.4,12.3C273,230.8,271.4,230.9,270.1,230.8z"/>
						<path class="st1" d="M269.9,228.6c0,0.1,0.2,0.4,0.4,0.4c1.2,0.1,2.7,0,4.5-0.4c5.7-1.3,9.9-6.5,13-11.1
							c-0.6,0.1-1.5,0.3-2.6,0.6c-6.4,1.8-11.2,5.1-15.3,10.2C269.9,228.4,269.9,228.5,269.9,228.6L269.9,228.6z"/>
						<path d="M268.9,229.6c2.4-0.1,5.5,0,7.4-1c2.4-1.2,3.6-4.6,5.3-7c-3.3,0.8-6.8,1.5-9.5,3.7C270.9,226.2,269.5,228,268.9,229.6
							z"/>
					</g>
					<g>
						<path d="M257.9,227.5c-1.7,0.5-2.3,2.7-1,3.8c5.4,4.7,11.5,7,18.7,7.5c1.3,0.1,8.5,0.2,4.6-2.8c-4.8-3.7-10.5-8.7-17.1-9
							C260.8,226.9,259.1,227.2,257.9,227.5z"/>
					</g>
					<g>
						<path d="M255.6,232.1c-1.8-0.2-2.7-2.3-1.6-3.6c4.5-5.4,9.9-8.7,16.6-10.6c1.3-0.4,7.9-2,4.9,1.8c-3.7,4.7-8.4,10.8-14.8,12.2
							C258.6,232.2,256.9,232.2,255.6,232.1z"/>
						<path class="st1" d="M255.4,229.9c0,0.2,0.2,0.4,0.5,0.4c1.2,0.2,2.8,0.1,4.5-0.3c5.8-1.2,10.1-6.4,13.4-11
							c-0.6,0.1-1.5,0.3-2.7,0.6c-6.5,1.7-11.4,5-15.7,10C255.4,229.7,255.4,229.7,255.4,229.9L255.4,229.9z"/>
						<path d="M254.5,231c0.8,0,1.9,0.1,2.8,0c1.5-0.3,3.9-0.5,5.2-1.3c2.4-1.6,3.5-4.4,5.2-6.6c-3.3,0.8-6.7,1.3-9.4,3.4
							C256.9,227.4,253.9,230,254.5,231z"/>
					</g>
					<g>
						<path d="M243.3,228.8c-1.7,0.5-2.3,2.7-1,3.8c5.5,4.7,11.6,7.4,18.9,7.5c1.3,0,8.6,0.2,4.6-2.9c-4.9-3.7-10.7-8.8-17.4-9
							C246.1,228.2,244.5,228.4,243.3,228.8z"/>
					</g>
					<g>
						<path d="M241,232.9c-1.8-0.3-2.7-2.4-1.5-3.7c4.8-5.3,10.3-8.5,17.1-10.3c1.3-0.3,8-1.8,4.9,1.9c-3.9,4.7-8.8,10.7-15.3,11.8
							C244,233.2,242.3,233.1,241,232.9z"/>
						<path class="st1" d="M240.8,230.7c0,0.2,0.2,0.4,0.5,0.5c1.2,0.2,2.8,0.1,4.6-0.2c5.9-1.1,10.4-6.2,13.9-10.8
							c-0.6,0.1-1.6,0.3-2.8,0.5c-6.7,1.5-11.7,4.7-16.1,9.7C240.9,230.5,240.8,230.6,240.8,230.7L240.8,230.7z"/>
						<path d="M239.6,231.7c0.8,0,2.1,0.3,3.1,0.2c1.6-0.3,3.8-0.2,5.2-1.1c2.4-1.6,3.6-4.5,5.4-6.8c-3.2,0.7-6,1.3-8.8,2.8
							C242.9,227.7,241.5,229.7,239.6,231.7z"/>
					</g>
					<g>
						<path d="M228.1,229.4c-1.8,0.5-2.4,2.7-1.1,3.9c5.4,4.8,11.7,7.5,19,7.9c1,0.1,8.7,0.1,4.7-2.8c-4.8-3.4-10.7-9-17.4-9.4
							C231.1,228.9,229.4,229.1,228.1,229.4z"/>
					</g>
					<g>
						<path d="M226.3,233.4c-1.8-0.3-2.6-2.5-1.4-3.8c5-5.2,10.7-8.2,17.7-9.8c1.4-0.3,8.2-1.5,4.9,2.1c-4.1,4.6-9.2,10.5-15.9,11.5
							C229.3,233.7,227.6,233.6,226.3,233.4z"/>
						<path class="st1" d="M226.2,231.1c0,0.2,0.2,0.4,0.5,0.5c1.3,0.2,2.8,0.2,4.7,0c6-0.9,10.8-6,14.5-10.5
							c-0.7,0.1-1.6,0.2-2.9,0.5c-6.8,1.3-11.9,4.3-16.6,9.2C226.3,230.8,226.2,230.9,226.2,231.1L226.2,231.1z"/>
						<path d="M225.4,232.1c0.8,0,2,0.6,3,0.5c1.9-0.2,4.9-0.4,6.5-1.5c2.2-1.5,3-4.4,4.7-6.5c-3.6,0.6-7.4,0.8-10.5,2.5
							c-1.2,0.7-2.6,1.7-3.5,3C225.3,230.7,225.1,231.6,225.4,232.1z"/>
					</g>
				</g>
			</g>
			<g>
				<g>
					<path d="M392.3,231.1c28.7-3.6,57.1-9.4,84.9-17.4c-27.6,9.1-55.7,16.1-84.4,20.9c0.1-0.1,0.7-0.9,0.5-1.9
						C393.2,231.7,392.4,231.2,392.3,231.1z"/>
					<path d="M380.8,225.7c25.5-2.7,50.7-7.2,75.6-13.4c-25.2,7.3-50.9,12.8-76.9,16.4C380.2,227.8,380.7,226.8,380.8,225.7z"/>
					<path d="M384.4,239.7c27.9-3.1,55.5-8.3,82.7-15.5c-26.4,7.9-53.2,14-80.4,18C386.3,241.2,385.4,240.4,384.4,239.7z"/>
				</g>
				<g>
					<g>
						<path d="M369.5,234.3c-1.1,1-0.5,2.7,0.8,3.2c5.5,2.2,11.5,1.9,16.9-1.2c1.3-0.7,5.7-3.6,2-4.5c-4.7-1.1-11.3-2.4-16.2,0.1
							C371.4,232.7,370.2,233.6,369.5,234.3z"/>
						<path class="st1" d="M370.8,235.5c0,0.1,0.1,0.2,0.3,0.3c6.1-0.8,11.8-1.9,17.3-2.4c-4.5-1.3-10.2-2.1-14.5,0.1
							C372.5,234.2,371.5,234.8,370.8,235.5C370.8,235.5,370.8,235.5,370.8,235.5z"/>
						<path d="M369.5,235.7c0.8,0.3,1.9,1.2,2.7,1.2c3.4,0.1,5.8-0.9,9.2-2.5c-2.9-0.7-6.7-1.7-9.3-0.6
							C371.6,233.9,369.9,235.5,369.5,235.7z"/>
					</g>
					<g>
						<path d="M361.8,235.6c-1.4,0.6-1.7,2.5-0.5,3.4c5.2,3.5,10.6,4.8,16.8,4.5c1.2-0.1,7.2-0.7,3.6-2.9c-4.5-2.7-10-6.4-15.6-5.9
							C364.2,234.8,362.8,235.2,361.8,235.6z"/>
					</g>
					<g>
						<path d="M359.9,238.7c-1.5-0.2-2.3-2-1.3-3.1c4-4.6,8.6-7.4,14.5-9c1.9-0.5,6.5-1.6,4.2,1.6c-3.2,4.4-7.4,9.2-13,10.3
							C362.4,238.9,360.9,238.9,359.9,238.7z"/>
						<path class="st1" d="M360,236.8c0,0,0.1,0.2,0.2,0.2c1,0.1,2.3,0.1,3.8-0.2c4.7-0.8,8.5-5.1,11.3-8.8c-0.5,0.1-1,0.2-1.7,0.4
							C367.8,229.7,363.8,232.4,360,236.8C360,236.7,360,236.8,360,236.8z"/>
						<path d="M359.3,237.2c0.3,0,0.7-0.1,1.1-0.2c0.5-0.1,2.9,0.7,3.4,0.4c2.4-1.4,4-3.5,5.4-5.8c-2.5,0.7-5.1,1.3-7.3,2.6
							C360.7,235.1,360.6,235.9,359.3,237.2z"/>
					</g>
					<g>
						<path d="M349.9,235.7c-1.5,0.5-2,2.4-0.8,3.4c5,4.1,10.4,6.1,16.8,6.3c1.2,0.1,7.5,0,4-2.6c-4.3-3.2-9.6-7.6-15.5-7.7
							C352.4,235.2,351,235.4,349.9,235.7z"/>
					</g>
					<g>
						<path d="M347.6,239.6c-1.6-0.3-2.3-2.1-1.3-3.3c4.3-4.7,9.1-7.5,15.3-9c1.2-0.3,7.1-1.5,4.3,1.8c-3.5,4.1-7.9,9.4-13.7,10.4
							C350.2,239.8,348.7,239.8,347.6,239.6z"/>
						<path class="st1" d="M347.7,237.6c0,0.1,0.1,0.2,0.2,0.2c1.1,0.2,2.4,0.1,4-0.1c5-0.8,9-5.2,12-9c-0.5,0.1-1.2,0.2-2,0.4
							c-5.9,1.3-10.2,4-14.3,8.4C347.7,237.5,347.7,237.5,347.7,237.6L347.7,237.6z"/>
						<path d="M346.9,238c0.5,0,1.2,0.3,1.7,0.3c1-0.2,2.6,0.2,3.6-0.3c2.1-1.1,3.5-3.1,4.8-5.1c-2.3,0.4-4.9,0.6-7,1.8
							C348.8,235.3,348.2,236.7,346.9,238z"/>
					</g>
					<g>
						<path d="M336.8,236.3c-1.6,0.4-2.2,2.5-1,3.6c5.1,4.5,10.7,6.7,17.4,7.1c1.2,0.1,7.9,0.3,4.3-2.6c-4.4-3.5-9.8-8.3-16-8.5
							C339.5,235.8,337.9,236,336.8,236.3z"/>
					</g>
					<g>
						<path d="M334.5,240.3c-1.6-0.3-2.4-2.3-1.3-3.5c4.5-4.8,9.7-7.7,16.1-9.1c1.3-0.3,7.5-1.5,4.5,1.9c-3.7,4.2-8.4,9.7-14.5,10.6
							C337.2,240.6,335.6,240.5,334.5,240.3z"/>
						<path class="st1" d="M334.5,238.2c0,0.1,0.1,0.3,0.3,0.3c1.1,0.2,2.6,0.2,4.2-0.1c5.3-0.8,9.6-5.4,12.9-9.4
							c-0.6,0.1-1.3,0.2-2.3,0.4c-6.2,1.2-10.9,4.1-15.1,8.6C334.5,238.1,334.5,238.1,334.5,238.2L334.5,238.2z"/>
						<path d="M333.4,239.2c0.6,0,1.2-0.1,1.9-0.2c1.2-0.2,3.5,0.6,4.7,0c2.3-1.3,3.4-4,5.1-6.1c-3,0.4-5.5,0.7-8,2.1
							C335.9,235.6,334.7,237.9,333.4,239.2z"/>
					</g>
					<g>
						<path d="M322.5,236.7c-1.7,0.4-2.4,2.5-1.1,3.6c5.1,4.8,10.9,7.2,17.8,7.9c1.3,0.1,8.2,0.5,4.5-2.5c-4.5-3.8-9.9-8.9-16.2-9.3
							C325.3,236.2,323.7,236.4,322.5,236.7z"/>
					</g>
					<g>
						<path d="M319.8,240.3c-1.7-0.4-2.3-2.5-1.1-3.6c4.9-4.7,10.5-7.3,17.1-8.5c1.3-0.2,7.8-1.1,4.5,2.2
							c-4.1,4.1-9.2,9.5-15.6,10.1C322.6,240.8,321,240.6,319.8,240.3z"/>
						<path class="st1" d="M319.9,238.2c0,0.1,0.1,0.4,0.4,0.4c1.2,0.3,2.7,0.4,4.4,0.2c5.6-0.6,10.3-5.1,14-9.1
							c-0.6,0-1.4,0.1-2.5,0.3c-6.5,0.9-11.5,3.6-16.1,8C320,238,319.9,238.1,319.9,238.2z"/>
						<path d="M318.8,239.3c0.7,0,1.4,0,2.2,0c1.3-0.1,3.5,0.3,4.7-0.3c2.5-1.2,4.1-3.7,6-5.7c-3.2,0.3-6,0.4-8.7,1.6
							C321.6,235.5,318.7,238.3,318.8,239.3z"/>
					</g>
					<g>
						<path d="M308.2,236.7c-1.7,0.4-2.4,2.5-1.2,3.7c5.1,4.9,10.9,7.5,17.8,8.3c1.3,0.2,8.2,0.7,4.6-2.5c-4.5-3.9-9.8-9.1-16.3-9.7
							C311,236.3,309.4,236.5,308.2,236.7z"/>
					</g>
					<g>
						<path d="M305.5,240.3c-1.7-0.4-2.3-2.6-1-3.7c5.1-4.6,10.8-7.1,17.6-8.1c1.3-0.2,7.9-0.9,4.5,2.4c-4.2,4.1-9.6,9.4-16,9.8
							C308.3,240.8,306.7,240.6,305.5,240.3z"/>
						<path class="st1" d="M305.6,238.1c0,0.1,0.1,0.4,0.4,0.4c1.2,0.3,2.7,0.4,4.4,0.3c5.7-0.4,10.6-4.9,14.4-8.8
							c-0.6,0-1.5,0.1-2.6,0.2c-6.6,0.8-11.7,3.3-16.5,7.6C305.6,237.9,305.6,238,305.6,238.1L305.6,238.1z"/>
						<path d="M304.3,238.9c0.7,0.1,1.6,0.5,2.5,0.5c1.3-0.1,3.2,0.1,4.5-0.4c2.7-1.2,4.4-3.8,6.5-5.9c-3.2,0.3-6.5,0.7-9.3,2.3
							C307.1,236.1,305.6,237.3,304.3,238.9z"/>
					</g>
					<g>
						<path d="M293.6,236.5c-1.7,0.4-2.5,2.5-1.3,3.7c5.1,5,10.9,7.7,18,8.6c1.3,0.2,8.3,0.8,4.7-2.5c-4.5-4-9.8-9.3-16.3-10
							C296.5,236.1,294.8,236.2,293.6,236.5z"/>
					</g>
					<g>
						<path d="M291.1,240.2c-1.7-0.4-2.4-2.6-1.1-3.7c5.1-4.7,10.8-7.3,17.6-8.4c1.3-0.2,8-1,4.6,2.3c-4.2,4.2-9.5,9.6-16.1,10.1
							C294,240.7,292.3,240.5,291.1,240.2z"/>
						<path class="st1" d="M291.2,238c0,0.1,0.1,0.4,0.4,0.5c1.2,0.3,2.7,0.4,4.5,0.3c5.8-0.5,10.7-5.1,14.5-9.1
							c-0.6,0-1.5,0.1-2.7,0.3c-6.6,0.8-11.8,3.5-16.6,7.9C291.2,237.8,291.2,237.9,291.2,238L291.2,238z"/>
						<path d="M290.1,238.9c2.4,0.2,5.4,0.8,7.5,0c2.5-0.9,4.2-4.1,6.2-6.2c-3.4,0.3-6.9,0.5-9.9,2.2
							C292.5,235.8,290.9,237.4,290.1,238.9z"/>
					</g>
					<g>
						<path d="M279.5,235.2c-1.8,0.2-2.7,2.3-1.6,3.6c4.7,5.4,10.4,8.6,17.4,10.1c1.3,0.3,8.3,1.4,4.9-2.1
							c-4.2-4.3-9.2-10.2-15.7-11.3C282.4,235.1,280.7,235.1,279.5,235.2z"/>
					</g>
					<g>
						<path d="M276.6,239.4c-1.7-0.5-2.3-2.7-1.1-3.8c5.3-4.6,11.1-7.2,18-8.1c1.4-0.2,8.1-0.8,4.6,2.4c-4.4,4.1-9.8,9.5-16.4,9.9
							C279.5,240,277.8,239.8,276.6,239.4z"/>
						<path class="st1" d="M276.7,237.2c0,0.2,0.1,0.4,0.4,0.5c1.2,0.3,2.7,0.5,4.5,0.4c5.9-0.4,10.9-4.9,14.9-9
							c-0.6,0-1.5,0.1-2.8,0.2c-6.7,0.7-12,3.3-16.9,7.7C276.7,237,276.7,237.1,276.7,237.2L276.7,237.2z"/>
						<path d="M275.6,238.1c0.8,0.1,1.8,0.4,2.8,0.4c1.5-0.1,3.9,0.1,5.3-0.6c2.6-1.2,4.1-3.8,6.1-5.8c-3.4,0.3-6.8,0.4-9.8,2
							C278.5,234.9,275.1,237.1,275.6,238.1z"/>
					</g>
					<g>
						<path d="M264.8,234.4c-1.8,0.2-2.7,2.3-1.6,3.7c4.8,5.5,10.4,8.9,17.7,10.1c1.2,0.2,8.5,1.4,5-2.2
							c-4.3-4.4-9.3-10.2-15.9-11.4C267.7,234.2,266,234.2,264.8,234.4z"/>
					</g>
					<g>
						<path d="M262,238.2c-1.7-0.5-2.3-2.8-1-3.9c5.5-4.5,11.4-6.9,18.4-7.7c1.4-0.1,8.2-0.6,4.6,2.6c-4.5,4-10.2,9.3-16.9,9.5
							C264.9,238.8,263.2,238.5,262,238.2z"/>
						<path class="st1" d="M262.1,235.9c0,0.2,0.1,0.4,0.4,0.5c1.2,0.4,2.8,0.5,4.6,0.5c6-0.2,11.2-4.7,15.3-8.7
							c-0.7,0-1.6,0-2.8,0.1c-6.8,0.5-12.2,3-17.4,7.3C262.2,235.7,262.1,235.8,262.1,235.9L262.1,235.9z"/>
						<path d="M260.8,236.7c0.8,0.1,2,0.6,3,0.6c1.7,0,3.8,0.4,5.3-0.4c2.6-1.3,4.2-3.9,6.3-6c-3.3,0.2-6.2,0.4-9.1,1.5
							C264.6,233.2,262.9,235.1,260.8,236.7z"/>
					</g>
					<g>
						<path d="M249.8,232.8c-1.8,0.2-2.8,2.3-1.6,3.7c4.7,5.6,10.5,9.1,17.7,10.5c1,0.2,8.6,1.3,5.1-2.1
							c-4.2-4.1-9.3-10.5-15.9-11.8C252.7,232.7,251,232.7,249.8,232.8z"/>
					</g>
					<g>
						<path d="M247.4,236.5c-1.7-0.6-2.2-2.9-0.8-3.9c5.7-4.4,11.8-6.6,18.9-7.1c1.4-0.1,8.3-0.3,4.6,2.8
							c-4.7,3.9-10.6,9.1-17.4,9.1C250.3,237.2,248.6,236.9,247.4,236.5z"/>
						<path class="st1" d="M247.6,234.2c0,0.2,0.1,0.5,0.4,0.6c1.2,0.4,2.8,0.6,4.6,0.7c6.1,0,11.5-4.4,15.9-8.3c-0.7,0-1.6,0-2.9,0
							c-6.9,0.3-12.4,2.6-17.8,6.7C247.7,234,247.6,234,247.6,234.2L247.6,234.2z"/>
						<path d="M246.6,235.1c0.8,0.1,1.9,0.9,2.9,0.9c1.9,0,4.9,0.4,6.7-0.5c2.4-1.2,3.6-3.9,5.6-5.7c-3.6,0.1-7.4-0.3-10.8,1
							c-1.3,0.5-2.9,1.3-3.9,2.5C246.8,233.7,246.4,234.5,246.6,235.1z"/>
					</g>
				</g>
			</g>
			<path class="st2" d="M335.2,195.4c0,0,5,0.1,6.5,1.2c0,0-5.9,1.5-10.1,0.6C331.6,197.2,335,196.6,335.2,195.4z"/>
			<path class="st2" d="M324.3,200.2c0,0,5,0.1,6.5,1.2c0,0-5.9,1.5-10.1,0.6C320.7,201.9,324,201.4,324.3,200.2z"/>
			<path class="st2" d="M313,205c0,0,5,0.1,6.5,1.2c0,0-5.9,1.5-10.1,0.6C309.4,206.7,312.7,206.2,313,205z"/>
			<path class="st2" d="M298.9,209.6c0,0,5,0.1,6.5,1.2c0,0-5.9,1.5-10.1,0.6C295.3,211.4,298.6,210.9,298.9,209.6z"/>
			<path class="st2" d="M288.9,213c0,0,5,0.1,6.5,1.2c0,0-5.9,1.5-10.1,0.6C285.3,214.8,288.7,214.3,288.9,213z"/>
		</g>
		<g>
			<g>
				<path d="M274.8,204.3c-1.8-0.9-3.2-1.7-7.6-1.4c-0.7,0-2-0.5-1.8-1.6c-1.3-0.4-5.6,1.4-5.6-1.4c-1.5-0.3-6.5,0.9-6.6-1.5
					c-0.4,0-6.1,2.1-6.4,0.1c-5.1,1.3-7.7,2.3-10.5,3.9c-0.9,0.5-1.8,0.6-2.4,0.4c-1.8,0.7-3.6,1.3-5.5,1.3c-2,0-3.9-0.9-5.4-2.3
					c-2.7-2.4-4-6.3-3.3-9.8c-0.2-0.5-0.2-1.2-0.1-2c0.6-3.2,0.8-5.9,0.6-11.2c-2,0.3-1.7-5.8-1.8-6.1c-2.3,0.6-2.7-4.6-3.4-5.9
					c-2.7,0.9-2.3-3.8-3-4.9c-1,0.5-1.9-0.6-2.1-1.2c-1-4.4-2.2-5.5-3.6-6.9c0.3,2.9-0.5,7.4-3.4,6.7c-0.7,1.1-0.1,6.8-3.8,5
					c-1,1.4,0.3,7.9-3.8,5.6c-0.6,0.8,0.8,7.2-3.5,5.2c-0.6,1.1,1.8,8.1-2.1,5.9c-0.4,1.1,2.1,7.6-1.8,5.3c-0.2,1,2.5,7.9-1,6.1
					c0,1,3.9,6.7-0.3,5c0.1,0.5,5,5.3,1.1,4.6c0.3,0.4,4.9,4.3,1.3,4.2c0.4,0.8,6.6,3.8,3.1,4.6c0.5,0.6,6,1.4,3.5,3.4
					c1,0.7,7.7-0.2,5.5,1.8c9.4,1.3,13.4-8.7,16.2-6.7c2.7,2.1-7.3,8.2-1.6,17.5c1.2-2.7,2.3,4,3.3,4.8c1.1-3,3.5,2.1,4.2,2.4
					c-0.2-3.6,4.4,1.5,5.3,1.6c-1.2-3.4,3.9-0.2,4.4,0c-1.9-3.4,4.2-0.2,4.7-0.3c-2.9-3.4,3.8-1.4,4.7-1.7c-2.7-2.8,4.7-2.3,5.6-2.7
					c-3.3-3,3.6-2.5,4.6-3.2c-3.2-3.1,4.2-2.9,5.1-3.8c-3.1-3.5,3.3-4.1,4-4.8c-3.4-3.2,3.2-3.9,4.3-5.3c-2.9-3,2.8-4.2,3.7-5.1
					C267.9,207,272,204.8,274.8,204.3z"/>
				<g>
					<path class="st1" d="M207.5,170.4c0.4,1.2,3.8-1.3,3.8-1.3c-0.7,4.6-4.9,7.7-2.9,8c1.6,0.3,4.8-2.6,4.8-2.6
						c-0.6,4.7-6.2,7.4-4,7.8c1.7,0.3,4.9-1.8,4.9-1.8c-0.5,1.7-2.1,3.8-3.1,4.5c1.3,0.3,3,1,3.9,1.5l-0.2-1.8
						c1.2,0.4,3,1.6,3.3,1.8c0.3-2.5,0.3-4.7,0.3-6.8c-1.3-1.1-1.5-3.4-1.6-5.8c-0.2-0.1-0.4-0.2-0.5-0.3c-1.4-1-1.9-3-2.3-4.8
						c0-0.1-0.1-0.3-0.1-0.5c-0.5-0.1-0.9-0.3-1.2-0.5l0,0c-1.3-0.9-1.6-2.7-1.8-4.1c0-0.1,0-0.2-0.1-0.3c-0.4-0.1-0.8-0.3-1.1-0.5
						c-0.7-0.5-1.2-1.3-1.4-2c-0.3-1.1-0.9-3.5-0.9-2.4C208.2,164.5,207.4,169.8,207.5,170.4z"/>
					<path class="st1" d="M205.3,171.9c0.1-4.3-3.3-7.8-3.2-6.4C202.1,167.8,205.3,172.5,205.3,171.9z"/>
					<path class="st1" d="M204.4,177.3c-0.6-2.6-5.4-7.4-5.7-6.3C198.4,172.1,204.9,179.6,204.4,177.3z"/>
					<path class="st1" d="M194.4,185.9c0,0,1.7-0.3,2.5-0.5c-2.4-2-4.3-3.1-4.3-2.4C192.6,183.5,193.1,184.4,194.4,185.9z"/>
					<path class="st1" d="M203.4,183.5c-1.7-3.5-7.5-8.4-7.9-7.4c-0.3,0.6,3.6,5,6.1,7.4L203.4,183.5z"/>
				</g>
				<g>
					<path class="st2" d="M226.2,225.1c-0.4,0.6-0.8,1-1.4,1.6c2.4,1.6,7.3,5.1,9.2,5.6C235.2,232.4,229.1,227.5,226.2,225.1z"/>
					<path class="st2" d="M230.6,221.5c-4.7-0.8,10,7.2,12.1,7.5C244.2,228.9,235.4,222.3,230.6,221.5z"/>
					<path class="st2" d="M245.5,215.7c-2.4,0.3,9.9,6.1,10.6,5.5C257.1,220.4,249,215.3,245.5,215.7z"/>
					<path class="st2" d="M257.3,210.5c-0.5,0.2,4.8,1.9,7,1.2C265.6,211.3,261.3,209.1,257.3,210.5z"/>
					<path class="st2" d="M237.7,218.1c-4.8-1.1,11.7,8.2,12.7,7.8C251.6,225.5,242.5,219.2,237.7,218.1z"/>
					<path class="st2" d="M252.4,212.9c-2.4,0.2,6.7,4.2,7.7,3.6C261.1,216,255.1,212.7,252.4,212.9z"/>
					<path class="st1" d="M267,204.5c-0.8,0.1-1.7-0.2-2.3-0.7c-0.3-0.3-0.6-0.6-0.8-0.9c-0.1,0-0.2,0-0.3,0
						c-1.4,0.2-3.2,0.4-4.4-0.5l0,0c-0.3-0.2-0.6-0.5-0.9-1c-0.2,0-0.3,0-0.5,0c-1.8,0.1-3.9,0.2-5.3-0.8c-0.2-0.1-0.3-0.3-0.5-0.4
						c-2.2,0.6-4.4,1-5.8,0.3c-2.2,0.3-5.3,1.5-8.2,2.9l0,0c-2,1-3.9,1.4-5.3,1.3c-1.6-0.2-2.2-0.8-2,0c1.1,4.8,0.2,10.2-0.6,12.6
						c2.3-2.3,2.1-7.1,4.8-9.5c-0.9,2.6-0.5,5.2,0.8,6.3c1.3,1,1.4-5.8,4.6-8.9c-0.3,2.5-0.4,5.1,0.8,6.5c1.3,1.4,1.9-5.9,5.1-8.4
						c-0.7,3.3-1,5.5,0,6.5c1.1,1.1,2.5-5.6,6.2-7.3c0,0-2.2,4.6-1.1,6.4c1.1,1.8,4.1-3.9,8.3-5.9c0,0-2.6,4-2,4.9
						c0.3,0.5,5.9-2.4,11.9-3.4C270.7,204.3,268.1,204.4,267,204.5z"/>
				</g>
			</g>
			<g>
				<path d="M225.9,244.1c-0.4,1.3-0.8,2.4-1.4,3.2c11.2-6.4,14.9-19.2,14.9-19.3c0.1,0.4,0.4,1.8,0.5,3.5c0-0.1,5.2-12.7-1.2-26.1
					c-6.4-13.4-19.5-17.4-19.5-17.4l0,0l0,0c0,0,0.7,0.6,1.3,1.2c0.6,0.6,1.2,1.4,1.2,1.4c-3.5-1.5-14.5-4.5-24.2-0.2l0,0l0,0
					c1.5,0.2,2.8,0.7,2.8,0.7c-3.4,0.6-15.2,5.2-23.5,17c2.9-1.6,5.2-2.1,5.4-2.1c-6.8,3.6-11.4,13.5-11.4,13.5s1.3-0.8,3.4-1.8
					c-6.8,7.1-8.1,13.8-8.1,13.8s0.7-0.5,1.8-1.3c-3.1,5.4-3.9,10.8-3.9,10.8s5.5,3,12.4,3.9c-2.1,0.6-3.5,0.9-3.5,0.9
					s6,3.2,15.8,2.4c-2.1,1-3.6,1.5-3.6,1.5s12,2,17.4-0.1l0,0l0,0c-0.6,0.5-2.4,1.7-4.6,2.6l0,0l0,0
					C197.9,252.1,215,253.4,225.9,244.1z"/>
				<path class="st1" d="M235.9,231.6c-1,2.1-2.2,4-3.5,5.8c-1.3,1.8-2.8,3.6-4.5,5.2l-0.5,0.5l0.2-0.7l0.9-3.4l0.4,0.2
					c-1.5,1.6-3.2,3-5,4.3c-1.8,1.3-3.7,2.4-5.7,3.3c-4,1.9-8.3,3-12.7,3.4l-1,0.1l0.8-0.7l3.8-3.5l0.3,0.6c-1.5,0.5-3,0.8-4.4,1.1
					c-1.5,0.3-3,0.5-4.5,0.7c-1.5,0.2-3,0.3-4.6,0.3c-1.5,0.1-3.1,0-4.6-0.1l-0.9-0.1l0.7-0.5l3.2-2.2l0.2,0.6
					c-1.3,0.1-2.6,0.1-3.9,0.1c-1.3,0-2.6,0-3.9-0.1c-1.3,0-2.6-0.1-3.9-0.2c-1.3-0.1-2.6-0.2-3.9-0.6l-0.4-0.1l0.4-0.2l2.7-1.3
					l0,0.3c-1.8-0.4-3.5-0.8-5.2-1.2c-1.7-0.4-3.5-0.8-5.2-1.4c1.7,0.5,3.5,0.8,5.2,1.2c1.8,0.4,3.5,0.7,5.3,1l0.4,0.1l-0.4,0.2
					l-2.7,1.4l0-0.4c1.2,0.4,2.5,0.5,3.8,0.6c1.3,0.1,2.6,0.1,3.9,0.2c1.3,0,2.6,0,3.9,0c1.3,0,2.6,0,3.9-0.1l1.1-0.1l-0.9,0.6
					l-3.2,2.3l-0.2-0.6c1.5,0.1,3,0.2,4.5,0.1c1.5,0,3-0.2,4.5-0.4c1.5-0.2,3-0.4,4.5-0.7c1.5-0.3,2.9-0.7,4.4-1.1l1.5-0.5l-1.2,1.1
					l-3.8,3.4l-0.3-0.6c4.3-0.4,8.6-1.5,12.5-3.3c2-0.9,3.9-2,5.7-3.2c1.8-1.2,3.5-2.6,5-4.1l0.6-0.7l-0.2,0.9l-1,3.4l-0.3-0.2
					c1.7-1.5,3.2-3.2,4.6-5C233.6,235.5,234.9,233.6,235.9,231.6z"/>
				<g>
					<g>
						<path class="st1" d="M170,238.2c0,0,0.8-5.7,4.2-11c-1.5,0.7-2.9,1.7-4,2.9c-3.1,4.9-3.6,9.7-3.6,9.7L170,238.2z"/>
						<path class="st2" d="M167.9,238.3c0.3-1.4,0.9-4,3-7.4c-1.6,3.8-2.1,6.9-2.1,7.1L167.9,238.3z"/>
					</g>
					<g>
						<path class="st1" d="M187.5,211.2c-1.2,0-2.4,0.1-3.8,0.2c1.1-2.1,2.2-3.9,3.4-5.5c-0.6,0.1-1.1,0.3-1.6,0.5
							c-4.1,1.9-6.2,4.3-9.3,8.7c2.7-1.3,5.1-1.7,7.4-1.8C184.8,212.4,186.2,211.8,187.5,211.2z"/>
						<path class="st2" d="M179.4,212.7c1.5-1.8,2.9-3.1,4.6-4.2c-0.4,0.7-0.9,1.5-1.3,2.3l-0.8,1.4
							C181,212.4,180.2,212.5,179.4,212.7z"/>
					</g>
					<g>
						<path class="st1" d="M175.5,224.1c1.2-3,2.6-5.3,4.1-7.1c-0.9,0.3-1.8,0.7-2.5,1.2c-3.3,2.5-4.7,5.2-6.4,8.7
							C172.3,225.5,173.9,224.7,175.5,224.1z"/>
						<path class="st2" d="M173.8,223.6c0.5-0.9,1.2-1.7,1.9-2.5c-0.4,0.7-0.7,1.4-1,2.2C174.3,223.3,174,223.5,173.8,223.6z"/>
					</g>
					<g>
						<path class="st1" d="M182.2,232.3c0,0,0.3-1.8,1.1-4.5c-1.9-0.1-4.3,0.1-7.4,0.9c-2.6,4.2-3,8.1-3,8.1s3.7,2.3,9.1,2.8
							c2.4-2,3.8-3.7,4.8-5.3C184,233.3,182.2,232.3,182.2,232.3z"/>
						<path class="st0" d="M174.2,236.1c3.6,0.7,6.4,0.9,10.9-1.3c-0.8,1.1-1.8,2.2-3.1,3.3c-0.2,0.2-0.5,0.3-0.8,0.2
							C177.9,237.9,175.3,236.7,174.2,236.1z"/>
					</g>
					<g>
						<path class="st1" d="M207.8,227.7c-5.1-1.4-8.6-3.3-8.6-3.3s0.6-4.1,2.7-8.9c-1.7-0.6-3.2-1.4-4.9-2.2c-1.5,0.3-3.1,1-4.5,2.3
							c-7,6.7-7.8,15.5-7.8,15.5s7.4,4.6,17.2,3.7c1.9-0.2,3.3-0.7,4.5-1.4C206.9,231.4,207.1,229.6,207.8,227.7z"/>
						<path class="st0" d="M185.9,230.4c9.7,2.7,16.5,1.5,20.4-1.9c-0.3,0.9-0.5,1.8-0.7,2.7c-0.1,0.5-0.2,0.9-0.3,1.4
							c-1,0.5-2.2,0.9-3.6,1C194.1,234.3,187.9,231.5,185.9,230.4z"/>
					</g>
					<g>
						<path class="st1" d="M205.5,236c-1,0.4-2.1,0.6-3.4,0.7c-4.8,0.4-9.5-0.5-13.1-1.7c-1.1,1.7-2.9,3.6-5.3,5.7
							c4.5,1.5,8.3,1.9,11.5,1.4c3.2-0.5,7.2-2.6,9.6-4.5C205,237.1,205.3,236.5,205.5,236z"/>
						<path class="st0" d="M186,240.2c5.3,0.3,10.9-0.4,16.6-2.4c-2.2,1.4-5.1,2.8-7.6,3.2C192.4,241.4,189.5,241.1,186,240.2z"/>
					</g>
					<g>
						<path class="st1" d="M205.4,195.6c-0.8-0.9-1.7-1.7-2.8-2.4c-7.3,1.6-13.2,5.2-18,10.2c1.6-0.7,3.3-0.8,5.1-0.6
							C194.9,197,200.3,195.8,205.4,195.6z"/>
						<path class="st2" d="M188.2,201.6c2-1.7,4.1-3.1,6.3-4.2c-1.8,1-3.5,2.4-5.3,4.3C188.8,201.6,188.5,201.6,188.2,201.6z
							 M199,195.4c1.1-0.4,2.2-0.7,3.3-0.9c0.1,0.1,0.2,0.2,0.3,0.2C201.5,194.8,200.3,195.1,199,195.4z"/>
					</g>
					<g>
						<path class="st1" d="M194.1,212.1c-0.6-0.2-1.3-0.4-2.1-0.5c-2.9,0.7-7,2.6-9.4,4.9c-2.3,2.2-4.2,5.5-5.8,10
							c2.9-0.6,5.2-0.9,7.2-0.8c1.3-3.6,3.6-8,7.1-11.5C192.1,213.2,193.1,212.6,194.1,212.1z"/>
						<path class="st2" d="M178.7,224.9c2.4-1.9,3.2-1,4.4-3.3c1.3-2.5,3-5.4,7.3-8.3c0,0,0,0,0,0c-2.8,2.7-5.1,6.3-6.9,10.6
							c-0.1,0.3-0.5,0.6-0.8,0.6C181.4,224.5,180.1,224.7,178.7,224.9z"/>
					</g>
					<g>
						<path class="st1" d="M223.1,237.5c-2.2,0.5-4.7,0.8-7.6,0.9c2.4-3.9,3.4-6.8,3.9-9.2c-3.2,0.2-6.3-0.2-9.2-0.8
							c-0.7,1.4-1.2,3.1-1.5,4.8c-0.4,2.8-2,5.8-5.3,9.9c5,0.6,9,0.4,12.2-0.7C218.2,241.4,221,239.5,223.1,237.5z"/>
						<path class="st0" d="M206.1,241.5c2.3-3.1,3.5-5.7,3.8-8.2c0.5,1.7,0.3,4.8-0.9,6.8c-0.1,0.3,0,0.6,0.3,0.6
							c2.8,0.1,7.1-0.5,9.6-1.5c-1.3,0.9-2.6,1.6-3.8,2c-2.4,0.9-5.4,1.2-8.9,0.9C206.1,242.1,205.9,241.8,206.1,241.5z"/>
					</g>
					<g>
						<path class="st1" d="M208.3,205.7c-2.1-1.2-5-2.2-9.6-2.8c0.5-0.6,1.1-1.2,1.6-1.7c0.3-0.3,0.6-0.6,0.9-0.9
							c1.1-1.1,2.1-2,3.1-2.8c-2.9,0.4-6.3,1.4-8.6,2.8c-2.9,1.8-5.6,4.8-8.3,9c5.2,0,8.6,0.7,11,2.1c1.5,0.9,3,1.5,4.5,1.9
							C204.2,210.7,206,208,208.3,205.7z"/>
						<path class="st2" d="M189.5,208.1c5.2-1.3,9.2,0.1,10.3,0.6c0.4,0.1,0.7,0.2,1.1,0.2c1.9-0.2,3-2.3,5.5-2.9
							c-1.3,1.5-2.6,3.2-3.7,5.2c-0.2,0.4-0.7,0.6-1.2,0.4c-0.9-0.3-1.7-0.7-2.6-1.2C196.7,209,193.7,208.3,189.5,208.1z"/>
					</g>
					<g>
						<path class="st1" d="M222.3,214.4c0.4-0.6,1-1.3,1.7-1.9c-0.4,0.1-0.8,0.1-1.2,0.1c0,0-0.1,0-0.1,0c-0.1,0-0.1,0-0.2,0
							c-0.1,0-0.1,0-0.2,0c-0.1,0-0.1,0-0.2,0c-0.1,0-0.1,0-0.2,0c0,0-0.1,0-0.1,0c-0.1,0-0.2,0-0.3,0l0,0
							c-6.4-0.7-7.9-3.3-11.4-5.8c0,0,0,0-0.1,0.1c-7.3,7-8.2,16.1-8.2,16.1s7.6,4.7,17.7,3.9C219.9,222.7,218.8,219.8,222.3,214.4z
							"/>
						<path class="st0" d="M203.2,222.4c3.1,0.7,5.9,1.2,8.4,1.4c2.4,0.1,4.5-1.4,5.3-3.6c0.8-2.5,2.5-5.3,4.5-6.4
							c-2.9,4.4-2.9,7.3-2.8,10.4c0,0.2,0,0.5,0,0.7c0,0.5-0.4,1-0.9,1C210.6,226,205,223.4,203.2,222.4z"/>
					</g>
					<g>
						<path class="st1" d="M219.1,235.9c4.8-0.5,8.6-1.6,11.4-3.3c3.1-2,6.4-6.2,7.6-9c-0.8-5.2-4.1-10.2-8.1-10.9
							c-4.4-0.7-8.6,5.5-8,12.7C222.2,228.1,221.3,231.4,219.1,235.9z"/>
						<path class="st0" d="M221.4,233.6c1.4-3.3,1.9-5.9,1.7-8.3c1.5,1.8-0.4,7.6,5,5.6c3.8-1.4,8.6-8.4,8.8-7.5
							c-1.2,2.6-4.2,6.4-7,8.2c-2,1.3-4.6,2.2-7.8,2.8C221.6,234.4,221.2,234,221.4,233.6z"/>
					</g>
					<g>
						<path class="st1" d="M218.7,192.1c-7-2.7-14.8-1.4-14.8-1.4c1.7,1.1,3.2,2.5,4.5,3.9C212.2,192.5,215.6,192,218.7,192.1z"/>
						<path class="st2" d="M207,191.5c1.4-0.1,3.3-0.1,5.3,0.2c-1.2,0.4-2.4,0.8-3.6,1.4C208.1,192.6,207.6,192,207,191.5z"/>
					</g>
					<g>
						<path class="st1" d="M202.8,201.6c3.4-3.5,6.6-5.7,9.8-6.7c3.5-1.2,8.9-1.1,11.8-0.2c3.6,3.9,5.3,9.6,3.3,13.2
							c-2.2,3.9-9.7,3.2-14.9-1.8C210.8,204.1,207.7,202.8,202.8,201.6z"/>
						<path class="st2" d="M205.1,201c5,0,7,0.9,10.3,3.7c3.6,3,12.1,3.4,10.7-5.3c1.4,3,1.7,6,0.6,7.9c-0.7,1.3-2.1,1.7-3.1,1.9
							c-3.1,0.5-7.1-1.1-10-3.9C211.7,203.4,209.1,202.1,205.1,201z"/>
					</g>
					<g>
						<path class="st1" d="M236.8,206.5c2.4,5,2.9,10.7,2.7,14.8c-2.8-11.8-9.8-11.5-9.8-11.5s4.7-5.2-2.7-14.8
							C230.4,197.5,234.5,201.5,236.8,206.5z"/>
						<path class="st2" d="M231.6,209c0.7-1.6,5.3-1.3,6.4,5.3C235.9,210.7,233.3,209.4,231.6,209z"/>
					</g>
				</g>
			</g>
		</g>
		<path class="st0" d="M259,237.8c0,0,1.8,0.6,3,0.4l5,4C267,242.2,269,245.9,259,237.8z"/>
		<path class="st0" d="M273.9,238.8c0,0,1.8,0.6,3,0.4l5,4C281.8,243.3,283.8,247,273.9,238.8z"/>
		<path class="st0" d="M287.8,239.6c0,0,1.8,0.6,3,0.4l5,4C295.7,244,297.7,247.7,287.8,239.6z"/>
		<path class="st0" d="M302.9,239.7c0,0,1.8,0.6,3,0.4l5,4C310.9,244.1,312.9,247.8,302.9,239.7z"/>
		<path class="st0" d="M317.1,239.7c0,0,1.8,0.6,3,0.4l5,4C325.1,244.1,327.1,247.8,317.1,239.7z"/>
		<path class="st0" d="M332.6,239.7c0,0,1.8,0.6,3,0.4l5,4C340.6,244.1,342.6,247.8,332.6,239.7z"/>
		<path class="st0" d="M346,239.1c0,0,1.8,0.4,3,0.2l5.2,3.7C354.2,243,356.4,246.7,346,239.1z"/>
		<path class="st0" d="M358,238.1c0,0,1.8,0.4,3,0.1l5.4,3.5C366.5,241.7,368.9,245.2,358,238.1z"/>
		<path class="st0" d="M368.9,237.7c0,0,1.9,0,3-0.5l5.9,2.4C377.8,239.6,380.9,242.5,368.9,237.7z"/>
		<path class="st0" d="M349.9,215.9c0,0,6.6,0.7,6.3,1.6c-0.3,0.9-8.7-0.1-9.2-0.4C347.1,217.1,349.1,217,349.9,215.9z"/>
		<path class="st0" d="M338.5,218.6c0,0,6.4,1.6,6,2.4s-8.6-1.3-9.1-1.6C335.4,219.5,337.5,219.6,338.5,218.6z"/>
		<path class="st0" d="M326.5,221.5c0,0,6.4,1.8,6,2.6c-0.4,0.8-8.6-1.6-9-1.9C323.5,222.3,325.5,222.5,326.5,221.5z"/>
		<path class="st0" d="M312.4,224.7c0,0,6.4,1.8,6,2.6s-8.6-1.6-9-1.9C309.4,225.4,311.4,225.6,312.4,224.7z"/>
	</g>
	<g>
		<g>
			<path class="st3" d="M207,93.6v2.2h-6.6v-9.3h6.5v2.2h-3.9v1.3h3.4v2.1h-3.4v1.5H207z"/>
			<path class="st3" d="M215.1,89.6c-0.3-0.2-0.5-0.3-0.8-0.4c-0.2-0.1-0.5-0.2-0.8-0.3c-0.3-0.1-0.6-0.1-0.9-0.1
				c-0.2,0-0.4,0-0.5,0.1c-0.1,0.1-0.2,0.2-0.2,0.4c0,0.1,0,0.2,0.1,0.3c0.1,0.1,0.2,0.2,0.3,0.2c0.1,0.1,0.3,0.1,0.5,0.2
				c0.2,0.1,0.5,0.1,0.7,0.2c0.4,0.1,0.8,0.3,1.2,0.4c0.3,0.2,0.6,0.3,0.9,0.6c0.2,0.2,0.4,0.5,0.6,0.8c0.1,0.3,0.2,0.7,0.2,1.1
				c0,0.6-0.1,1-0.3,1.4c-0.2,0.4-0.5,0.7-0.8,0.9c-0.3,0.2-0.7,0.4-1.1,0.5c-0.4,0.1-0.8,0.2-1.3,0.2c-0.3,0-0.7,0-1-0.1
				c-0.4-0.1-0.7-0.1-1.1-0.2c-0.4-0.1-0.7-0.2-1-0.3c-0.3-0.1-0.6-0.3-0.9-0.4l1.1-2.2c0.3,0.2,0.6,0.4,1,0.5
				c0.3,0.1,0.6,0.2,0.9,0.4c0.4,0.1,0.7,0.2,1.1,0.2c0.3,0,0.5,0,0.6-0.1c0.1-0.1,0.2-0.2,0.2-0.3c0-0.1-0.1-0.2-0.2-0.3
				c-0.1-0.1-0.3-0.2-0.5-0.2c-0.2-0.1-0.4-0.1-0.7-0.2c-0.2-0.1-0.5-0.2-0.8-0.2c-0.4-0.1-0.8-0.3-1.1-0.5
				c-0.3-0.2-0.5-0.3-0.7-0.5c-0.2-0.2-0.3-0.4-0.4-0.7c-0.1-0.3-0.1-0.6-0.1-0.9c0-0.5,0.1-1,0.3-1.4s0.4-0.7,0.8-1
				c0.3-0.3,0.7-0.5,1.1-0.6c0.4-0.1,0.9-0.2,1.3-0.2c0.3,0,0.7,0,1,0.1c0.3,0.1,0.6,0.1,0.9,0.2c0.3,0.1,0.6,0.2,0.8,0.3
				c0.3,0.1,0.5,0.2,0.7,0.3L215.1,89.6z"/>
			<path class="st3" d="M226.1,88.8h-2.7v7.1h-2.5v-7.1h-2.7v-2.2h7.9V88.8z"/>
			<path class="st3" d="M227.5,95.9v-2.4h2v2.4H227.5z"/>
		</g>
	</g>
	<g>
		<g>
			<path class="st3" d="M335.6,94.9c0-0.4,0-0.8,0.1-1.2c0.1-0.3,0.2-0.6,0.3-0.9c0.2-0.3,0.4-0.5,0.6-0.7c0.2-0.2,0.6-0.4,0.9-0.6
				c0.5-0.3,0.8-0.5,1.1-0.6c0.3-0.2,0.5-0.3,0.6-0.4c0.1-0.1,0.2-0.2,0.3-0.2c0-0.1,0.1-0.1,0.1-0.2c0-0.2-0.1-0.4-0.2-0.5
				c-0.1-0.1-0.3-0.2-0.6-0.2c-0.3,0-0.6,0.1-0.8,0.2c-0.3,0.1-0.5,0.4-0.8,0.7l-1.6-1.8c0.2-0.2,0.4-0.4,0.6-0.5
				c0.3-0.2,0.6-0.3,0.9-0.4c0.3-0.1,0.7-0.2,1-0.3c0.4-0.1,0.7-0.1,1.1-0.1c1,0,1.8,0.2,2.3,0.6c0.5,0.4,0.8,1,0.8,1.7
				c0,0.3,0,0.5-0.1,0.7c-0.1,0.2-0.2,0.4-0.3,0.6c-0.1,0.2-0.3,0.3-0.4,0.5c-0.2,0.1-0.3,0.3-0.5,0.4c-0.2,0.1-0.4,0.3-0.7,0.4
				c-0.2,0.1-0.5,0.3-0.7,0.5h2.9v2.2H335.6z"/>
			<path class="st3" d="M351.8,91.1c0,0.6-0.1,1.1-0.3,1.6c-0.2,0.5-0.4,0.9-0.7,1.3c-0.3,0.4-0.7,0.6-1.1,0.8
				c-0.4,0.2-0.9,0.3-1.4,0.3c-0.5,0-1-0.1-1.4-0.3c-0.4-0.2-0.8-0.5-1.1-0.8c-0.3-0.4-0.6-0.8-0.7-1.3c-0.2-0.5-0.3-1-0.3-1.6
				c0-0.6,0.1-1.1,0.3-1.6c0.2-0.5,0.4-0.9,0.7-1.3c0.3-0.4,0.7-0.6,1.1-0.8c0.4-0.2,0.9-0.3,1.4-0.3c0.5,0,1,0.1,1.4,0.3
				c0.4,0.2,0.8,0.5,1.1,0.8c0.3,0.4,0.6,0.8,0.7,1.3C351.7,90,351.8,90.5,351.8,91.1z M349.3,91.1c0-0.5-0.1-0.9-0.3-1.2
				c-0.2-0.3-0.4-0.5-0.7-0.5c-0.3,0-0.5,0.2-0.7,0.5c-0.2,0.3-0.3,0.7-0.3,1.2c0,0.5,0.1,0.9,0.3,1.2c0.2,0.3,0.4,0.5,0.7,0.5
				c0.3,0,0.5-0.2,0.7-0.5C349.2,92,349.3,91.6,349.3,91.1z"/>
			<path class="st3" d="M360.5,92.7v2.2h-6.1v-2.2h1.9v-2.6c-0.1,0.1-0.2,0.2-0.4,0.3c-0.2,0.1-0.4,0.2-0.6,0.3
				c-0.2,0.1-0.4,0.2-0.6,0.2c-0.2,0.1-0.4,0.1-0.6,0.1v-2.3c0.1,0,0.3,0,0.5-0.1c0.2-0.1,0.4-0.2,0.7-0.3c0.2-0.1,0.4-0.3,0.6-0.4
				c0.2-0.1,0.3-0.3,0.3-0.4h2.5v5.2H360.5z"/>
			<path class="st3" d="M366.1,90.7c0.5,0,0.9,0.1,1.2,0.2c0.4,0.1,0.7,0.4,1,0.6c0.3,0.3,0.5,0.6,0.6,1s0.2,0.8,0.2,1.2
				c0,0.5-0.1,0.9-0.3,1.3c-0.2,0.4-0.4,0.7-0.7,1c-0.3,0.3-0.7,0.5-1.1,0.7c-0.4,0.2-0.9,0.2-1.5,0.2c-0.7,0-1.3-0.1-1.8-0.4
				s-1-0.6-1.3-1.1l1.4-1.6c0.3,0.3,0.5,0.5,0.8,0.6c0.3,0.2,0.6,0.2,0.9,0.2c0.3,0,0.6-0.1,0.8-0.3c0.2-0.2,0.3-0.4,0.3-0.7
				c0-0.3-0.1-0.5-0.2-0.7c-0.2-0.2-0.4-0.3-0.7-0.3c-0.2,0-0.4,0-0.5,0.1c-0.2,0.1-0.3,0.2-0.3,0.3h-2.1l1.1-5.8h4.7v2.3h-2.9
				l-0.1,1c0,0,0.1,0,0.1,0c0,0,0.1,0,0.2,0C365.9,90.7,365.9,90.7,366.1,90.7z"/>
		</g>
	</g>
	<g>
		<polygon class="st1" points="484,203.2 59.1,203.2 54.1,188.8 59.1,175.2 484,175.2 489,188.8 		"/>
		<path class="st3" d="M484.8,204.2H58.4L53,188.7l5.4-14.6h426.3l5.4,14.6L484.8,204.2z M59.8,202.2h423.5l4.6-13.4l-4.6-12.6H59.8
			l-4.6,12.6L59.8,202.2z"/>
	</g>
	<g>
		<g>
			<path d="M73,191.7h-3.1l-0.6,2.3h-2.4l3.5-11.3h2.1l3.5,11.3h-2.4L73,191.7z M70.4,189.8h2.1l-1.1-4L70.4,189.8z"/>
			<path d="M86.4,182.7l2.1,8.1l2.1-8.1h3V194h-2.3v-3l0.2-4.7l-2.3,7.7h-1.5l-2.3-7.7l0.2,4.7v3h-2.3v-11.3H86.4z"/>
			<path d="M107.6,189.1h-3.5v3h4.2v1.9h-6.5v-11.3h6.5v1.9h-4.2v2.7h3.5V189.1z"/>
			<path d="M119.3,189.9h-1.1v4.1h-2.3v-11.3h3.6c1.1,0,2,0.3,2.6,0.9c0.6,0.6,0.9,1.4,0.9,2.5c0,1.5-0.5,2.5-1.6,3.1l2,4.6v0.1H121
				L119.3,189.9z M118.2,188h1.3c0.5,0,0.8-0.2,1-0.5c0.2-0.3,0.3-0.7,0.3-1.2c0-1.1-0.4-1.7-1.3-1.7h-1.3V188z"/>
			<path d="M133.4,194h-2.3v-11.3h2.3V194z"/>
			<path d="M149.3,190.3c-0.1,1.3-0.4,2.3-1.1,2.9c-0.7,0.7-1.6,1-2.8,1c-1.3,0-2.3-0.4-2.9-1.3c-0.7-0.8-1-2-1-3.6v-1.9
				c0-1.5,0.4-2.7,1.1-3.6s1.7-1.3,2.9-1.3c1.2,0,2.2,0.3,2.8,1c0.6,0.7,1,1.7,1.1,3H147c0-0.8-0.1-1.3-0.4-1.6
				c-0.2-0.3-0.6-0.5-1.2-0.5c-0.6,0-1,0.2-1.3,0.6c-0.3,0.4-0.4,1.1-0.4,2.1v2.1c0,1.1,0.1,1.9,0.4,2.3c0.3,0.4,0.7,0.6,1.3,0.6
				c0.6,0,1-0.1,1.2-0.4c0.2-0.3,0.4-0.8,0.4-1.6H149.3z"/>
			<path d="M162.4,191.7h-3.1l-0.6,2.3h-2.4l3.5-11.3h2.1l3.5,11.3H163L162.4,191.7z M159.8,189.8h2.1l-1.1-4L159.8,189.8z"/>
			<path d="M180.7,194h-2.3l-3.3-7.4v7.4h-2.3v-11.3h2.3l3.3,7.4v-7.4h2.3V194z"/>
			<path d="M204.7,189.1h-3.5v3h4.2v1.9h-6.5v-11.3h6.5v1.9h-4.2v2.7h3.5V189.1z"/>
			<path d="M218.3,191.7h-3.1l-0.6,2.3h-2.4l3.5-11.3h2.1l3.5,11.3h-2.4L218.3,191.7z M215.7,189.8h2.1l-1.1-4L215.7,189.8z"/>
			<path d="M235.1,184.6h-2.8v9.4h-2.3v-9.4h-2.7v-1.9h7.8V184.6z"/>
			<path d="M248.6,189.1H245v3h4.2v1.9h-6.5v-11.3h6.5v1.9H245v2.7h3.5V189.1z"/>
			<path d="M260.3,189.9h-1.1v4.1h-2.3v-11.3h3.6c1.1,0,2,0.3,2.6,0.9c0.6,0.6,0.9,1.4,0.9,2.5c0,1.5-0.5,2.5-1.6,3.1l2,4.6v0.1H262
				L260.3,189.9z M259.2,188h1.3c0.5,0,0.8-0.2,1-0.5s0.3-0.7,0.3-1.2c0-1.1-0.4-1.7-1.3-1.7h-1.3V188z"/>
			<path d="M275,187.8l1.7-5.1h2.5l-3,7.2v4.1h-2.3v-4.1l-3-7.2h2.5L275,187.8z"/>
			<path d="M301.9,191.7h-3.1l-0.6,2.3h-2.4l3.5-11.3h2.1L305,194h-2.4L301.9,191.7z M299.3,189.8h2.1l-1.1-4L299.3,189.8z"/>
			<path d="M320.2,194h-2.3l-3.3-7.4v7.4h-2.3v-11.3h2.3l3.3,7.4v-7.4h2.3V194z"/>
			<path d="M328.4,194v-11.3h3c1.3,0,2.4,0.4,3.1,1.3c0.8,0.8,1.2,2,1.2,3.4v1.8c0,1.5-0.4,2.6-1.2,3.5c-0.8,0.8-1.9,1.3-3.2,1.3
				H328.4z M330.7,184.6v7.5h0.7c0.8,0,1.3-0.2,1.6-0.6s0.5-1.1,0.5-2.1v-2c0-1.1-0.1-1.8-0.4-2.2c-0.3-0.4-0.8-0.6-1.5-0.7H330.7z"
				/>
			<path d="M360.5,184.6h-2.8v9.4h-2.3v-9.4h-2.7v-1.9h7.8V184.6z"/>
			<path d="M372.6,191.7h-3.1l-0.6,2.3h-2.4l3.5-11.3h2.1l3.5,11.3h-2.4L372.6,191.7z M370,189.8h2.1l-1.1-4L370,189.8z"/>
			<path d="M385.3,190v4H383v-11.3h3.8c1.1,0,2,0.3,2.7,1c0.7,0.7,1,1.6,1,2.7c0,1.1-0.3,2-1,2.6c-0.7,0.6-1.6,1-2.7,1H385.3z
				 M385.3,188.2h1.6c0.4,0,0.8-0.1,1-0.4c0.2-0.3,0.4-0.7,0.4-1.2c0-0.6-0.1-1-0.4-1.3c-0.2-0.3-0.6-0.5-1-0.5h-1.6V188.2z"/>
			<path d="M416.3,194H414v-4.8h-3.4v4.8h-2.3v-11.3h2.3v4.6h3.4v-4.6h2.3V194z"/>
			<path d="M432.3,189.4c0,1.5-0.4,2.7-1.1,3.5c-0.7,0.8-1.7,1.3-3,1.3c-1.3,0-2.3-0.4-3-1.2c-0.7-0.8-1.1-2-1.1-3.5v-1.9
				c0-1.5,0.4-2.8,1.1-3.6s1.7-1.3,3-1.3c1.3,0,2.2,0.4,3,1.3c0.7,0.9,1.1,2.1,1.1,3.6V189.4z M430.1,187.5c0-1-0.1-1.8-0.4-2.3
				c-0.3-0.5-0.7-0.7-1.3-0.7c-0.6,0-1,0.2-1.3,0.7c-0.3,0.5-0.4,1.2-0.4,2.2v2c0,1,0.1,1.7,0.4,2.2c0.3,0.5,0.7,0.7,1.4,0.7
				c0.6,0,1-0.2,1.3-0.7c0.3-0.5,0.4-1.2,0.4-2.1V187.5z"/>
			<path d="M447.6,182.7v7.8c0,1.2-0.3,2.1-1,2.7c-0.6,0.6-1.5,0.9-2.7,0.9c-1.2,0-2.1-0.3-2.8-0.9s-1-1.5-1-2.7v-7.7h2.3v7.8
				c0,0.6,0.1,1.1,0.3,1.4c0.2,0.3,0.6,0.4,1.1,0.4c0.5,0,0.9-0.1,1.1-0.4c0.2-0.3,0.3-0.7,0.3-1.3v-7.8H447.6z"/>
			<path d="M460.5,191.1c0-0.5-0.1-0.8-0.4-1c-0.2-0.2-0.7-0.5-1.3-0.7c-1.1-0.4-1.9-0.9-2.4-1.5s-0.7-1.3-0.7-2
				c0-0.9,0.3-1.7,1-2.3c0.7-0.6,1.5-0.9,2.6-0.9c0.7,0,1.3,0.1,1.8,0.4c0.5,0.3,1,0.7,1.2,1.2c0.3,0.5,0.4,1.1,0.4,1.8h-2.3
				c0-0.5-0.1-0.9-0.3-1.2c-0.2-0.3-0.5-0.4-1-0.4c-0.4,0-0.7,0.1-0.9,0.4c-0.2,0.2-0.3,0.6-0.3,0.9c0,0.3,0.1,0.6,0.4,0.8
				c0.2,0.3,0.7,0.5,1.3,0.8c1.1,0.4,1.9,0.9,2.4,1.5c0.5,0.6,0.7,1.3,0.7,2.2c0,1-0.3,1.7-0.9,2.3c-0.6,0.6-1.5,0.8-2.5,0.8
				c-0.7,0-1.4-0.1-2-0.4s-1.1-0.7-1.4-1.3c-0.3-0.6-0.5-1.2-0.5-2h2.3c0,0.6,0.1,1.1,0.4,1.4c0.3,0.3,0.7,0.4,1.2,0.4
				C460.1,192.3,460.5,191.9,460.5,191.1z"/>
			<path d="M476.4,189.1h-3.5v3h4.2v1.9h-6.5v-11.3h6.5v1.9h-4.2v2.7h3.5V189.1z"/>
		</g>
	</g>
	<g>
		<path d="M70.5,148.8c0,2-0.4,3.7-1.2,5.1c-0.8,1.5-1.9,2.7-3.3,3.6c-1.4,1-3.1,1.7-4.9,2.2c-1.9,0.5-3.9,0.7-6,0.7H32.9v-45.5
			h25.3c1.6,0,3,0.3,4.3,1c1.3,0.7,2.4,1.6,3.3,2.7c0.9,1.1,1.6,2.3,2.1,3.7c0.5,1.4,0.7,2.8,0.7,4.3c0,2.2-0.5,4.2-1.6,6.2
			s-2.7,3.4-4.9,4.4c2.6,0.8,4.7,2.1,6.2,4.1C69.8,143.2,70.5,145.7,70.5,148.8z M43.4,123.9v9.4h10.3c1.2,0,2.2-0.4,3.1-1.2
			c0.9-0.8,1.3-2,1.3-3.6c0-1.5-0.4-2.6-1.2-3.5c-0.8-0.8-1.7-1.2-2.9-1.2H43.4z M59.8,146.6c0-1.4-0.4-2.6-1.2-3.6
			c-0.8-1-1.8-1.5-3.1-1.5H43.4v9.9h11.7c1.4,0,2.5-0.4,3.4-1.3S59.8,148.1,59.8,146.6z"/>
		<path d="M81.9,160.4v-45.5h10.5v36.3h22.1v9.2H81.9z"/>
		<path d="M135.6,114.9h9.5l16.6,45.5h-10.8l-3.5-10.2h-14.2l-3.5,10.2H119L135.6,114.9z M145.7,143l-5.3-16.1l-5.5,16.1H145.7z"/>
		<path d="M196.1,128.2c-0.1-0.2-0.6-0.5-1.3-1c-0.8-0.5-1.7-1-2.9-1.5s-2.4-1-3.8-1.3s-2.7-0.6-4.1-0.6c-3.8,0-5.6,1.3-5.6,3.8
			c0,0.8,0.2,1.4,0.6,1.9s1,1,1.8,1.4c0.8,0.4,1.8,0.8,3,1.1c1.2,0.3,2.6,0.7,4.2,1.2c2.2,0.6,4.1,1.3,5.9,2
			c1.8,0.7,3.2,1.6,4.5,2.6c1.2,1,2.2,2.3,2.8,3.8c0.7,1.5,1,3.3,1,5.4c0,2.6-0.5,4.7-1.4,6.5c-1,1.8-2.2,3.2-3.8,4.3
			c-1.6,1.1-3.4,1.9-5.5,2.4s-4.2,0.7-6.3,0.7c-1.7,0-3.4-0.1-5.1-0.4c-1.8-0.3-3.5-0.6-5.1-1.1c-1.7-0.5-3.3-1.1-4.8-1.8
			c-1.6-0.7-3-1.5-4.3-2.4l4.6-9.2c0.2,0.2,0.7,0.6,1.7,1.2c0.9,0.6,2.1,1.2,3.5,1.8c1.4,0.6,2.9,1.1,4.6,1.6
			c1.7,0.5,3.4,0.7,5.2,0.7c3.7,0,5.6-1.1,5.6-3.4c0-0.9-0.3-1.6-0.8-2.1s-1.3-1.1-2.3-1.5c-1-0.4-2.1-0.9-3.5-1.3s-2.8-0.8-4.4-1.3
			c-2.1-0.6-3.9-1.3-5.5-2.1s-2.8-1.6-3.8-2.6c-1-1-1.8-2.1-2.2-3.4c-0.5-1.3-0.7-2.8-0.7-4.5c0-2.4,0.4-4.5,1.3-6.3
			c0.9-1.8,2.1-3.4,3.7-4.6c1.5-1.3,3.3-2.2,5.4-2.9c2-0.6,4.2-1,6.4-1c1.6,0,3.1,0.2,4.7,0.4c1.5,0.3,3,0.7,4.4,1.2
			c1.4,0.5,2.7,1,3.9,1.6c1.2,0.6,2.3,1.2,3.4,1.8L196.1,128.2z"/>
		<path d="M244.2,124.1h-13.9v36.3h-10.5v-36.3h-13.9v-9.2h38.3V124.1z"/>
	</g>
	<path d="M296.1,157.6l-3.2-3.2c-1.8,2.1-3.8,3.7-6.2,4.9c-2.4,1.2-5,1.8-7.8,1.8c-1.9,0-3.7-0.3-5.4-0.8c-1.7-0.6-3.3-1.4-4.6-2.4
		c-1.3-1-2.4-2.3-3.1-3.8c-0.8-1.5-1.2-3.2-1.2-5c0-1.5,0.3-3,0.8-4.3c0.5-1.3,1.3-2.5,2.2-3.6c0.9-1.1,2-2.1,3.2-3.1
		c1.2-1,2.5-1.9,3.9-2.8c-1.2-1.3-2.2-2.4-3-3.5c-0.8-1-1.5-2-2-2.9s-0.9-1.7-1.1-2.5c-0.2-0.8-0.4-1.6-0.4-2.3
		c0-1.3,0.3-2.6,0.9-3.8s1.4-2.2,2.3-3.1c1-0.9,2.2-1.6,3.5-2.1c1.4-0.5,2.8-0.8,4.4-0.8c1.5,0,2.8,0.2,4,0.7
		c1.2,0.4,2.3,1.1,3.2,1.8s1.6,1.7,2.1,2.8s0.8,2.2,0.8,3.5c0,1.3-0.3,2.5-0.8,3.6c-0.6,1.1-1.3,2.2-2.3,3.2c-1,1-2.1,2-3.3,2.9
		c-1.3,0.9-2.6,1.8-3.9,2.8l13.7,14.2c0.9-1.7,1.7-3.5,2.2-5.5c0.5-2,0.8-4,0.8-6.2h2.8c-0.1,5.1-1.4,9.7-3.8,13.7l5.7,5.7H296.1z
		 M279.3,158.4c2.4,0,4.6-0.5,6.6-1.6c2-1.1,3.7-2.6,5.1-4.4l-14.5-15.2c-1.2,0.9-2.4,1.7-3.4,2.6c-1,0.9-2,1.8-2.8,2.7
		c-0.8,1-1.4,2-1.9,3.1c-0.4,1.1-0.7,2.3-0.7,3.6c0,1.5,0.3,2.9,1,4s1.6,2.1,2.7,2.9c1.1,0.8,2.3,1.4,3.7,1.8
		C276.6,158.3,277.9,158.4,279.3,158.4z M271.2,124c0,0.6,0.1,1.1,0.2,1.7c0.1,0.6,0.4,1.2,0.9,1.9c0.4,0.7,1.1,1.6,1.9,2.5
		s1.8,2.1,3,3.4c2.8-1.8,5.1-3.5,6.8-5.1c1.7-1.6,2.6-3.3,2.6-5.3c0-1.8-0.7-3.3-2.1-4.5c-1.4-1.2-3.1-1.8-5.3-1.8
		c-1.2,0-2.2,0.2-3.2,0.6s-1.8,0.9-2.6,1.5c-0.7,0.6-1.3,1.4-1.7,2.2C271.4,122.2,271.2,123.1,271.2,124z"/>
	<g>
		<path d="M358.7,148.8c0,2-0.4,3.7-1.2,5.1c-0.8,1.5-1.9,2.7-3.3,3.6c-1.4,1-3.1,1.7-4.9,2.2c-1.9,0.5-3.9,0.7-6,0.7h-22.2v-45.5
			h25.3c1.6,0,3,0.3,4.3,1c1.3,0.7,2.4,1.6,3.3,2.7c0.9,1.1,1.6,2.3,2.1,3.7c0.5,1.4,0.7,2.8,0.7,4.3c0,2.2-0.5,4.2-1.6,6.2
			s-2.7,3.4-4.9,4.4c2.6,0.8,4.7,2.1,6.2,4.1C358,143.2,358.7,145.7,358.7,148.8z M331.6,123.9v9.4h10.3c1.2,0,2.2-0.4,3.1-1.2
			c0.9-0.8,1.3-2,1.3-3.6c0-1.5-0.4-2.6-1.2-3.5c-0.8-0.8-1.7-1.2-2.9-1.2H331.6z M348,146.6c0-1.4-0.4-2.6-1.2-3.6
			c-0.8-1-1.8-1.5-3.1-1.5h-12.1v9.9h11.7c1.4,0,2.5-0.4,3.4-1.3S348,148.1,348,146.6z"/>
		<path d="M371.4,160.4v-45.5h20.5c2.1,0,4.1,0.4,5.9,1.3c1.8,0.9,3.4,2.1,4.7,3.5s2.4,3.1,3.1,4.9c0.7,1.8,1.1,3.7,1.1,5.6
			c0,1.4-0.2,2.8-0.5,4.1c-0.3,1.3-0.8,2.5-1.5,3.7c-0.6,1.2-1.4,2.2-2.3,3.1c-0.9,0.9-2,1.7-3.1,2.3l10,16.9h-11.9l-8.7-14.7h-6.9
			v14.7H371.4z M381.9,136.6h9.6c1.2,0,2.3-0.6,3.2-1.8c0.9-1.2,1.3-2.7,1.3-4.5c0-1.9-0.5-3.4-1.5-4.5c-1-1.1-2.1-1.7-3.3-1.7h-9.3
			V136.6z"/>
		<path d="M452.7,151.2v9.2h-32v-45.5h31.4v9.2h-20.9v8.8h18v8.5h-18v9.7H452.7z"/>
		<path d="M480.7,115h9.7l4.6,14.6l4.6-14.6h9.7l-7.6,21.2l4.6,12.2l11.4-33.5h11.5L511,160.4h-8.8l-7.2-17.8l-7.2,17.8H479
			l-18.1-45.5h11.4l11.5,33.5l4.5-12.2L480.7,115z"/>
	</g>
</g>
<path d="M-75,393.8c0,0.5-0.1,0.9-0.3,1.2c-0.2,0.3-0.5,0.6-0.8,0.9c-0.3,0.2-0.7,0.4-1.2,0.5c-0.4,0.1-0.9,0.2-1.4,0.2h-5.3v-10.8
	h6c0.4,0,0.7,0.1,1,0.2c0.3,0.2,0.6,0.4,0.8,0.6c0.2,0.3,0.4,0.6,0.5,0.9c0.1,0.3,0.2,0.7,0.2,1c0,0.5-0.1,1-0.4,1.5
	c-0.3,0.5-0.6,0.8-1.2,1c0.6,0.2,1.1,0.5,1.5,1C-75.2,392.5-75,393.1-75,393.8z M-81.5,387.9v2.2h2.4c0.3,0,0.5-0.1,0.7-0.3
	c0.2-0.2,0.3-0.5,0.3-0.9c0-0.4-0.1-0.6-0.3-0.8c-0.2-0.2-0.4-0.3-0.7-0.3H-81.5z M-77.6,393.3c0-0.3-0.1-0.6-0.3-0.9
	c-0.2-0.2-0.4-0.3-0.7-0.3h-2.9v2.4h2.8c0.3,0,0.6-0.1,0.8-0.3C-77.7,394-77.6,393.7-77.6,393.3z"/>
<path d="M-72.3,396.6v-10.8h2.5v8.6h5.2v2.2H-72.3z"/>
<path d="M-59.6,385.8h2.2l3.9,10.8H-56l-0.8-2.4h-3.4l-0.8,2.4h-2.6L-59.6,385.8z M-57.2,392.5l-1.3-3.8l-1.3,3.8H-57.2z"/>
<path d="M-45.3,389c0,0-0.1-0.1-0.3-0.2c-0.2-0.1-0.4-0.2-0.7-0.3c-0.3-0.1-0.6-0.2-0.9-0.3c-0.3-0.1-0.6-0.1-1-0.1
	c-0.9,0-1.3,0.3-1.3,0.9c0,0.2,0,0.3,0.1,0.5c0.1,0.1,0.2,0.2,0.4,0.3c0.2,0.1,0.4,0.2,0.7,0.3c0.3,0.1,0.6,0.2,1,0.3
	c0.5,0.1,1,0.3,1.4,0.5c0.4,0.2,0.8,0.4,1.1,0.6c0.3,0.2,0.5,0.5,0.7,0.9c0.2,0.4,0.2,0.8,0.2,1.3c0,0.6-0.1,1.1-0.3,1.5
	c-0.2,0.4-0.5,0.8-0.9,1c-0.4,0.3-0.8,0.4-1.3,0.6s-1,0.2-1.5,0.2c-0.4,0-0.8,0-1.2-0.1c-0.4-0.1-0.8-0.1-1.2-0.3
	c-0.4-0.1-0.8-0.3-1.1-0.4c-0.4-0.2-0.7-0.3-1-0.6l1.1-2.2c0,0.1,0.2,0.1,0.4,0.3c0.2,0.1,0.5,0.3,0.8,0.4c0.3,0.1,0.7,0.3,1.1,0.4
	c0.4,0.1,0.8,0.2,1.2,0.2c0.9,0,1.3-0.3,1.3-0.8c0-0.2-0.1-0.4-0.2-0.5c-0.1-0.1-0.3-0.3-0.5-0.4c-0.2-0.1-0.5-0.2-0.8-0.3
	s-0.7-0.2-1-0.3c-0.5-0.2-0.9-0.3-1.3-0.5c-0.4-0.2-0.7-0.4-0.9-0.6c-0.2-0.2-0.4-0.5-0.5-0.8c-0.1-0.3-0.2-0.7-0.2-1.1
	c0-0.6,0.1-1.1,0.3-1.5c0.2-0.4,0.5-0.8,0.9-1.1c0.4-0.3,0.8-0.5,1.3-0.7c0.5-0.2,1-0.2,1.5-0.2c0.4,0,0.7,0,1.1,0.1
	c0.4,0.1,0.7,0.2,1,0.3c0.3,0.1,0.6,0.2,0.9,0.4c0.3,0.1,0.6,0.3,0.8,0.4L-45.3,389z"/>
<path d="M-33.9,388h-3.3v8.6h-2.5V388H-43v-2.2h9.1V388z"/>
<path d="M-22.3,395.9l-0.8-0.8c-0.4,0.5-0.9,0.9-1.5,1.2c-0.6,0.3-1.2,0.4-1.9,0.4c-0.4,0-0.9-0.1-1.3-0.2c-0.4-0.1-0.8-0.3-1.1-0.6
	c-0.3-0.2-0.6-0.5-0.7-0.9c-0.2-0.3-0.3-0.7-0.3-1.2c0-0.4,0.1-0.7,0.2-1c0.1-0.3,0.3-0.6,0.5-0.9c0.2-0.3,0.5-0.5,0.8-0.7
	c0.3-0.2,0.6-0.5,0.9-0.7c-0.3-0.3-0.5-0.6-0.7-0.8c-0.2-0.2-0.4-0.5-0.5-0.7c-0.1-0.2-0.2-0.4-0.3-0.6c-0.1-0.2-0.1-0.4-0.1-0.6
	c0-0.3,0.1-0.6,0.2-0.9c0.1-0.3,0.3-0.5,0.6-0.7c0.2-0.2,0.5-0.4,0.8-0.5c0.3-0.1,0.7-0.2,1-0.2c0.3,0,0.7,0.1,1,0.2
	c0.3,0.1,0.5,0.3,0.8,0.4s0.4,0.4,0.5,0.7s0.2,0.5,0.2,0.8c0,0.3-0.1,0.6-0.2,0.9c-0.1,0.3-0.3,0.5-0.5,0.8
	c-0.2,0.2-0.5,0.5-0.8,0.7c-0.3,0.2-0.6,0.4-0.9,0.7l3.2,3.4c0.2-0.4,0.4-0.8,0.5-1.3c0.1-0.5,0.2-1,0.2-1.5h0.7
	c0,1.2-0.3,2.3-0.9,3.2l1.3,1.4H-22.3z M-26.3,396.1c0.6,0,1.1-0.1,1.6-0.4c0.5-0.3,0.9-0.6,1.2-1l-3.4-3.6
	c-0.3,0.2-0.6,0.4-0.8,0.6c-0.2,0.2-0.5,0.4-0.7,0.6c-0.2,0.2-0.3,0.5-0.4,0.7c-0.1,0.3-0.2,0.5-0.2,0.8c0,0.4,0.1,0.7,0.2,1
	c0.2,0.3,0.4,0.5,0.6,0.7c0.3,0.2,0.6,0.3,0.9,0.4C-26.9,396.1-26.6,396.1-26.3,396.1z M-28.2,388c0,0.1,0,0.3,0.1,0.4
	c0,0.1,0.1,0.3,0.2,0.5c0.1,0.2,0.3,0.4,0.4,0.6c0.2,0.2,0.4,0.5,0.7,0.8c0.7-0.4,1.2-0.8,1.6-1.2c0.4-0.4,0.6-0.8,0.6-1.3
	c0-0.4-0.2-0.8-0.5-1.1c-0.3-0.3-0.7-0.4-1.2-0.4c-0.3,0-0.5,0-0.8,0.1c-0.2,0.1-0.4,0.2-0.6,0.4c-0.2,0.2-0.3,0.3-0.4,0.5
	C-28.2,387.5-28.2,387.8-28.2,388z"/>
<path d="M-7.5,393.8c0,0.5-0.1,0.9-0.3,1.2c-0.2,0.3-0.5,0.6-0.8,0.9c-0.3,0.2-0.7,0.4-1.2,0.5c-0.4,0.1-0.9,0.2-1.4,0.2h-5.3v-10.8
	h6c0.4,0,0.7,0.1,1,0.2c0.3,0.2,0.6,0.4,0.8,0.6c0.2,0.3,0.4,0.6,0.5,0.9c0.1,0.3,0.2,0.7,0.2,1c0,0.5-0.1,1-0.4,1.5
	c-0.3,0.5-0.6,0.8-1.2,1c0.6,0.2,1.1,0.5,1.5,1C-7.7,392.5-7.5,393.1-7.5,393.8z M-13.9,387.9v2.2h2.4c0.3,0,0.5-0.1,0.7-0.3
	c0.2-0.2,0.3-0.5,0.3-0.9c0-0.4-0.1-0.6-0.3-0.8c-0.2-0.2-0.4-0.3-0.7-0.3H-13.9z M-10,393.3c0-0.3-0.1-0.6-0.3-0.9
	c-0.2-0.2-0.4-0.3-0.7-0.3h-2.9v2.4h2.8c0.3,0,0.6-0.1,0.8-0.3S-10,393.7-10,393.3z"/>
<path d="M-4.5,396.6v-10.8h4.9c0.5,0,1,0.1,1.4,0.3c0.4,0.2,0.8,0.5,1.1,0.8c0.3,0.3,0.6,0.7,0.7,1.2c0.2,0.4,0.3,0.9,0.3,1.3
	c0,0.3,0,0.7-0.1,1c-0.1,0.3-0.2,0.6-0.3,0.9c-0.2,0.3-0.3,0.5-0.6,0.7c-0.2,0.2-0.5,0.4-0.7,0.6l2.4,4H1.7l-2.1-3.5H-2v3.5H-4.5z
	 M-2,391h2.3c0.3,0,0.5-0.1,0.8-0.4c0.2-0.3,0.3-0.6,0.3-1.1c0-0.4-0.1-0.8-0.4-1.1c-0.2-0.3-0.5-0.4-0.8-0.4H-2V391z"/>
<path d="M14.8,394.4v2.2H7.2v-10.8h7.4v2.2H9.7v2.1h4.3v2H9.7v2.3H14.8z"/>
<path d="M21.4,385.8h2.3l1.1,3.4l1.1-3.4h2.3l-1.8,5l1.1,2.9l2.7-7.9h2.7l-4.3,10.8h-2.1l-1.7-4.2l-1.7,4.2H21l-4.3-10.8h2.7
	l2.7,7.9l1.1-2.9L21.4,385.8z"/>
<text transform="matrix(1 0 0 1 -73.4917 368.6462)" class="st0" style="font-family:'RobotoCondensed-Bold'; font-size:9px;">SMALL SCALE VERSION</text>
</svg>
