<?xml version="1.0" encoding="UTF-8" standalone="no"?>
<svg
   xmlns:dc="http://purl.org/dc/elements/1.1/"
   xmlns:cc="http://creativecommons.org/ns#"
   xmlns:rdf="http://www.w3.org/1999/02/22-rdf-syntax-ns#"
   xmlns:svg="http://www.w3.org/2000/svg"
   xmlns="http://www.w3.org/2000/svg"
   xmlns:sodipodi="http://sodipodi.sourceforge.net/DTD/sodipodi-0.dtd"
   xmlns:inkscape="http://www.inkscape.org/namespaces/inkscape"
   width="107.67703mm"
   height="13.946792mm"
   viewBox="0 0 107.67703 13.946792"
   version="1.1"
   id="svg8"
   inkscape:version="1.0.1 (3bc2e813f5, 2020-09-07)"
   sodipodi:docname="me-n-eds-pismo-white.svg">
  <defs
     id="defs2" />
  <sodipodi:namedview
     id="base"
     pagecolor="#ffffff"
     bordercolor="#666666"
     borderopacity="1.0"
     inkscape:pageopacity="0.0"
     inkscape:pageshadow="2"
     inkscape:zoom="1.984815"
     inkscape:cx="323.05733"
     inkscape:cy="-67.199373"
     inkscape:document-units="mm"
     inkscape:current-layer="layer1"
     inkscape:document-rotation="0"
     showgrid="false"
     inkscape:pagecheckerboard="true"
     inkscape:window-width="2560"
     inkscape:window-height="1377"
     inkscape:window-x="1432"
     inkscape:window-y="638"
     inkscape:window-maximized="1" />
  <metadata
     id="metadata5">
    <rdf:RDF>
      <cc:Work
         rdf:about="">
        <dc:format>image/svg+xml</dc:format>
        <dc:type
           rdf:resource="http://purl.org/dc/dcmitype/StillImage" />
        <dc:title></dc:title>
      </cc:Work>
    </rdf:RDF>
  </metadata>
  <g
     inkscape:label="Layer 1"
     inkscape:groupmode="layer"
     id="layer1"
     transform="translate(-53.547124,-40.824513)">
    <g
       id="g437"
       inkscape:export-xdpi="96.839996"
       inkscape:export-ydpi="96.839996">
      <g
         aria-label="Me-n-Eds"
         id="text12"
         style="font-style:normal;font-variant:normal;font-weight:normal;font-stretch:normal;font-size:11.2889px;line-height:1.25;font-family:Morsal;-inkscape-font-specification:'Morsal, Normal';font-variant-ligatures:normal;font-variant-caps:normal;font-variant-numeric:normal;font-variant-east-asian:normal;fill:#ffffff;stroke-width:0.264583">
        <path
           d="m 54.452117,40.957722 q 0.05644,-0.1016 0.146756,-0.124178 0.09031,-0.02258 0.158045,0.01129 0.06773,0.03387 0.1016,0.124178 0.04516,0.07902 0,0.191911 -0.338667,0.575734 -0.496712,1.207912 -0.146755,0.632179 -0.2032,1.298224 -0.04516,0.654756 -0.03387,1.33209 0.02258,0.666045 0.02258,1.309512 0.01129,0.711201 0.02258,1.411113 0.01129,0.699912 0.06773,1.411113 0.02258,0.237066 0.04516,0.474133 0.03387,0.225778 0.06773,0.462845 l 0.383823,-1.524001 0.361245,-1.422402 q 0.1016,-0.372533 0.2032,-0.745067 0.1016,-0.372534 0.225778,-0.733779 0.158045,-0.496711 0.327378,-1.004712 0.180623,-0.508 0.395112,-1.004712 0.225778,-0.508 0.485422,-0.970845 0.270934,-0.474134 0.609601,-0.880535 0.180622,-0.214489 0.395111,-0.383822 0.21449,-0.169334 0.41769,-0.361245 0.06773,-0.05644 0.1016,-0.07902 0.04516,-0.03387 0.135467,-0.05644 0.06773,-0.01129 0.180622,0 0.112889,0 0.214489,0.02258 0.112889,0.02258 0.191912,0.04516 0.09031,0.02258 0.1016,0.02258 0.169333,0.04516 0.248355,0.124178 0.07902,0.07902 0.124178,0.248356 0.04516,0.259645 0.09031,0.51929 0.04516,0.259644 0.06773,0.530578 0.05644,0.428978 0,0.880534 -0.04516,0.440267 -0.09031,0.880534 -0.03387,0.496712 -0.09031,0.982135 -0.05645,0.485422 -0.101601,0.970845 -0.04516,0.485423 -0.05644,0.982134 -0.01129,0.485423 0.04516,0.970846 0.846667,-1.004712 1.546579,-2.032002 0.699912,-1.02729 1.43369,-2.099736 0.327378,-0.485422 0.666045,-1.004712 0.349956,-0.530578 0.790223,-0.92569 0.146756,-0.124178 0.270934,-0.124178 0.135467,0 0.293511,0.101601 0.135467,0.191911 0.169334,0.372533 0.03387,0.180623 0.01129,0.372534 -0.01129,0.191911 -0.07902,0.383823 -0.05644,0.191911 -0.124177,0.395111 -0.05644,0.2032 -0.09031,0.417689 -0.03387,0.214489 -0.06773,0.428979 l -0.270934,1.569157 q -0.1016,0.598311 -0.191911,1.12889 -0.07902,0.519289 -0.158045,1.038579 -0.07902,0.508 -0.158044,1.038578 -0.07902,0.530579 -0.169334,1.140179 -0.124178,0.880535 -0.248355,1.761069 -0.124178,0.880534 -0.158045,1.772357 0.124178,-0.02258 0.2032,0.06773 0.09031,0.1016 0.03387,0.270933 l -0.237067,0.451556 v 0.03387 h -0.02258 l -0.01129,0.03387 q -0.124178,0.124178 -0.270933,0.09031 -0.135467,-0.02258 -0.158045,-0.214489 h -0.03387 l 0.03387,-0.05644 q -0.06773,-1.072445 0.05644,-2.144891 0.124177,-1.072445 0.248355,-2.133602 0.180623,-1.501424 0.372534,-2.968981 0.2032,-1.478846 0.428978,-2.968981 0.02258,-0.2032 0.06773,-0.4064 0.05644,-0.214489 0.112889,-0.417689 l -0.135467,0.191911 q -0.643467,0.936979 -1.253068,1.907824 -0.609601,0.959557 -1.275646,1.885246 -0.259645,0.349956 -0.541867,0.677335 -0.270934,0.316089 -0.553156,0.654756 -0.09031,0.112889 -0.191911,0.158044 -0.09031,0.03387 -0.203201,0.04516 -0.1016,0.01129 -0.225778,0 -0.112889,-0.02258 -0.259644,-0.03387 -0.169334,-0.02258 -0.259645,-0.09031 -0.09031,-0.06773 -0.169334,-0.214489 -0.04516,-0.293511 -0.112889,-0.575734 -0.05644,-0.293511 -0.04516,-0.587023 0.02258,-0.677334 0.1016,-1.399823 0.07902,-0.733779 0.146756,-1.456269 0.06773,-0.733778 0.09031,-1.444979 0.02258,-0.711201 -0.07902,-1.377246 -0.01129,-0.01129 -0.03387,-0.01129 -0.146756,0.135467 -0.316089,0.270934 -0.158045,0.124178 -0.282223,0.282223 -0.541867,0.666045 -0.92569,1.444979 -0.383822,0.778934 -0.677334,1.625601 -0.282222,0.835379 -0.496711,1.693335 -0.21449,0.857957 -0.428979,1.670758 -0.158044,0.6096 -0.327378,1.207912 -0.158044,0.598312 -0.338667,1.207912 -0.03387,0.135467 -0.05644,0.304801 -0.02258,0.158044 -0.112889,0.282222 -0.04516,0.05644 -0.1016,0.09031 -0.04516,0.03387 -0.112889,0.07902 -0.112889,0.02258 -0.180623,0.01129 -0.05644,-0.01129 -0.158044,-0.05644 -0.112889,-0.05644 -0.191912,-0.259645 -0.07902,-0.2032 -0.135466,-0.474133 -0.04516,-0.282223 -0.07902,-0.598312 -0.03387,-0.316089 -0.05644,-0.598312 -0.01129,-0.282222 -0.02258,-0.496711 -0.01129,-0.225778 -0.01129,-0.31609 -0.05644,-0.903112 -0.04516,-1.783646 0.01129,-0.891823 0.02258,-1.783646 0.01129,-0.598312 0.02258,-1.196624 0.02258,-0.6096 0.1016,-1.196623 0.09031,-0.587023 0.259645,-1.151468 0.169333,-0.564445 0.496711,-1.083734 z"
           id="path393" />
        <path
           d="m 68.676128,47.922973 q -0.553156,0.496712 -1.253068,0.903112 -0.688623,0.395112 -1.444979,0.508001 -0.09031,0.225778 -0.158045,0.451556 -0.05644,0.225778 -0.06773,0.440267 0,0.2032 0.05644,0.383823 0.06773,0.180622 0.225778,0.316089 0.146755,0.135467 0.248355,0.237067 0.1016,0.09031 0.203201,0.158044 0.1016,0.06773 0.225778,0.1016 0.124177,0.02258 0.327378,0.02258 0.316089,0 0.643467,-0.09031 0.417689,-0.124178 0.801512,-0.327378 0.395111,-0.214489 0.745067,-0.462845 0.508001,-0.349956 0.891823,-0.767645 0.383823,-0.41769 0.733779,-0.914401 0.07902,-0.06773 0.158045,-0.06773 0.09031,0 0.146755,0.04516 0.05645,0.04516 0.07902,0.124178 0.02258,0.06773 -0.01129,0.169333 -0.338667,0.553156 -0.733779,1.02729 -0.383822,0.462845 -0.891823,0.880535 -0.169333,0.135466 -0.383823,0.293511 -0.214489,0.158045 -0.462844,0.3048 -0.237067,0.146756 -0.485423,0.259645 -0.237067,0.112889 -0.451556,0.158045 -0.191912,0.03387 -0.440267,0.1016 -0.237067,0.07902 -0.462845,0.04516 -0.214489,-0.04516 -0.440267,-0.05644 -0.214489,-0.01129 -0.395112,-0.135467 -0.180622,-0.146756 -0.361245,-0.270934 -0.180622,-0.135466 -0.327378,-0.316089 -0.327378,-0.4064 -0.417689,-0.846667 -0.1016,-0.440268 -0.03387,-0.880535 0.06773,-0.451556 0.282223,-0.891823 0.2032,-0.440267 0.485422,-0.835378 0.282223,-0.406401 0.598312,-0.756357 0.316089,-0.349956 0.62089,-0.632178 0.180622,-0.169334 0.474133,-0.338667 0.293512,-0.169334 0.609601,-0.259645 0.327378,-0.09031 0.643467,-0.05644 0.31609,0.03387 0.541868,0.259644 0.214489,0.214489 0.225778,0.462845 0.01129,0.237067 -0.1016,0.462845 -0.112889,0.225778 -0.293512,0.440267 -0.180622,0.203201 -0.349956,0.349956 z m -1.693335,-0.214489 q -0.124178,0.135467 -0.327378,0.417689 -0.191911,0.270934 -0.383823,0.609601 0.338667,-0.124178 0.677334,-0.316089 0.338667,-0.191911 0.643468,-0.417689 0.3048,-0.237067 0.553156,-0.485423 0.248356,-0.259645 0.4064,-0.51929 0.05644,-0.1016 0.09031,-0.191911 -0.259645,-0.06773 -0.496712,0 -0.225778,0.06773 -0.428978,0.214489 -0.203201,0.135467 -0.395112,0.327378 -0.180622,0.180623 -0.338667,0.361245 z"
           id="path395" />
        <path
           d="m 72.435314,48.78093 q -0.112889,-0.01129 -0.169334,-0.07902 -0.05644,-0.06773 -0.05644,-0.146755 0.01129,-0.07902 0.06773,-0.146756 0.06773,-0.06773 0.180623,-0.06773 0.508,-0.101601 0.948267,-0.158045 0.451556,-0.05644 0.880534,-0.06773 0.428979,-0.02258 0.869246,0.01129 0.451556,0.02258 0.970845,0.112889 0.1016,0.02258 0.146756,0.09031 0.04516,0.05644 0.04516,0.135466 0,0.06773 -0.05644,0.135467 -0.05644,0.06773 -0.158045,0.07902 -0.508,0.1016 -0.959556,0.158044 -0.440267,0.05645 -0.869245,0.07902 -0.428979,0.01129 -0.880535,-0.01129 -0.440267,-0.03387 -0.959556,-0.124178 z"
           id="path397" />
        <path
           d="m 78.520018,47.527862 q 0.135466,-0.259645 0.293511,-0.485423 0.158045,-0.237067 0.282223,-0.496712 0,-0.1016 0.1016,-0.191911 0.01129,0 0.01129,0 0.01129,-0.01129 0.02258,-0.01129 0.180623,-0.05644 0.270934,0.03387 0.1016,0.09031 0.04516,0.282222 -0.135467,0.31609 -0.327379,0.62089 -0.180622,0.293511 -0.293511,0.620889 -0.496712,1.535291 -0.767645,3.093159 0.440267,-0.553156 0.857956,-1.106312 0.428978,-0.553156 0.846668,-1.117601 0.282222,-0.383823 0.530578,-0.733779 0.259645,-0.361245 0.51929,-0.677334 0.270933,-0.316089 0.587022,-0.587023 0.31609,-0.282222 0.72249,-0.508 0.248356,-0.09031 0.428978,-0.01129 0.180623,0.07902 0.248356,0.338667 0.03387,0.180622 0.1016,0.361245 0.06773,0.180622 0.01129,0.361245 -0.112889,0.428978 -0.395112,1.02729 -0.282222,0.587022 -0.553156,1.196623 -0.270933,0.609601 -0.451556,1.162757 -0.169333,0.553156 -0.06773,0.92569 0.225778,0.04516 0.428978,0.01129 0.214489,-0.03387 0.406401,-0.1016 0.2032,-0.07902 0.395111,-0.180622 0.191911,-0.1016 0.383823,-0.2032 0.417689,-0.214489 0.835378,-0.496712 0.41769,-0.282222 0.82409,-0.598312 0.4064,-0.327378 0.790223,-0.654756 0.383823,-0.338667 0.72249,-0.666045 0.09031,-0.06773 0.180622,-0.05644 0.09031,0 0.146756,0.05644 0.05644,0.05645 0.05644,0.146756 0.01129,0.09031 -0.05644,0.180622 -0.711201,0.711201 -1.535291,1.444979 -0.8128,0.72249 -1.670757,1.230491 -0.180622,0.1016 -0.372534,0.225778 -0.191911,0.112889 -0.395111,0.214489 -0.191911,0.1016 -0.395112,0.169333 -0.2032,0.06773 -0.417689,0.07902 -0.180622,0.01129 -0.361245,-0.04516 -0.180622,-0.04516 -0.372533,-0.06773 -0.158045,-0.09031 -0.248356,-0.248355 -0.01129,-0.03387 -0.04516,-0.112889 -0.02258,-0.07902 -0.05644,-0.180623 -0.03387,-0.1016 -0.06773,-0.2032 -0.02258,-0.1016 -0.02258,-0.180622 0.02258,-0.51929 0.180623,-1.016001 0.158044,-0.496712 0.361245,-0.970846 0.214489,-0.485423 0.428978,-0.948267 0.214489,-0.474134 0.372534,-0.959557 -0.508001,0.541867 -0.970846,1.140179 -0.451556,0.587023 -0.914401,1.185334 -0.462845,0.587023 -0.959556,1.151468 -0.485423,0.564445 -1.061157,1.038579 -0.191911,0.112889 -0.338667,0.06773 -0.158045,-0.05645 -0.259645,-0.248356 -0.01129,-0.01129 -0.03387,-0.06773 -0.02258,-0.05644 -0.04516,-0.124178 -0.03387,-0.07902 -0.04516,-0.146755 -0.02258,-0.06773 -0.02258,-0.124178 0.04516,-0.383823 0.169333,-0.903112 0.112889,-0.530579 0.270934,-1.061157 0.146755,-0.541867 0.327378,-1.038579 0.180622,-0.496711 0.361245,-0.835378 z"
           id="path399" />
        <path
           d="m 87.980095,48.78093 q -0.112889,-0.01129 -0.169334,-0.07902 -0.05644,-0.06773 -0.05644,-0.146755 0.01129,-0.07902 0.06773,-0.146756 0.06773,-0.06773 0.180622,-0.06773 0.508001,-0.101601 0.948268,-0.158045 0.451556,-0.05644 0.880534,-0.06773 0.428978,-0.02258 0.869245,0.01129 0.451557,0.02258 0.970846,0.112889 0.1016,0.02258 0.146756,0.09031 0.04516,0.05644 0.04516,0.135466 0,0.06773 -0.05644,0.135467 -0.05645,0.06773 -0.158045,0.07902 -0.508,0.1016 -0.959556,0.158044 -0.440268,0.05645 -0.869246,0.07902 -0.428978,0.01129 -0.880534,-0.01129 -0.440267,-0.03387 -0.959556,-0.124178 z"
           id="path401" />
        <path
           d="m 101.38001,41.431855 q 0.0677,0.101601 0.0564,0.191912 -0.0113,0.07902 -0.079,0.135467 -0.0564,0.04516 -0.15804,0.04516 -0.0903,0 -0.16934,-0.07902 l -0.13546,-0.146756 q -0.19191,0.04516 -0.38383,0.07902 -0.19191,0.03387 -0.38382,0.112889 -0.349954,0.135466 -0.767644,0.327378 -0.417689,0.191911 -0.869245,0.440267 -0.451556,0.248356 -0.903112,0.541867 -0.440267,0.282222 -0.835379,0.609601 -0.383822,0.316089 -0.688622,0.654756 -0.304801,0.338667 -0.474134,0.688623 -0.05644,0.124178 -0.03387,0.270933 0.03387,0.146756 0.02258,0.282223 l 0.778934,0.519289 q 0.1016,0.05644 0.293511,0.1016 0.191912,0.03387 0.41769,0.07902 0.237067,0.03387 0.451556,0.07902 0.225778,0.04516 0.383822,0.124178 0.349956,0.169333 0.474134,0.395111 0.135467,0.225778 0.09031,0.474134 -0.03387,0.237067 -0.214489,0.474134 -0.169333,0.225778 -0.417689,0.417689 l -1.219201,0.948268 q -0.225778,0.180622 -0.451556,0.349956 -0.214489,0.169333 -0.440267,0.361245 -0.282223,0.237067 -0.587023,0.496711 -0.293512,0.259645 -0.575734,0.541868 -0.282223,0.282222 -0.51929,0.598311 -0.237067,0.304801 -0.4064,0.654756 -0.2032,0.41769 -0.06773,0.643468 0.135466,0.237067 0.428978,0.338667 0.293511,0.112889 0.654756,0.112889 0.361245,0.01129 0.598312,-0.02258 0.654756,-0.09031 1.286934,-0.316089 0.632179,-0.214489 1.230491,-0.508001 0.6096,-0.293511 1.185334,-0.632178 0.587023,-0.349956 1.128894,-0.699912 0.1016,-0.03387 0.16933,-0.01129 0.079,0.02258 0.12418,0.07902 0.0452,0.05644 0.0452,0.146756 0,0.07902 -0.0677,0.158045 -0.372534,0.259644 -0.745068,0.508 -0.372533,0.237067 -0.767645,0.474134 -0.541867,0.338667 -1.12889,0.632178 -0.417689,0.203201 -0.869245,0.395112 -0.451556,0.2032 -0.92569,0.338667 -0.462845,0.135467 -0.948268,0.180622 -0.474134,0.05644 -0.948267,-0.02258 -0.21449,-0.03387 -0.451556,-0.146756 -0.225778,-0.112889 -0.41769,-0.282223 -0.191911,-0.169333 -0.316089,-0.383822 -0.124178,-0.214489 -0.112889,-0.451556 0.02258,-0.225778 0.06773,-0.440267 0.03387,-0.203201 0.09031,-0.41769 0.09031,-0.361244 0.485422,-0.835378 0.383823,-0.485423 0.880535,-0.970846 0.508,-0.485422 1.004712,-0.903112 0.508,-0.428978 0.835378,-0.688623 0.349956,-0.270933 0.677334,-0.564445 0.327379,-0.3048 0.711201,-0.496711 0.04516,-0.03387 0.06773,-0.05645 0.02258,-0.03387 0.04515,-0.05644 -0.07902,-0.09031 -0.214489,-0.146756 -0.135467,-0.05644 -0.293511,-0.09031 -0.158045,-0.03387 -0.31609,-0.04516 -0.158044,-0.02258 -0.259644,-0.04516 -0.474134,-0.09031 -0.914401,-0.31609 -0.440267,-0.237067 -0.733779,-0.632178 -0.06773,-0.112889 -0.06773,-0.248356 0.01129,-0.338667 0.01129,-0.541867 0.01129,-0.2032 0.03387,-0.338667 0.02258,-0.146756 0.06773,-0.248356 0.05644,-0.1016 0.158044,-0.214489 0.101601,-0.124178 0.259645,-0.293511 0.158045,-0.180623 0.406401,-0.474134 0.282222,-0.327378 0.643467,-0.553156 0.361245,-0.237067 0.72249,-0.462845 0.9144,-0.575734 1.851379,-0.959557 0.936979,-0.395111 1.975553,-0.598312 0.12418,-0.01129 0.21449,0.05645 0.0677,0.06773 0.12418,0.146756 0.0677,0.06773 0.12418,0.135466 z m -3.747915,5.791206 v 0.01129 z m -0.03387,0.169334 v -0.01129 z"
           id="path403" />
        <path
           d="m 104.58605,46.297372 q 0.19191,0.03387 0.36125,0.135466 0.16933,0.09031 0.33866,0.180623 0.15805,-0.474134 0.36125,-0.936979 0.2032,-0.474134 0.508,-1.083734 0.1016,-0.203201 0.28222,-0.474134 0.18063,-0.270934 0.4064,-0.51929 0.22578,-0.259644 0.48543,-0.451556 0.25964,-0.2032 0.51929,-0.259644 0.19191,-0.04516 0.39511,0 0.2032,0.04516 0.39511,0.07902 0.16933,0.04516 0.24835,0.124178 0.079,0.07902 0.12418,0.248356 0.0339,0.191911 0.0903,0.383822 0.0565,0.180623 0,0.372534 -0.11289,0.440267 -0.21449,0.801512 -0.1016,0.349956 -0.22577,0.688623 -0.11289,0.327378 -0.27094,0.677334 -0.15804,0.349956 -0.37253,0.778934 -0.29351,0.564445 -0.51929,0.959557 -0.22578,0.395111 -0.46285,0.745067 -0.23706,0.349956 -0.51928,0.72249 -0.27094,0.372533 -0.65476,0.880534 -0.0452,0.05644 -0.079,0.1016 -0.0339,0.04516 -0.0677,0.1016 0,0.02258 0.0226,0.04516 0.21449,0.4064 0.57573,0.508 0.36125,0.09031 0.74507,0 0.39511,-0.1016 0.75636,-0.316089 0.37253,-0.225778 0.6096,-0.440267 0.12418,-0.124178 0.21449,-0.214489 0.0903,-0.09031 0.15804,-0.180623 0.0677,-0.1016 0.12418,-0.2032 0.0564,-0.1016 0.11289,-0.259645 0.0226,-0.05644 0.0903,-0.191911 0.079,-0.146756 0.13547,-0.225778 -0.0226,-0.124178 0.1016,-0.225778 l 0.0451,-0.02258 q 0.27094,-0.09031 0.33867,0.169334 0,0.169333 -0.0903,0.3048 -0.079,0.124178 -0.14676,0.282223 -0.0677,0.146755 -0.11289,0.3048 -0.0339,0.146756 -0.12417,0.293511 -0.19191,0.293512 -0.56445,0.609601 -0.36124,0.3048 -0.80151,0.541867 -0.44027,0.237067 -0.90311,0.361245 -0.46285,0.112889 -0.83538,0.03387 -0.29351,-0.06773 -0.508,-0.248356 -0.2032,-0.180623 -0.36125,-0.428978 -0.2032,0.225778 -0.42897,0.417689 -0.22578,0.180622 -0.48543,0.316089 -0.32738,0.180623 -0.64346,0.349956 -0.31609,0.180622 -0.64347,0.349956 -0.27094,0.146756 -0.63218,0.112889 -0.36124,-0.02258 -0.69991,-0.169334 -0.33867,-0.146755 -0.59831,-0.395111 -0.27094,-0.248356 -0.36125,-0.541867 -0.079,-0.248356 -0.0677,-0.508001 0,-0.270933 -0.0226,-0.530578 -0.0113,-0.282223 0.0903,-0.575734 0.1016,-0.3048 0.25965,-0.598312 0.15804,-0.3048 0.33866,-0.575734 0.16934,-0.270933 0.29351,-0.485422 0.16934,-0.293512 0.49672,-0.654757 0.32737,-0.361244 0.72249,-0.654756 0.4064,-0.3048 0.83537,-0.485423 0.44027,-0.180622 0.83538,-0.124177 z m 0.22578,2.25778 q 0.0903,-0.440267 0.15805,-0.801512 0.079,-0.372534 0.16933,-0.699912 -0.14676,-0.09031 -0.29351,-0.169334 -0.14676,-0.07902 -0.3048,-0.09031 -0.34996,-0.03387 -0.7112,0.146756 -0.36125,0.180622 -0.69992,0.485423 -0.33866,0.3048 -0.64346,0.7112 -0.29351,0.406401 -0.51929,0.82409 -0.22578,0.417689 -0.37254,0.82409 -0.14675,0.395111 -0.18062,0.688623 -0.0339,0.327378 0.0564,0.598311 0.0903,0.270934 0.28222,0.451556 0.19191,0.180623 0.47413,0.248356 0.28223,0.05644 0.63218,-0.04516 0.31609,-0.09031 0.59831,-0.259645 0.28223,-0.180622 0.54187,-0.383823 0.24836,-0.2032 0.46285,-0.417689 0.22577,-0.225778 0.44026,-0.462845 -0.0226,-0.05644 -0.0452,-0.112889 -0.0113,-0.05644 -0.0339,-0.112889 -0.12418,-0.327378 -0.1016,-0.699912 0.0339,-0.372533 0.0903,-0.722489 z m 2.06587,-3.612448 q -0.24836,0.417689 -0.51929,0.970845 -0.27093,0.541867 -0.48542,1.151468 -0.2032,0.6096 -0.32738,1.253068 -0.12418,0.632178 -0.0903,1.207912 0.508,-0.677334 0.94827,-1.422401 0.45155,-0.745068 0.8128,-1.456269 0.11289,-0.214489 0.29351,-0.587022 0.19191,-0.372534 0.36124,-0.778934 0.16934,-0.41769 0.28223,-0.82409 0.11288,-0.406401 0.0677,-0.699912 -0.22578,-0.02258 -0.42898,0.112889 -0.2032,0.124178 -0.38382,0.316089 -0.16934,0.191911 -0.31609,0.406401 -0.13547,0.214489 -0.21449,0.349956 z"
           id="path405" />
        <path
           d="m 111.86738,45.755504 q 0.11289,0 0.18062,0.06773 0.0677,0.05644 0.0677,0.135467 0.0113,0.07902 -0.0451,0.158044 -0.0452,0.06773 -0.15805,0.07902 -0.36124,0.03387 -0.66604,0.124178 -0.3048,0.07902 -0.59831,0.259645 -0.0564,0.07902 -0.11289,0.124178 -0.0452,0.03387 -0.0903,0.05644 -0.0452,0.02258 -0.0903,0.06773 -0.0452,0.03387 -0.1016,0.112889 -0.16934,0.270933 -0.31609,0.587023 -0.13547,0.3048 -0.19192,0.632178 -0.0564,0.316089 0,0.632179 0.0564,0.3048 0.27094,0.564445 0.16933,0.191911 0.55315,0.519289 0.38383,0.327378 0.74507,0.72249 0.36125,0.383822 0.55316,0.801512 0.2032,0.4064 0,0.778934 -0.24836,0.440267 -0.55316,0.756356 -0.3048,0.327378 -0.66604,0.541867 -0.36125,0.225778 -0.79023,0.361245 -0.41769,0.146756 -0.90311,0.237067 -0.32738,0.05644 -0.65475,0.05644 -0.33867,0 -0.56445,-0.112889 -0.23707,-0.112889 -0.31609,-0.361244 -0.079,-0.237067 0.1016,-0.666046 0.0564,-0.1016 0.14676,-0.124177 0.0903,-0.02258 0.15804,0.01129 0.0677,0.03387 0.11289,0.112889 0.0339,0.09031 -0.0113,0.203201 -0.0451,0.135466 -0.0677,0.293511 0.079,0.07902 0.25964,0.07902 0.18063,0 0.38383,-0.03387 0.19191,-0.03387 0.37253,-0.09031 0.16933,-0.05644 0.25964,-0.07902 l 0.16934,-0.06773 h 0.0113 q 0.21449,-0.124178 0.48542,-0.248356 0.28222,-0.124178 0.53058,-0.282223 0.25964,-0.158044 0.45155,-0.361244 0.2032,-0.203201 0.25965,-0.496712 0.0339,-0.191911 -0.18062,-0.474134 -0.2032,-0.282222 -0.49672,-0.564445 -0.29351,-0.293511 -0.58702,-0.553156 -0.28222,-0.270934 -0.4064,-0.440267 -0.3048,-0.4064 -0.39511,-0.891823 -0.079,-0.485423 0.0113,-0.959557 0.0903,-0.485422 0.33867,-0.92569 0.25964,-0.451556 0.64346,-0.767645 0.37254,-0.327378 0.84667,-0.462845 0.25964,-0.09031 0.51929,-0.1016 0.25964,-0.01129 0.53058,-0.01129 z"
           id="path407" />
      </g>
      <g
         aria-label="PISMO"
         id="text16"
         style="font-style:normal;font-variant:normal;font-weight:normal;font-stretch:normal;font-size:12.7px;line-height:1.25;font-family:'Wardrum Pro';-inkscape-font-specification:'Wardrum Pro, Normal';font-variant-ligatures:normal;font-variant-caps:normal;font-variant-numeric:normal;font-variant-east-asian:normal;font-feature-settings:&quot;salt&quot;, &quot;swsh&quot;;fill:#ffffff;stroke-width:0.264583">
        <path
           d="m 122.97179,49.441358 c 1.7399,0 3.1496,-1.4097 3.1496,-3.149599 0,-1.7526 -1.4224,-3.175 -3.175,-3.175 h -4.9149 v 9.296399 h 1.3843 v -2.9718 z m -3.556,-1.4097 v -3.505199 h 3.5306 c 0.9779,0 1.7653,0.7874 1.7653,1.7653 0,0.965199 -0.7747,1.739899 -1.7399,1.739899 z"
           id="path410" />
        <path
           d="m 128.62329,43.116759 h -1.3843 v 9.296399 h 1.3843 z"
           id="path412" />
        <path
           d="m 134.30017,52.527458 c 3.2004,0 4.3307,-1.4351 4.3307,-2.7813 0,-4.000499 -7.3279,-1.6129 -7.3279,-4.102099 0,-0.508 0.7874,-1.2573 2.9718,-1.2573 1.6129,0 2.7305,0.7493 3.0353,0.9779 l 0.8382,-1.1049 c -1.0541,-0.7747 -2.5019,-1.2446 -3.8735,-1.2446 -3.2131,0 -4.3561,1.4097 -4.3561,2.6289 0,4.038599 7.3406,1.828799 7.3406,4.102099 0,0.8636 -1.143,1.397 -2.9591,1.397 -2.1082,0 -3.8354,-1.0287 -3.8481,-1.0414 l -0.7239,1.1811 c 0.0762,0.0508 2.0574,1.2446 4.572,1.2446 z"
           id="path414" />
        <path
           d="m 141.98367,45.898059 2.4003,6.515099 h 1.3843 l 2.4003,-6.527799 0.8382,6.527799 h 1.3716 l -1.1938,-9.296399 h -1.3716 l -2.7432,7.416799 -2.7305,-7.416799 h -1.3843 l -1.1938,9.296399 h 1.3843 z"
           id="path416" />
        <path
           d="m 156.36006,52.502058 c 2.6162,0 4.8641,-2.1209 4.8641,-4.7371 0,-2.616199 -2.2479,-4.749799 -4.8641,-4.749799 -2.6162,0 -4.8641,2.1336 -4.8641,4.749799 0,2.6162 2.2479,4.7371 4.8641,4.7371 z m 0,-8.102599 c 1.8542,0 3.4798,1.5113 3.4798,3.365499 0,1.8542 -1.6256,3.3528 -3.4798,3.3528 -1.8542,0 -3.4798,-1.4986 -3.4798,-3.3528 0,-1.854199 1.6256,-3.365499 3.4798,-3.365499 z"
           id="path418" />
      </g>
      <path
         style="fill:#ffffff;stroke:#ffffff;stroke-width:0.264583px;stroke-linecap:butt;stroke-linejoin:miter;stroke-opacity:1"
         d="m 115.32017,42.634794 v 10.634146 0"
         id="path26" />
    </g>
  </g>
</svg>
