<?xml version="1.0" encoding="UTF-8" standalone="no"?>
<svg
   xmlns:dc="http://purl.org/dc/elements/1.1/"
   xmlns:cc="http://creativecommons.org/ns#"
   xmlns:rdf="http://www.w3.org/1999/02/22-rdf-syntax-ns#"
   xmlns:svg="http://www.w3.org/2000/svg"
   xmlns="http://www.w3.org/2000/svg"
   xmlns:sodipodi="http://sodipodi.sourceforge.net/DTD/sodipodi-0.dtd"
   xmlns:inkscape="http://www.inkscape.org/namespaces/inkscape"
   width="228.22012mm"
   height="17.678185mm"
   viewBox="0 0 228.22012 17.678185"
   version="1.1"
   id="svg8"
   inkscape:version="1.0.1 (3bc2e813f5, 2020-09-07)"
   sodipodi:docname="me-n-eds-central-coast-white.svg">
  <defs
     id="defs2">
    <filter
       style="color-interpolation-filters:sRGB"
       inkscape:label="Drop Shadow"
       id="filter40">
      <feFlood
         flood-opacity="0.498039"
         flood-color="rgb(0,0,0)"
         result="flood"
         id="feFlood30" />
      <feComposite
         in="flood"
         in2="SourceGraphic"
         operator="out"
         result="composite1"
         id="feComposite32" />
      <feGaussianBlur
         in="composite1"
         stdDeviation="3"
         result="blur"
         id="feGaussianBlur34" />
      <feOffset
         dx="5"
         dy="5"
         result="offset"
         id="feOffset36" />
      <feComposite
         in="offset"
         in2="SourceGraphic"
         operator="atop"
         result="composite2"
         id="feComposite38" />
    </filter>
    <filter
       style="color-interpolation-filters:sRGB"
       inkscape:label="Drop Shadow"
       id="filter52">
      <feFlood
         flood-opacity="0.498039"
         flood-color="rgb(0,0,0)"
         result="flood"
         id="feFlood42" />
      <feComposite
         in="flood"
         in2="SourceGraphic"
         operator="out"
         result="composite1"
         id="feComposite44" />
      <feGaussianBlur
         in="composite1"
         stdDeviation="3"
         result="blur"
         id="feGaussianBlur46" />
      <feOffset
         dx="5"
         dy="5"
         result="offset"
         id="feOffset48" />
      <feComposite
         in="offset"
         in2="SourceGraphic"
         operator="atop"
         result="composite2"
         id="feComposite50" />
    </filter>
  </defs>
  <sodipodi:namedview
     id="base"
     pagecolor="#ffffff"
     bordercolor="#666666"
     borderopacity="1.0"
     inkscape:pageopacity="0.0"
     inkscape:pageshadow="2"
     inkscape:zoom="1.1816423"
     inkscape:cx="105.946"
     inkscape:cy="185.59582"
     inkscape:document-units="mm"
     inkscape:current-layer="layer1"
     inkscape:document-rotation="0"
     showgrid="false"
     inkscape:pagecheckerboard="true"
     inkscape:window-width="2560"
     inkscape:window-height="1377"
     inkscape:window-x="1432"
     inkscape:window-y="638"
     inkscape:window-maximized="1" />
  <metadata
     id="metadata5">
    <rdf:RDF>
      <cc:Work
         rdf:about="">
        <dc:format>image/svg+xml</dc:format>
        <dc:type
           rdf:resource="http://purl.org/dc/dcmitype/StillImage" />
        <dc:title />
      </cc:Work>
    </rdf:RDF>
  </metadata>
  <g
     inkscape:label="Layer 1"
     inkscape:groupmode="layer"
     id="layer1"
     transform="translate(2.6792332,-25.812564)">
    <g
       id="g173"
       inkscape:export-xdpi="96.839996"
       inkscape:export-ydpi="96.839996">
      <g
         aria-label="Me-N-Ed's"
         id="text12"
         style="font-style:normal;font-variant:normal;font-weight:normal;font-stretch:normal;font-size:14.1111px;line-height:1.25;font-family:Morsal;-inkscape-font-specification:'Morsal, Normal';font-variant-ligatures:normal;font-variant-caps:normal;font-variant-numeric:normal;font-variant-east-asian:normal;fill:#ffffff;stroke-width:0.264583">
        <path
           d="m -1.5479933,26.223802 q 0.070556,-0.127 0.1834443,-0.155222 0.1128888,-0.02822 0.1975554,0.01411 0.084667,0.04233 0.1269999,0.155222 0.0564444,0.09878 0,0.239889 -0.423333,0.719666 -0.6208884,1.509887 -0.1834443,0.790222 -0.2539998,1.622777 -0.056444,0.818444 -0.042333,1.66511 0.028222,0.832555 0.028222,1.636887 0.014111,0.889 0.028222,1.763888 0.014111,0.874888 0.084667,1.763887 0.028222,0.296333 0.056444,0.592667 0.042333,0.282222 0.084667,0.578555 l 0.4797774,-1.904999 0.45155523,-1.777999 q 0.1269999,-0.465666 0.2539998,-0.931332 0.1269999,-0.465666 0.282222,-0.917222 0.19755541,-0.620888 0.40922191,-1.255888 0.2257776,-0.634999 0.49388851,-1.255887 0.282222,-0.635 0.60677735,-1.213555 0.3386664,-0.592666 0.7619994,-1.100666 0.2257776,-0.268111 0.4938885,-0.479777 0.2681109,-0.211667 0.5221107,-0.451556 0.084667,-0.07056 0.1269999,-0.09878 0.056444,-0.04233 0.1693332,-0.07056 0.084667,-0.01411 0.2257776,0 0.141111,0 0.2681109,0.02822 0.141111,0.02822 0.2398887,0.05645 0.1128888,0.02822 0.1269999,0.02822 0.2116665,0.05644 0.3104442,0.155222 0.098778,0.09878 0.1552221,0.310444 0.056444,0.324556 0.1128888,0.649111 0.056444,0.324555 0.084667,0.663222 0.070556,0.536222 0,1.100666 -0.056444,0.550332 -0.1128888,1.100665 -0.042333,0.620889 -0.1128888,1.227666 -0.070556,0.606777 -0.1269999,1.213555 -0.056444,0.606777 -0.070556,1.227665 -0.014111,0.606778 0.056444,1.213555 1.0583325,-1.255888 1.9332207,-2.539998 0.8748882,-1.28411 1.7921098,-2.624665 0.4092219,-0.606777 0.8325549,-1.255888 0.4374441,-0.663221 0.9877767,-1.15711 0.183445,-0.155222 0.338667,-0.155222 0.169333,0 0.366888,0.127 0.169333,0.239889 0.211667,0.465666 0.04233,0.225778 0.01411,0.465667 -0.01411,0.239888 -0.09878,0.479777 -0.07056,0.239889 -0.155222,0.493889 -0.07056,0.253999 -0.112889,0.52211 -0.04233,0.268111 -0.08467,0.536222 l -0.338667,1.961443 q -0.127,0.747888 -0.2398884,1.41111 -0.098778,0.649111 -0.1975554,1.298221 -0.098778,0.635 -0.1975554,1.298221 -0.098778,0.663222 -0.2116665,1.425222 -0.1552221,1.100665 -0.3104442,2.201331 -0.1552221,1.100666 -0.1975554,2.215443 0.1552221,-0.02822 0.2539998,0.08467 0.1128888,0.126999 0.042333,0.338666 l -0.2963331,0.564444 v 0.04233 h -0.028222 l -0.014111,0.04233 Q 8.6684433,43.524011 8.484999,43.481677 8.3156658,43.453455 8.2874436,43.213566 h -0.042333 l 0.042333,-0.07055 q -0.084667,-1.340555 0.070556,-2.681109 0.1552221,-1.340555 0.3104442,-2.666998 0.2257776,-1.876776 0.4656663,-3.711219 0.2539998,-1.848555 0.5362218,-3.71122 0.028222,-0.254 0.084667,-0.507999 0.070555,-0.268111 0.141111,-0.522111 L 9.7267758,29.582244 Q 8.9224431,30.753465 8.1604437,31.96702 7.3984442,33.166463 6.5658893,34.323573 6.241334,34.761017 5.8885565,35.170239 5.5498901,35.56535 5.1971126,35.988683 q -0.1128888,0.141111 -0.2398887,0.197556 -0.1128888,0.04233 -0.2539998,0.05644 -0.1269999,0.01411 -0.282222,0 Q 4.2798911,36.214461 4.0964468,36.20035 3.8847803,36.172127 3.7718915,36.087461 3.6590027,36.002794 3.560225,35.81935 3.5037806,35.452461 3.419114,35.099684 q -0.070555,-0.366889 -0.056444,-0.733777 0.028222,-0.846666 0.1269999,-1.749777 0.098778,-0.917221 0.1834443,-1.820332 0.084667,-0.917221 0.1128888,-1.806221 0.028222,-0.888999 -0.098778,-1.721554 -0.014111,-0.01411 -0.042333,-0.01411 -0.1834443,0.169333 -0.3951108,0.338666 -0.1975554,0.155223 -0.3527775,0.352778 -0.6773328,0.832555 -1.1571102,1.806221 -0.4797774,0.973666 -0.84666605,2.031998 -0.35277751,1.044222 -0.62088841,2.116665 -0.2681109,1.072444 -0.53622181,2.088443 -0.1975554,0.762 -0.4092219,1.509888 -0.19755541,0.747888 -0.42333303,1.509888 -0.042333,0.169333 -0.070556,0.380999 -0.028222,0.197556 -0.141111,0.352778 -0.056444,0.07055 -0.1269999,0.112889 -0.056444,0.04233 -0.141111,0.09878 -0.141111,0.02822 -0.2257776,0.01411 -0.070556,-0.01411 -0.1975554,-0.07055 -0.141111,-0.07056 -0.2398887,-0.324555 -0.098778,-0.254 -0.1693332,-0.592667 -0.056444,-0.352777 -0.098778,-0.747888 -0.042333,-0.395111 -0.070555,-0.747888 -0.014111,-0.352778 -0.028222,-0.620889 -0.014111,-0.282222 -0.014111,-0.39511 -0.070555,-1.128888 -0.056444,-2.229554 0.014111,-1.114777 0.028222,-2.229554 0.014111,-0.747888 0.028222,-1.495777 0.028222,-0.761999 0.1269999,-1.495776 0.1128888,-0.733778 0.3245553,-1.439333 0.2116665,-0.705555 0.6208884,-1.354665 z"
           id="path91" />
        <path
           d="m 16.231989,34.930351 q -0.691444,0.620888 -1.566332,1.128888 -0.860777,0.493888 -1.806221,0.634999 -0.112889,0.282222 -0.197555,0.564444 -0.07056,0.282222 -0.08467,0.550333 0,0.254 0.07056,0.479777 0.08467,0.225778 0.282222,0.395111 0.183445,0.169333 0.310445,0.296333 0.127,0.112889 0.253999,0.197556 0.127,0.08467 0.282222,0.127 0.155223,0.02822 0.409222,0.02822 0.395111,0 0.804333,-0.112889 0.522111,-0.155222 1.001888,-0.409222 0.493889,-0.268111 0.931333,-0.578555 0.634999,-0.437444 1.114777,-0.959555 0.479777,-0.52211 0.917221,-1.142999 0.09878,-0.08467 0.197556,-0.08467 0.112888,0 0.183444,0.05644 0.07055,0.05644 0.09878,0.155222 0.02822,0.08467 -0.01411,0.211667 -0.423333,0.691443 -0.917222,1.28411 -0.479777,0.578555 -1.114777,1.100665 -0.211666,0.169334 -0.479777,0.366889 -0.268111,0.197555 -0.578555,0.381 -0.296334,0.183444 -0.606778,0.324555 -0.296333,0.141111 -0.564444,0.197555 -0.239888,0.04233 -0.550333,0.127 -0.296333,0.09878 -0.578555,0.05644 -0.268111,-0.05644 -0.550333,-0.07056 -0.268111,-0.01411 -0.493888,-0.169333 -0.225778,-0.183444 -0.451555,-0.338666 -0.225778,-0.169334 -0.409222,-0.395111 -0.409222,-0.508 -0.522111,-1.058333 -0.127,-0.550333 -0.04233,-1.100665 0.08467,-0.564444 0.352777,-1.114777 0.254,-0.550333 0.606778,-1.044222 0.352777,-0.507999 0.747888,-0.945444 0.395111,-0.437444 0.77611,-0.790221 0.225778,-0.211667 0.592667,-0.423333 0.366888,-0.211667 0.761999,-0.324555 0.409222,-0.112889 0.804333,-0.07056 0.39511,0.04233 0.677332,0.324555 0.268111,0.268111 0.282223,0.578555 0.01411,0.296334 -0.127,0.578556 -0.141111,0.282222 -0.366889,0.550332 -0.225778,0.254 -0.437444,0.437445 z M 14.115324,34.66224 q -0.155222,0.169333 -0.409222,0.52211 -0.239889,0.338667 -0.479777,0.762 0.423333,-0.155222 0.846666,-0.395111 0.423333,-0.239889 0.804332,-0.522111 0.381,-0.296333 0.691444,-0.606777 0.310444,-0.324555 0.508,-0.649111 0.07055,-0.127 0.112889,-0.239888 -0.324556,-0.08467 -0.620889,0 -0.282222,0.08467 -0.536222,0.268111 -0.253999,0.169333 -0.493888,0.409221 -0.225778,0.225778 -0.423333,0.451556 z"
           id="path93" />
        <path
           d="m 20.930964,36.002794 q -0.141111,-0.01411 -0.211667,-0.09878 -0.07056,-0.08467 -0.07056,-0.183445 0.01411,-0.09878 0.08467,-0.183444 0.08467,-0.08467 0.225778,-0.08467 0.635,-0.127 1.185333,-0.197555 0.564444,-0.07056 1.100665,-0.08467 0.536222,-0.02822 1.086555,0.01411 0.564444,0.02822 1.213555,0.141111 0.127,0.02822 0.183444,0.112889 0.05644,0.07056 0.05644,0.169333 0,0.08467 -0.07055,0.169334 -0.07056,0.08467 -0.197556,0.09878 -0.634999,0.127 -1.199443,0.197556 -0.550333,0.07055 -1.086555,0.09878 -0.536222,0.01411 -1.100666,-0.01411 -0.550332,-0.04233 -1.199443,-0.155222 z"
           id="path95" />
        <path
           d="m 28.833163,40.320791 q 0,0.141111 -0.08467,0.211666 -0.08467,0.08467 -0.183445,0.08467 -0.09878,0.01411 -0.183444,-0.05644 -0.08467,-0.07056 -0.09878,-0.211667 -0.02822,-1.269999 -0.05644,-2.511776 -0.01411,-1.255888 -0.04233,-2.511776 -0.02822,-1.721554 0,-3.414886 0.04233,-1.693332 0.310444,-3.400775 0.05644,-0.296333 0.09878,-0.635 0.05644,-0.352777 0.141111,-0.677332 0.09878,-0.324556 0.253999,-0.606778 0.155222,-0.282222 0.423333,-0.465666 0.465667,-0.169333 0.705555,0.225778 0.254,0.39511 0.395111,0.917221 0.155222,0.522111 0.239889,1.072444 0.08467,0.550333 0.141111,1.100666 0.05644,0.536221 0.112889,0.987777 0.197555,1.326443 0.465666,2.638775 0.268111,1.312333 0.663222,2.582332 0.09878,0.338666 0.225777,0.733777 0.141111,0.395111 0.310444,0.804333 0.169334,0.39511 0.366889,0.77611 0.211667,0.366889 0.451555,0.649111 0.127,0.141111 0.296333,0.211666 0.169334,0.07056 0.324556,0.183445 0.183444,-0.07056 0.380999,-0.112889 0.197556,-0.04233 0.324556,-0.169333 0.592666,-0.606778 0.973666,-1.284111 0.380999,-0.691443 0.705555,-1.425221 0.691444,-1.509887 1.171221,-3.07622 0.493888,-1.566332 0.90311,-3.160886 0.169334,-0.634999 0.338667,-1.269999 0.169333,-0.635 0.324555,-1.269999 0.01411,-0.02822 0.01411,-0.08467 0,-0.05644 0.01411,-0.02822 v 0.08467 q 0.07056,-0.324556 0.112889,-0.705555 0.04233,-0.381 0.268111,-0.620889 0.112889,-0.08467 0.225778,-0.07055 0.112888,0 0.183444,0.07055 0.07055,0.07056 0.07055,0.183445 0.01411,0.112888 -0.07055,0.225777 -0.05644,0.05645 -0.09878,0.183445 -0.02822,0.126999 -0.05644,0.282222 -0.01411,0.155222 -0.02822,0.310444 -0.01411,0.155222 -0.02822,0.254 -0.112888,0.677332 -0.282222,1.326443 -0.155222,0.649111 -0.310444,1.326443 -0.197555,0.860778 -0.423333,1.876777 -0.225777,1.015999 -0.522111,2.046109 -0.296333,1.015999 -0.663221,1.989665 -0.366889,0.959555 -0.832555,1.735666 -0.282222,0.451555 -0.592666,0.888999 -0.310445,0.437444 -0.635,0.888999 -0.08467,0.127 -0.296333,0.239889 -0.197555,0.112889 -0.409222,0.197555 -0.211666,0.08467 -0.395111,0.141111 -0.183444,0.05645 -0.239888,0.07056 -0.127,0.05644 -0.239889,0.04233 -0.112889,-0.02822 -0.239889,-0.09878 -0.409222,-0.254 -0.691444,-0.423333 -0.282222,-0.169334 -0.493888,-0.381 -0.211667,-0.225778 -0.395111,-0.536222 -0.169333,-0.310444 -0.381,-0.832555 -0.239888,-0.620888 -0.409222,-1.03011 -0.155222,-0.409222 -0.282222,-0.776111 -0.127,-0.366888 -0.253999,-0.790221 -0.112889,-0.423333 -0.268111,-1.086555 -0.282222,-1.227666 -0.451556,-2.44122 -0.169333,-1.227666 -0.352777,-2.469443 -0.04233,-0.324555 -0.08467,-0.663222 -0.02822,-0.352777 -0.09878,-0.705555 -0.07056,0.338667 -0.127,0.677333 -0.04233,0.324556 -0.07056,0.493889 -0.254,1.566332 -0.352777,3.118553 -0.08467,1.552221 -0.112889,3.146775 -0.02822,1.255888 -0.05644,2.511776 -0.01411,1.241777 -0.04233,2.511776 z m 10.413992,-13.08099 q 0,0.02822 -0.01411,0.04233 0,0.01411 0.01411,-0.01411 z"
           id="path97" />
        <path
           d="m 42.083483,36.002794 q -0.141111,-0.01411 -0.211666,-0.09878 -0.07056,-0.08467 -0.07056,-0.183445 0.01411,-0.09878 0.08467,-0.183444 0.08467,-0.08467 0.225777,-0.08467 0.635,-0.127 1.185333,-0.197555 0.564444,-0.07056 1.100666,-0.08467 0.536221,-0.02822 1.086554,0.01411 0.564444,0.02822 1.213555,0.141111 0.127,0.02822 0.183444,0.112889 0.05645,0.07056 0.05645,0.169333 0,0.08467 -0.07056,0.169334 -0.07055,0.08467 -0.197555,0.09878 -0.635,0.127 -1.199444,0.197556 -0.550333,0.07055 -1.086555,0.09878 -0.536221,0.01411 -1.100665,-0.01411 -0.550333,-0.04233 -1.199444,-0.155222 z"
           id="path99" />
        <path
           d="m 58.83334,26.816468 q 0.08467,0.127 0.07056,0.239889 -0.01411,0.09878 -0.09878,0.169333 -0.07055,0.05644 -0.197555,0.05644 -0.112889,0 -0.211667,-0.09878 l -0.169333,-0.183445 q -0.239889,0.05645 -0.479777,0.09878 -0.239889,0.04233 -0.479778,0.141111 -0.437444,0.169333 -0.959555,0.409222 -0.52211,0.239889 -1.086554,0.550333 -0.564444,0.310444 -1.128888,0.677333 -0.550333,0.352777 -1.044222,0.761999 -0.479777,0.395111 -0.860777,0.818444 -0.381,0.423333 -0.592666,0.860777 -0.07056,0.155222 -0.04233,0.338666 0.04233,0.183445 0.02822,0.352778 l 0.973666,0.64911 q 0.127,0.07056 0.366888,0.127 0.239889,0.04233 0.522111,0.09878 0.296333,0.04233 0.564444,0.09878 0.282222,0.05644 0.479777,0.155222 0.437445,0.211666 0.592667,0.493888 0.169333,0.282222 0.112889,0.592667 -0.04233,0.296333 -0.268111,0.592666 -0.211667,0.282222 -0.522111,0.522111 l -1.523999,1.185332 q -0.282222,0.225778 -0.564444,0.437444 -0.268111,0.211667 -0.550333,0.451555 -0.352777,0.296333 -0.733777,0.620889 -0.366889,0.324555 -0.719666,0.677332 -0.352778,0.352778 -0.649111,0.747889 -0.296333,0.380999 -0.507999,0.818444 -0.254,0.52211 -0.08467,0.804332 0.169333,0.296333 0.536222,0.423333 0.366888,0.141111 0.818444,0.141111 0.451555,0.01411 0.747888,-0.02822 0.818444,-0.112889 1.608665,-0.395111 0.790222,-0.268111 1.53811,-0.634999 0.762,-0.366889 1.481666,-0.790222 0.733777,-0.437444 1.41111,-0.874888 0.127,-0.04233 0.211666,-0.01411 0.09878,0.02822 0.155222,0.09878 0.05644,0.07055 0.05644,0.183444 0,0.09878 -0.08467,0.197555 -0.465666,0.324556 -0.931332,0.635 -0.465667,0.296333 -0.959555,0.592666 -0.677333,0.423333 -1.41111,0.790222 -0.522111,0.253999 -1.086555,0.493888 -0.564444,0.254 -1.15711,0.423333 -0.578555,0.169333 -1.185333,0.225778 -0.592666,0.07055 -1.185332,-0.02822 -0.268111,-0.04233 -0.564444,-0.183445 -0.282222,-0.141111 -0.522111,-0.352777 -0.239888,-0.211667 -0.39511,-0.479778 -0.155223,-0.268111 -0.141111,-0.564444 0.02822,-0.282222 0.08467,-0.550333 0.04233,-0.253999 0.112889,-0.52211 0.112889,-0.451556 0.606777,-1.044222 0.479778,-0.606777 1.100666,-1.213554 0.635,-0.606778 1.255888,-1.128888 0.634999,-0.536222 1.044221,-0.860777 0.437444,-0.338667 0.846666,-0.705556 0.409222,-0.380999 0.889,-0.620888 0.05644,-0.04233 0.08467,-0.07055 0.02822,-0.04233 0.05644,-0.07056 -0.09878,-0.112889 -0.268111,-0.183444 -0.169333,-0.07056 -0.366889,-0.112889 -0.197555,-0.04233 -0.395111,-0.05644 -0.197555,-0.02822 -0.324555,-0.05644 -0.592666,-0.112889 -1.142999,-0.395111 -0.550333,-0.296333 -0.917222,-0.790221 -0.08467,-0.141111 -0.08467,-0.310444 0.01411,-0.423333 0.01411,-0.677333 0.01411,-0.254 0.04233,-0.423333 0.02822,-0.183445 0.08467,-0.310444 0.07055,-0.127 0.197555,-0.268111 0.127,-0.155222 0.324556,-0.366889 0.197555,-0.225778 0.507999,-0.592666 0.352778,-0.409222 0.804333,-0.691444 0.451555,-0.296333 0.90311,-0.578555 1.142999,-0.719666 2.314221,-1.199444 1.171221,-0.493888 2.469442,-0.747888 0.155222,-0.01411 0.268111,0.07055 0.08467,0.08467 0.155222,0.183445 0.08467,0.08467 0.155222,0.169333 z m -4.684885,7.238994 v 0.01411 z m -0.04233,0.211667 v -0.01411 z"
           id="path101" />
        <path
           d="m 62.840887,32.898352 q 0.239889,0.04233 0.451556,0.169333 0.211666,0.112889 0.423333,0.225778 0.197555,-0.592666 0.451555,-1.171221 0.254,-0.592667 0.634999,-1.354666 0.127,-0.254 0.352778,-0.592666 0.225777,-0.338667 0.507999,-0.649111 0.282222,-0.324555 0.606778,-0.564444 0.324555,-0.254 0.64911,-0.324555 0.239889,-0.05644 0.493889,0 0.254,0.05644 0.493888,0.09878 0.211667,0.05644 0.310445,0.155222 0.09878,0.09878 0.155222,0.310444 0.04233,0.239889 0.112888,0.479777 0.07056,0.225778 0,0.465667 -0.141111,0.550333 -0.26811,1.001888 -0.127,0.437444 -0.282222,0.860777 -0.141111,0.409222 -0.338667,0.846666 -0.197555,0.437444 -0.465666,0.973666 -0.366889,0.705555 -0.649111,1.199443 -0.282222,0.493889 -0.578555,0.931333 -0.296333,0.437444 -0.649111,0.90311 -0.338666,0.465667 -0.818443,1.100666 -0.05644,0.07056 -0.09878,0.127 -0.04233,0.05644 -0.08467,0.127 0,0.02822 0.02822,0.05644 0.26811,0.508 0.719666,0.635 0.451555,0.112889 0.931332,0 0.493889,-0.127 0.945444,-0.395111 0.465666,-0.282222 0.761999,-0.550333 0.155223,-0.155222 0.268111,-0.268111 0.112889,-0.112889 0.197556,-0.225777 0.08467,-0.127 0.155222,-0.254 0.07055,-0.127 0.141111,-0.324555 0.02822,-0.07056 0.112889,-0.239889 0.09878,-0.183444 0.169333,-0.282222 -0.02822,-0.155222 0.127,-0.282222 l 0.05644,-0.02822 q 0.338667,-0.112889 0.423333,0.211666 0,0.211667 -0.112889,0.381 -0.09878,0.155222 -0.183444,0.352777 -0.08467,0.183445 -0.141111,0.381 -0.04233,0.183444 -0.155222,0.366889 -0.239889,0.366888 -0.705555,0.761999 -0.451555,0.381 -1.001888,0.677333 -0.550333,0.296333 -1.128888,0.451555 -0.578555,0.141111 -1.044222,0.04233 -0.366888,-0.08467 -0.634999,-0.310444 -0.254,-0.225777 -0.451555,-0.536222 -0.254,0.282222 -0.536222,0.522111 -0.282222,0.225778 -0.606777,0.395111 -0.409222,0.225777 -0.804333,0.437444 -0.395111,0.225778 -0.804333,0.437444 -0.338666,0.183444 -0.790222,0.141111 -0.451555,-0.02822 -0.874888,-0.211666 -0.423333,-0.183445 -0.747888,-0.493889 -0.338666,-0.310444 -0.451555,-0.677333 -0.09878,-0.310444 -0.08467,-0.634999 0,-0.338667 -0.02822,-0.663222 -0.01411,-0.352777 0.112889,-0.719666 0.127,-0.381 0.324555,-0.747888 0.197555,-0.381 0.423333,-0.719666 0.211667,-0.338667 0.366889,-0.606778 0.211666,-0.366888 0.620888,-0.818444 0.409222,-0.451555 0.903111,-0.818443 0.507999,-0.381 1.044221,-0.606778 0.550333,-0.225777 1.044221,-0.155222 z m 0.282222,2.82222 q 0.112889,-0.550333 0.197556,-1.001888 0.09878,-0.465666 0.211666,-0.874888 -0.183444,-0.112889 -0.366888,-0.211667 -0.183445,-0.09878 -0.381,-0.112888 -0.437444,-0.04233 -0.888999,0.183444 -0.451556,0.225777 -0.874889,0.606777 -0.423333,0.381 -0.804332,0.889 -0.366889,0.507999 -0.649111,1.03011 -0.282222,0.522111 -0.465666,1.03011 -0.183445,0.493889 -0.225778,0.860777 -0.04233,0.409222 0.07056,0.747889 0.112888,0.338666 0.352777,0.564444 0.239889,0.225777 0.592666,0.310444 0.352778,0.07055 0.790222,-0.05644 0.395111,-0.112888 0.747888,-0.324555 0.352778,-0.225778 0.677333,-0.479777 0.310444,-0.254 0.578555,-0.522111 0.282222,-0.282222 0.550333,-0.578555 -0.02822,-0.07056 -0.05644,-0.141111 -0.01411,-0.07056 -0.04233,-0.141111 -0.155222,-0.409222 -0.126999,-0.874888 0.04233,-0.465667 0.112888,-0.903111 z m 2.582332,-4.515552 q -0.310445,0.522111 -0.649111,1.213555 -0.338666,0.677333 -0.606777,1.439332 -0.254,0.761999 -0.409222,1.566332 -0.155222,0.790222 -0.112889,1.509888 0.635,-0.846666 1.185332,-1.777999 0.564444,-0.931332 1.016,-1.820332 0.141111,-0.268111 0.366888,-0.733777 0.239889,-0.465666 0.451555,-0.973666 0.211667,-0.522111 0.352778,-1.03011 0.141111,-0.508 0.08467,-0.874888 -0.282222,-0.02822 -0.536222,0.141111 -0.254,0.155222 -0.479778,0.39511 -0.211666,0.239889 -0.39511,0.508 -0.169334,0.268111 -0.268111,0.437444 z"
           id="path103" />
        <path
           d="m 69.374308,32.376241 q 0.112889,-0.239888 0.09878,-0.437444 0,-0.197555 0.01411,-0.253999 -0.09878,-0.08467 -0.127,-0.183445 -0.01411,-0.09878 0.02822,-0.169333 0.04233,-0.08467 0.141111,-0.127 0.09878,-0.04233 0.225778,-0.01411 0.296333,0.01411 0.465666,0.197555 0.183445,0.183445 0.239889,0.451556 0.05644,0.253999 0,0.550333 -0.05644,0.296333 -0.211667,0.550332 -0.141111,0.239889 -0.39511,0.409222 -0.239889,0.169334 -0.564444,0.155222 -0.141111,0.02822 -0.239889,-0.02822 -0.08467,-0.07055 -0.112889,-0.155222 -0.02822,-0.09878 0.01411,-0.197555 0.04233,-0.09878 0.183445,-0.155222 0.126999,-0.127 0.155222,-0.169334 0.02822,-0.05644 0.02822,-0.112888 0,-0.07056 0.01411,-0.183445 0.01411,-0.127 0.09878,-0.409222 0.01411,-0.04233 0,0.01411 -0.01411,0.05644 -0.02822,0.126999 -0.01411,0.07056 -0.02822,0.127 -0.01411,0.04233 0,0.01411 z m 0.239889,-0.338666 q 0.04233,0.02822 0,-0.02822 -0.02822,-0.05644 -0.05644,-0.127 0,0.127 0.05644,0.155222 z"
           id="path105" />
        <path
           d="m 75.004624,32.221019 q 0.141111,0 0.225778,0.08467 0.08467,0.07055 0.08467,0.169333 0.01411,0.09878 -0.05644,0.197556 -0.05644,0.08467 -0.197555,0.09878 -0.451556,0.04233 -0.832555,0.155222 -0.381,0.09878 -0.747889,0.324556 -0.07055,0.09878 -0.141111,0.155222 -0.05644,0.04233 -0.112889,0.07055 -0.05644,0.02822 -0.112888,0.08467 -0.05644,0.04233 -0.127,0.141111 -0.211667,0.338666 -0.395111,0.733777 -0.169333,0.381 -0.239889,0.790222 -0.07055,0.395111 0,0.790221 0.07056,0.381 0.338667,0.705555 0.211666,0.239889 0.691444,0.649111 0.479777,0.409222 0.931332,0.90311 0.451555,0.479778 0.691444,1.001888 0.254,0.508 0,0.973666 -0.310444,0.550333 -0.691444,0.945444 -0.380999,0.409222 -0.832555,0.677333 -0.451555,0.282222 -0.987777,0.451555 -0.52211,0.183444 -1.128888,0.296333 -0.409222,0.07056 -0.818444,0.07056 -0.423333,0 -0.705555,-0.141111 -0.296333,-0.141111 -0.39511,-0.451556 -0.09878,-0.296333 0.127,-0.832554 0.07055,-0.127 0.183444,-0.155223 0.112889,-0.02822 0.197555,0.01411 0.08467,0.04233 0.141111,0.141111 0.04233,0.112888 -0.01411,0.253999 -0.05644,0.169334 -0.08467,0.366889 0.09878,0.09878 0.324555,0.09878 0.225777,0 0.479777,-0.04233 0.239889,-0.04233 0.465667,-0.112888 0.211666,-0.07056 0.324555,-0.09878 l 0.211666,-0.08467 h 0.01411 q 0.268111,-0.155222 0.606778,-0.310444 0.352777,-0.155222 0.663221,-0.352777 0.324556,-0.197556 0.564444,-0.451556 0.254,-0.253999 0.324556,-0.620888 0.04233,-0.239889 -0.225778,-0.592666 -0.254,-0.352778 -0.620888,-0.705555 -0.366889,-0.366889 -0.733777,-0.691444 -0.352778,-0.338667 -0.508,-0.550333 -0.381,-0.508 -0.493889,-1.114777 -0.09878,-0.606777 0.01411,-1.199444 0.112888,-0.606777 0.423333,-1.15711 0.324555,-0.564444 0.804332,-0.959555 0.465667,-0.409221 1.058333,-0.578555 0.324555,-0.112888 0.64911,-0.127 0.324556,-0.01411 0.663222,-0.01411 z"
           id="path107" />
      </g>
      <g
         aria-label="of the Central Coast"
         id="text20"
         style="font-style:normal;font-variant:normal;font-weight:normal;font-stretch:normal;font-size:16.9333px;line-height:1.25;font-family:Gorgone;-inkscape-font-specification:'Gorgone, Normal';font-variant-ligatures:normal;font-variant-caps:normal;font-variant-numeric:normal;font-variant-east-asian:normal;fill:#ffffff;stroke-width:0.264583">
        <path
           d="m 83.132225,37.068688 c 0,2.912528 1.777997,4.419592 3.555993,4.419592 1.74413,0 3.471327,-1.456264 3.471327,-4.419592 0,-2.929461 -1.761064,-4.402658 -3.522127,-4.402658 -1.761063,0 -3.505193,1.456264 -3.505193,4.402658 z m 1.69333,0 c 0,-2.709328 0.914398,-4.063992 1.811863,-4.063992 0.914398,0 1.828797,1.354664 1.828797,4.063992 0,2.726262 -0.897465,4.063992 -1.79493,4.063992 -0.931332,0 -1.84573,-1.371597 -1.84573,-4.063992 z"
           id="path110" />
        <path
           d="M 91.141668,41.302013 H 95.20566 V 41.13268 c -0.897465,0 -1.185331,-0.169333 -1.185331,-1.066798 v -6.891853 h 1.185331 v -0.338666 h -1.185331 c 0,-1.710263 0.220133,-3.03106 1.523997,-3.03106 0.4064,0 0.812799,0.186266 1.083732,0.592665 l 0.186266,-0.287866 c -0.338666,-0.491066 -0.914398,-0.694265 -1.54093,-0.694265 -0.931332,0 -1.89653,0.440266 -2.336796,1.015998 -0.491066,0.660398 -0.609599,1.523997 -0.609599,2.404528 h -1.185331 v 0.338666 h 1.185331 v 6.891853 c 0,0.897465 -0.287866,1.066798 -1.185331,1.066798 z"
           id="path112" />
        <path
           d="m 103.40133,30.227635 c 0,-0.03387 -0.32174,2.607728 -2.4384,2.607728 h -0.2032 v 0.338666 h 1.18533 v 5.892789 c 0,1.59173 0.82973,2.235195 2.30293,2.235195 1.55786,0 1.5748,-1.59173 1.5748,-1.69333 h -0.16934 c -0.0677,0.931332 -0.55879,1.422398 -1.04986,1.422398 -0.47413,0 -0.94826,-0.474133 -0.9652,-1.456264 v -6.400788 h 1.18533 v -0.338666 h -1.18533 v -2.607728 z"
           id="path114" />
        <path
           d="m 111.2753,41.302013 h 4.06399 V 41.13268 c -0.8636,0 -1.1684,-0.152399 -1.18533,-0.931331 v -3.098794 c 0,-2.031996 0.0169,-4.470391 -3.36973,-4.470391 -0.9144,0 -1.4224,0.541865 -1.71026,1.185331 v -5.215457 h -2.87866 v 0.169333 c 0.84666,0 1.15146,0.1524 1.18533,0.948265 v 10.346246 c 0,0.897465 -0.28787,1.066798 -1.18533,1.066798 v 0.169333 h 4.06399 V 41.13268 c -0.89747,0 -1.18533,-0.169333 -1.18533,-1.066798 v -4.67359 c 0.0508,-0.948265 0.37253,-2.421462 1.71026,-2.421462 1.6764,0 1.6764,2.269062 1.6764,4.131725 v 3.098794 c -0.0339,0.778932 -0.33867,0.931331 -1.18533,0.931331 z"
           id="path116" />
        <path
           d="m 116.43995,34.477893 c -0.37253,0.677332 -0.59267,1.540931 -0.59267,2.590795 0,2.980261 1.84573,4.419592 3.6576,4.419592 0.94826,0 1.94732,-0.457199 2.47226,-1.303864 L 121.6554,39.79495 c -0.32173,0.965198 -1.47319,1.320797 -2.20132,1.320797 -0.94827,0 -1.91347,-1.269997 -1.91347,-4.030125 h 4.96146 c 0,-2.929461 -1.6256,-4.419592 -3.28506,-4.419592 -1.04987,0 -2.11666,0.609599 -2.77706,1.811863 z m 1.49013,0 c 0.33866,-0.948264 0.8636,-1.43933 1.38853,-1.43933 0.84666,0 1.69333,1.236131 1.76106,3.708393 h -3.53906 c 0.0169,-0.931332 0.16934,-1.69333 0.38947,-2.269063 z"
           id="path118" />
        <path
           d="m 137.48799,33.631228 v -3.115727 h -0.16934 c 0,0.406399 -0.11853,0.541866 -0.254,0.541866 -0.18626,0 -0.38946,-0.186266 -0.49106,-0.287866 l 0.0169,0.03387 c -1.25306,-1.54093 -2.92946,-1.523997 -2.98026,-1.523997 h -0.13547 c -0.2032,0 -4.94452,0.03387 -4.94452,6.095988 0,6.011322 4.94452,6.095988 4.94452,6.095988 h 0.13547 c 0,0 2.98026,-0.06773 4.01319,-3.555993 h -0.33866 c -0.9144,3.285061 -3.57293,3.217327 -3.67453,3.217327 h -0.13547 c -0.0169,0 -3.25119,0.1524 -3.25119,-5.757322 0,-5.892788 3.23426,-5.757322 3.25119,-5.757322 h 0.13547 c 0.0847,0 1.8796,-0.01693 3.04799,1.79493 l 0.3048,0.592666 c 0.254,0.491065 0.3556,0.965198 0.3556,1.625596 z"
           id="path120" />
        <path
           d="m 139.28289,34.477893 c -0.37253,0.677332 -0.59267,1.540931 -0.59267,2.590795 0,2.980261 1.84573,4.419592 3.6576,4.419592 0.94826,0 1.94733,-0.457199 2.47226,-1.303864 l -0.32173,-0.389466 c -0.32174,0.965198 -1.4732,1.320797 -2.20133,1.320797 -0.94827,0 -1.91347,-1.269997 -1.91347,-4.030125 h 4.96146 c 0,-2.929461 -1.6256,-4.419592 -3.28506,-4.419592 -1.04986,0 -2.11666,0.609599 -2.77706,1.811863 z m 1.49013,0 c 0.33867,-0.948264 0.8636,-1.43933 1.38853,-1.43933 0.84667,0 1.69333,1.236131 1.76106,3.708393 h -3.53906 c 0.0169,-0.931332 0.16934,-1.69333 0.38947,-2.269063 z"
           id="path122" />
        <path
           d="m 146.32711,33.004696 c 0.84667,0 1.15146,0.1524 1.18533,0.948265 v 6.248388 c -0.0339,0.778932 -0.33866,0.931331 -1.18533,0.931331 v 0.169333 h 4.06399 V 41.13268 c -0.89746,0 -1.18533,-0.169333 -1.18533,-1.066798 v -4.67359 c 0.0508,-0.948265 0.37253,-2.421462 1.71026,-2.421462 1.6764,0 1.6764,2.269062 1.6764,4.131725 v 3.098794 c -0.0339,0.778932 -0.33866,0.931331 -1.18533,0.931331 v 0.169333 h 4.06399 V 41.13268 c -0.8636,0 -1.1684,-0.152399 -1.18533,-0.931331 v -3.098794 c 0,-2.031996 0.0169,-4.470391 -3.36973,-4.470391 -0.91439,0 -1.42239,0.541865 -1.71026,1.185331 v -0.982132 h -2.87866 z"
           id="path124" />
        <path
           d="m 158.62068,30.227635 c 0,-0.03387 -0.32173,2.607728 -2.43839,2.607728 h -0.2032 v 0.338666 h 1.18533 v 5.892789 c 0,1.59173 0.82973,2.235195 2.30293,2.235195 1.55786,0 1.57479,-1.59173 1.57479,-1.69333 h -0.16933 c -0.0677,0.931332 -0.5588,1.422398 -1.04986,1.422398 -0.47414,0 -0.94827,-0.474133 -0.9652,-1.456264 v -6.400788 h 1.18533 v -0.338666 h -1.18533 v -2.607728 z"
           id="path126" />
        <path
           d="m 166.40999,34.325494 c 0,0.389466 0.3048,0.694265 0.69426,0.694265 0.38947,0 0.69427,-0.304799 0.69427,-0.694265 v -0.169333 c 0,-0.237066 -0.0508,-1.490131 -1.28693,-1.490131 -1.25307,0 -1.89653,0.914399 -2.21826,1.913463 v -1.74413 h -2.87866 v 0.169333 c 0.84666,0 1.15146,0.1524 1.18533,0.948265 v 6.112921 c 0,0.897465 -0.28787,1.066798 -1.18533,1.066798 v 0.169333 h 4.06399 V 41.13268 c -0.89747,0 -1.18533,-0.169333 -1.18533,-1.066798 v -3.488259 c 0.0339,-1.168398 0.33866,-3.572927 2.21826,-3.572927 0.32173,0 0.54186,0.321733 0.6096,0.626532 h -0.0169 c -0.38946,0 -0.69426,0.3048 -0.69426,0.694266 z"
           id="path128" />
        <path
           d="m 176.28208,41.13268 c -0.89746,0 -1.18533,-0.169333 -1.18533,-1.066798 l -0.0169,0.03387 c 0,-1.54093 0.0169,-2.912528 0.0169,-4.775191 0,-0.338666 -0.13546,-2.658528 -3.38666,-2.658528 -2.57386,0 -2.76012,2.116663 -2.76012,2.590795 0,0.03387 0,0.0508 0,0.06773 v 0.0508 c 0,0.389466 0.30479,0.694266 0.69426,0.694266 0.38947,0 0.69427,-0.3048 0.69427,-0.694266 0,-0.626532 -0.77894,-0.575732 -0.77894,-0.948264 0,-0.761999 0.88054,-1.422398 2.15053,-1.422398 1.76107,0 1.69333,2.252129 1.69333,2.370662 0,0.507999 -0.0169,1.032932 -0.0169,1.540931 -0.27093,-0.423333 -0.84667,-0.761999 -1.89653,-0.761999 -2.50613,0 -3.16653,1.523997 -3.16653,2.743195 0,2.167462 1.84573,2.590795 3.16653,2.590795 0.88053,0 1.54093,-0.389466 1.91346,-1.168398 v 0.982131 h 2.87866 z m -4.79212,0.01693 c -1.03293,0 -1.59173,-0.880532 -1.59173,-2.082796 0,-1.083731 0.33867,-2.573862 1.59173,-2.573862 1.54093,0 1.84573,0.965198 1.89653,1.473197 v 0.592666 c 0,1.710263 -0.72813,2.590795 -1.89653,2.590795 z"
           id="path130" />
        <path
           d="m 176.79005,28.771371 c 0.89746,0 1.18533,0.169333 1.18533,1.066798 v 10.227713 c 0,0.897465 -0.28787,1.066798 -1.18533,1.066798 v 0.169333 h 4.06399 V 41.13268 c -0.89747,0 -1.18533,-0.169333 -1.18533,-1.066798 V 28.602038 h -2.87866 z"
           id="path132" />
        <path
           d="m 195.36583,33.631228 v -3.115727 h -0.16934 c 0,0.406399 -0.11853,0.541866 -0.254,0.541866 -0.18626,0 -0.38946,-0.186266 -0.49106,-0.287866 l 0.0169,0.03387 C 193.2153,29.262437 191.5389,29.27937 191.4881,29.27937 h -0.13546 c -0.2032,0 -4.94453,0.03387 -4.94453,6.095988 0,6.011322 4.94453,6.095988 4.94453,6.095988 h 0.13546 c 0,0 2.98026,-0.06773 4.01319,-3.555993 h -0.33866 c -0.9144,3.285061 -3.57293,3.217327 -3.67453,3.217327 h -0.13546 c -0.0169,0 -3.2512,0.1524 -3.2512,-5.757322 0,-5.892788 3.23426,-5.757322 3.2512,-5.757322 h 0.13546 c 0.0847,0 1.8796,-0.01693 3.048,1.79493 l 0.30479,0.592666 c 0.254,0.491065 0.3556,0.965198 0.3556,1.625596 z"
           id="path134" />
        <path
           d="m 196.56807,37.068688 c 0,2.912528 1.778,4.419592 3.55599,4.419592 1.74413,0 3.47133,-1.456264 3.47133,-4.419592 0,-2.929461 -1.76106,-4.402658 -3.52213,-4.402658 -1.76106,0 -3.50519,1.456264 -3.50519,4.402658 z m 1.69333,0 c 0,-2.709328 0.9144,-4.063992 1.81186,-4.063992 0.9144,0 1.8288,1.354664 1.8288,4.063992 0,2.726262 -0.89747,4.063992 -1.79493,4.063992 -0.93133,0 -1.84573,-1.371597 -1.84573,-4.063992 z"
           id="path136" />
        <path
           d="m 212.53617,41.13268 c -0.89747,0 -1.18534,-0.169333 -1.18534,-1.066798 l -0.0169,0.03387 c 0,-1.54093 0.0169,-2.912528 0.0169,-4.775191 0,-0.338666 -0.13546,-2.658528 -3.38666,-2.658528 -2.57386,0 -2.76012,2.116663 -2.76012,2.590795 0,0.03387 0,0.0508 0,0.06773 v 0.0508 c 0,0.389466 0.3048,0.694266 0.69426,0.694266 0.38947,0 0.69427,-0.3048 0.69427,-0.694266 0,-0.626532 -0.77893,-0.575732 -0.77893,-0.948264 0,-0.761999 0.88053,-1.422398 2.15052,-1.422398 1.76107,0 1.69333,2.252129 1.69333,2.370662 0,0.507999 -0.0169,1.032932 -0.0169,1.540931 -0.27093,-0.423333 -0.84666,-0.761999 -1.89653,-0.761999 -2.50613,0 -3.16653,1.523997 -3.16653,2.743195 0,2.167462 1.84573,2.590795 3.16653,2.590795 0.88053,0 1.54093,-0.389466 1.91346,-1.168398 v 0.982131 h 2.87867 z m -4.79213,0.01693 c -1.03293,0 -1.59173,-0.880532 -1.59173,-2.082796 0,-1.083731 0.33867,-2.573862 1.59173,-2.573862 1.54093,0 1.84573,0.965198 1.89653,1.473197 v 0.592666 c 0,1.710263 -0.72813,2.590795 -1.89653,2.590795 z"
           id="path138" />
        <path
           d="m 214.53427,34.528693 c 0.0508,-0.812798 0.6604,-1.523997 1.99813,-1.523997 2.35372,0 2.08279,1.862663 2.08279,2.404529 h 0.254 v -2.675461 h -0.16933 c 0,0.355599 -0.13547,0.474132 -0.3048,0.474132 -0.0677,0 -0.13547,-0.01693 -0.2032,-0.0508 -0.3556,-0.287866 -0.8636,-0.491066 -1.65946,-0.491066 -1.96427,0 -3.23426,1.015998 -3.23426,2.404529 0,3.742259 4.85985,2.269062 4.85985,4.775191 0,0.253999 -0.254,1.28693 -1.86266,1.28693 -2.55693,0 -2.67546,-1.625596 -2.6924,-2.675461 h -0.25399 v 1.862663 0.812798 h 0.16933 c 0,-0.355599 0.13546,-0.474132 0.28786,-0.474132 0.11854,0 0.254,0.06773 0.3556,0.135466 0.44027,0.4064 1.1176,0.677332 2.1336,0.677332 2.0828,0 2.91253,-1.100664 2.91253,-2.167462 0,-3.725326 -4.67359,-2.285996 -4.67359,-4.656658 0,-0.03387 0,-0.08467 0,-0.118533 z"
           id="path140" />
        <path
           d="m 223.11943,30.227635 c 0,-0.03387 -0.32173,2.607728 -2.43839,2.607728 h -0.2032 v 0.338666 h 1.18533 v 5.892789 c 0,1.59173 0.82973,2.235195 2.30293,2.235195 1.55786,0 1.57479,-1.59173 1.57479,-1.69333 h -0.16933 c -0.0677,0.931332 -0.5588,1.422398 -1.04986,1.422398 -0.47414,0 -0.94827,-0.474133 -0.9652,-1.456264 v -6.400788 h 1.18533 v -0.338666 h -1.18533 v -2.607728 z"
           id="path142" />
      </g>
    </g>
  </g>
</svg>
