<?xml version="1.0" encoding="UTF-8" standalone="no"?>
<svg
   xmlns:dc="http://purl.org/dc/elements/1.1/"
   xmlns:cc="http://creativecommons.org/ns#"
   xmlns:rdf="http://www.w3.org/1999/02/22-rdf-syntax-ns#"
   xmlns:svg="http://www.w3.org/2000/svg"
   xmlns="http://www.w3.org/2000/svg"
   xmlns:sodipodi="http://sodipodi.sourceforge.net/DTD/sodipodi-0.dtd"
   xmlns:inkscape="http://www.inkscape.org/namespaces/inkscape"
   width="156.83748mm"
   height="13.075066mm"
   viewBox="0 0 156.83748 13.075066"
   version="1.1"
   id="svg8"
   inkscape:version="1.0.1 (3bc2e813f5, 2020-09-07)"
   sodipodi:docname="me-n-eds-central-coast-white.svg">
  <defs
     id="defs2">
    <filter
       style="color-interpolation-filters:sRGB"
       inkscape:label="Drop Shadow"
       id="filter40">
      <feFlood
         flood-opacity="0.498039"
         flood-color="rgb(0,0,0)"
         result="flood"
         id="feFlood30" />
      <feComposite
         in="flood"
         in2="SourceGraphic"
         operator="out"
         result="composite1"
         id="feComposite32" />
      <feGaussianBlur
         in="composite1"
         stdDeviation="3"
         result="blur"
         id="feGaussianBlur34" />
      <feOffset
         dx="5"
         dy="5"
         result="offset"
         id="feOffset36" />
      <feComposite
         in="offset"
         in2="SourceGraphic"
         operator="atop"
         result="composite2"
         id="feComposite38" />
    </filter>
    <filter
       style="color-interpolation-filters:sRGB"
       inkscape:label="Drop Shadow"
       id="filter52">
      <feFlood
         flood-opacity="0.498039"
         flood-color="rgb(0,0,0)"
         result="flood"
         id="feFlood42" />
      <feComposite
         in="flood"
         in2="SourceGraphic"
         operator="out"
         result="composite1"
         id="feComposite44" />
      <feGaussianBlur
         in="composite1"
         stdDeviation="3"
         result="blur"
         id="feGaussianBlur46" />
      <feOffset
         dx="5"
         dy="5"
         result="offset"
         id="feOffset48" />
      <feComposite
         in="offset"
         in2="SourceGraphic"
         operator="atop"
         result="composite2"
         id="feComposite50" />
    </filter>
  </defs>
  <sodipodi:namedview
     id="base"
     pagecolor="#ffffff"
     bordercolor="#666666"
     borderopacity="1.0"
     inkscape:pageopacity="0.0"
     inkscape:pageshadow="2"
     inkscape:zoom="1.4069609"
     inkscape:cx="225.46047"
     inkscape:cy="40.121466"
     inkscape:document-units="mm"
     inkscape:current-layer="layer1"
     inkscape:document-rotation="0"
     showgrid="false"
     inkscape:pagecheckerboard="true"
     inkscape:window-width="2560"
     inkscape:window-height="1377"
     inkscape:window-x="1432"
     inkscape:window-y="638"
     inkscape:window-maximized="1" />
  <metadata
     id="metadata5">
    <rdf:RDF>
      <cc:Work
         rdf:about="">
        <dc:format>image/svg+xml</dc:format>
        <dc:type
           rdf:resource="http://purl.org/dc/dcmitype/StillImage" />
        <dc:title />
      </cc:Work>
    </rdf:RDF>
  </metadata>
  <g
     inkscape:label="Layer 1"
     inkscape:groupmode="layer"
     id="layer1"
     transform="translate(-17.225775,-52.831415)">
    <g
       id="g166"
       style="fill:#ffffff">
      <g
         aria-label="Me-n-Ed's"
         id="text78"
         style="font-style:normal;font-variant:normal;font-weight:normal;font-stretch:normal;font-size:10.5833px;line-height:1.25;font-family:Morsal;-inkscape-font-specification:'Morsal, Normal';font-variant-ligatures:normal;font-variant-caps:normal;font-variant-numeric:normal;font-variant-east-asian:normal;fill:#ffffff;stroke-width:0.264583">
        <path
           d="m 18.074201,52.9563 q 0.05292,-0.09525 0.137583,-0.116416 0.08467,-0.02117 0.148166,0.01058 0.0635,0.03175 0.09525,0.116416 0.04233,0.07408 0,0.179916 -0.317499,0.539749 -0.465665,1.132414 -0.137583,0.592664 -0.1905,1.217079 -0.04233,0.613831 -0.03175,1.248829 0.02117,0.624415 0.02117,1.227663 0.01058,0.666748 0.02117,1.322913 0.01058,0.656164 0.0635,1.322912 0.02117,0.222249 0.04233,0.444499 0.03175,0.211666 0.0635,0.433915 l 0.359833,-1.428746 0.338665,-1.333495 q 0.09525,-0.349249 0.1905,-0.698498 0.09525,-0.349249 0.211666,-0.687915 0.148166,-0.465665 0.306915,-0.941913 0.169333,-0.476249 0.370416,-0.941914 0.211666,-0.476248 0.455082,-0.910164 0.253999,-0.444498 0.571498,-0.825497 0.169333,-0.201083 0.370415,-0.359832 0.201083,-0.15875 0.391582,-0.338666 0.0635,-0.05292 0.09525,-0.07408 0.04233,-0.03175 0.127,-0.05292 0.0635,-0.01058 0.169332,0 0.105833,0 0.201083,0.02117 0.105833,0.02117 0.179916,0.04233 0.08467,0.02117 0.09525,0.02117 0.158749,0.04233 0.232833,0.116416 0.07408,0.07408 0.116416,0.232833 0.04233,0.243416 0.08467,0.486832 0.04233,0.243416 0.0635,0.497415 0.05292,0.402165 0,0.825497 -0.04233,0.412749 -0.08467,0.825497 -0.03175,0.465666 -0.08467,0.920748 -0.05292,0.455081 -0.09525,0.910163 -0.04233,0.455082 -0.05292,0.920747 -0.01058,0.455082 0.04233,0.910164 0.793748,-0.941913 1.449912,-1.904994 0.656165,-0.96308 1.344079,-1.968493 0.306916,-0.455082 0.624415,-0.941914 0.328082,-0.497415 0.740831,-0.867831 0.137583,-0.116416 0.253999,-0.116416 0.127,0 0.275166,0.09525 0.127,0.179916 0.15875,0.349249 0.03175,0.169332 0.01058,0.349248 -0.01058,0.179917 -0.07408,0.359833 -0.05292,0.179916 -0.116417,0.370415 -0.05292,0.1905 -0.08467,0.391582 -0.03175,0.201083 -0.0635,0.402166 l -0.253999,1.471078 q -0.09525,0.560915 -0.179916,1.05833 -0.07408,0.486832 -0.148166,0.973664 -0.07408,0.476248 -0.148166,0.973663 -0.07408,0.497415 -0.15875,1.068914 -0.116416,0.825497 -0.232833,1.650994 -0.116416,0.825498 -0.148166,1.661578 0.116417,-0.02117 0.1905,0.0635 0.08467,0.09525 0.03175,0.253999 l -0.22225,0.423332 v 0.03175 h -0.02117 l -0.01058,0.03175 q -0.116416,0.116416 -0.253999,0.08467 -0.126999,-0.02117 -0.148166,-0.201083 h -0.03175 l 0.03175,-0.05292 q -0.0635,-1.005413 0.05292,-2.010827 0.116417,-1.005413 0.232833,-2.000243 0.169333,-1.407579 0.349249,-2.783408 0.190499,-1.386412 0.402165,-2.783408 0.02117,-0.190499 0.0635,-0.380999 0.05292,-0.201082 0.105833,-0.391582 l -0.126999,0.179916 q -0.603249,0.878414 -1.174747,1.788578 -0.571498,0.899581 -1.195913,1.767411 -0.243415,0.328082 -0.507998,0.634998 -0.253999,0.296332 -0.518582,0.613831 -0.08467,0.105833 -0.179916,0.148167 -0.08467,0.03175 -0.190499,0.04233 -0.09525,0.01058 -0.211666,0 -0.105833,-0.02117 -0.243416,-0.03175 -0.15875,-0.02117 -0.243416,-0.08467 -0.08467,-0.0635 -0.158749,-0.201083 -0.04233,-0.275166 -0.105833,-0.539748 -0.05292,-0.275166 -0.04233,-0.550332 0.02117,-0.634998 0.09525,-1.312329 0.07408,-0.687915 0.137583,-1.365246 0.0635,-0.687914 0.08467,-1.354662 0.02117,-0.666748 -0.07408,-1.291163 -0.01058,-0.01058 -0.03175,-0.01058 -0.137583,0.127 -0.296332,0.253999 -0.148166,0.116416 -0.264582,0.264583 -0.507999,0.624414 -0.867831,1.354662 -0.359832,0.730248 -0.634998,1.523995 -0.264583,0.783164 -0.465665,1.587495 -0.201083,0.804331 -0.402166,1.566328 -0.148166,0.571499 -0.306915,1.132414 -0.148166,0.560914 -0.317499,1.132413 -0.03175,0.126999 -0.05292,0.285749 -0.02117,0.148166 -0.105833,0.264582 -0.04233,0.05292 -0.09525,0.08467 -0.04233,0.03175 -0.105833,0.07408 -0.105833,0.02117 -0.169333,0.01058 -0.05292,-0.01058 -0.148166,-0.05292 -0.105833,-0.05292 -0.179917,-0.243415 -0.07408,-0.1905 -0.126999,-0.444499 -0.04233,-0.264583 -0.07408,-0.560915 -0.03175,-0.296332 -0.05292,-0.560915 -0.01058,-0.264582 -0.02117,-0.465665 -0.01058,-0.211666 -0.01058,-0.296332 -0.05292,-0.846664 -0.04233,-1.672162 0.01058,-0.83608 0.02117,-1.672161 0.01058,-0.560915 0.02117,-1.12183 0.02117,-0.571498 0.09525,-1.12183 0.08467,-0.550331 0.243416,-1.079496 0.158749,-0.529165 0.465665,-1.015997 z"
           style="font-style:normal;font-variant:normal;font-weight:normal;font-stretch:normal;font-size:10.5833px;font-family:Morsal;-inkscape-font-specification:'Morsal, Normal';font-variant-ligatures:normal;font-variant-caps:normal;font-variant-numeric:normal;font-variant-east-asian:normal;fill:#ffffff;stroke-width:0.264583"
           id="path84" />
        <path
           d="m 31.409155,59.486196 q -0.518581,0.465665 -1.174746,0.846664 -0.645581,0.370415 -1.354662,0.476248 -0.08467,0.211666 -0.148167,0.423332 -0.05292,0.211666 -0.0635,0.412749 0,0.190499 0.05292,0.359832 0.0635,0.169333 0.211666,0.296333 0.137583,0.126999 0.232833,0.222249 0.09525,0.08467 0.190499,0.148166 0.09525,0.0635 0.211666,0.09525 0.116416,0.02117 0.306916,0.02117 0.296332,0 0.603248,-0.08467 0.391582,-0.116416 0.751414,-0.306916 0.370416,-0.201082 0.698498,-0.433915 0.476248,-0.328082 0.836081,-0.719664 0.359832,-0.391582 0.687914,-0.857248 0.07408,-0.0635 0.148166,-0.0635 0.08467,0 0.137583,0.04233 0.05292,0.04233 0.07408,0.116416 0.02117,0.0635 -0.01058,0.15875 -0.317499,0.518581 -0.687915,0.96308 -0.359832,0.433915 -0.83608,0.825497 -0.15875,0.127 -0.359832,0.275166 -0.201083,0.148166 -0.433916,0.285749 -0.222249,0.137583 -0.455082,0.243416 -0.222249,0.105833 -0.423332,0.148166 -0.179916,0.03175 -0.412748,0.09525 -0.222249,0.07408 -0.433915,0.04233 -0.201083,-0.04233 -0.412749,-0.05292 -0.201083,-0.01058 -0.370416,-0.127 -0.169332,-0.137583 -0.338665,-0.253999 -0.169333,-0.127 -0.306916,-0.296333 -0.306916,-0.380998 -0.391582,-0.793747 -0.09525,-0.412749 -0.03175,-0.825497 0.0635,-0.423332 0.264583,-0.836081 0.190499,-0.412749 0.455081,-0.783164 0.264583,-0.380999 0.560915,-0.709081 0.296333,-0.328083 0.582082,-0.592665 0.169333,-0.15875 0.444498,-0.317499 0.275166,-0.15875 0.571499,-0.243416 0.306915,-0.08467 0.603248,-0.05292 0.296332,0.03175 0.507998,0.243415 0.201083,0.201083 0.211666,0.433916 0.01058,0.222249 -0.09525,0.433915 -0.105833,0.211666 -0.275165,0.412749 -0.169333,0.190499 -0.328083,0.328082 z M 29.82166,59.285113 q -0.116416,0.127 -0.306915,0.391582 -0.179916,0.254 -0.359833,0.571499 0.317499,-0.116417 0.634998,-0.296333 0.317499,-0.179916 0.603248,-0.391582 0.28575,-0.222249 0.518582,-0.455082 0.232833,-0.243416 0.380999,-0.486832 0.05292,-0.09525 0.08467,-0.179916 -0.243416,-0.0635 -0.465665,0 -0.211666,0.0635 -0.402165,0.201083 -0.1905,0.127 -0.370416,0.306916 -0.169332,0.169332 -0.317499,0.338665 z"
           style="font-style:normal;font-variant:normal;font-weight:normal;font-stretch:normal;font-size:10.5833px;font-family:Morsal;-inkscape-font-specification:'Morsal, Normal';font-variant-ligatures:normal;font-variant-caps:normal;font-variant-numeric:normal;font-variant-east-asian:normal;fill:#ffffff;stroke-width:0.264583"
           id="path86" />
        <path
           d="m 34.933377,60.290527 q -0.105833,-0.01058 -0.15875,-0.07408 -0.05292,-0.0635 -0.05292,-0.137583 0.01058,-0.07408 0.0635,-0.137583 0.0635,-0.0635 0.169333,-0.0635 0.476248,-0.09525 0.888997,-0.148166 0.423332,-0.05292 0.825497,-0.0635 0.402165,-0.02117 0.814914,0.01058 0.423332,0.02117 0.910164,0.105833 0.09525,0.02117 0.137583,0.08467 0.04233,0.05292 0.04233,0.126999 0,0.0635 -0.05292,0.127 -0.05292,0.0635 -0.148167,0.07408 -0.476248,0.09525 -0.89958,0.148166 -0.412749,0.05292 -0.814914,0.07408 -0.402166,0.01058 -0.825498,-0.01058 -0.412748,-0.03175 -0.89958,-0.116416 z"
           style="font-style:normal;font-variant:normal;font-weight:normal;font-stretch:normal;font-size:10.5833px;font-family:Morsal;-inkscape-font-specification:'Morsal, Normal';font-variant-ligatures:normal;font-variant-caps:normal;font-variant-numeric:normal;font-variant-east-asian:normal;fill:#ffffff;stroke-width:0.264583"
           id="path88" />
        <path
           d="m 40.637764,59.11578 q 0.127,-0.243415 0.275166,-0.455081 0.148166,-0.22225 0.264583,-0.465666 0,-0.09525 0.09525,-0.179916 0.01058,0 0.01058,0 0.01058,-0.01058 0.02117,-0.01058 0.169333,-0.05292 0.254,0.03175 0.09525,0.08467 0.04233,0.264582 -0.127,0.296333 -0.306916,0.582082 -0.169333,0.275166 -0.275166,0.582081 -0.465665,1.439329 -0.719664,2.899824 0.412749,-0.518581 0.804331,-1.037163 0.402165,-0.518582 0.793747,-1.047747 0.264583,-0.359832 0.497415,-0.687914 0.243416,-0.338666 0.486832,-0.634998 0.253999,-0.296332 0.550332,-0.550332 0.296332,-0.264582 0.677331,-0.476248 0.232832,-0.08467 0.402165,-0.01058 0.169333,0.07408 0.232833,0.317499 0.03175,0.169332 0.09525,0.338665 0.0635,0.169333 0.01058,0.338666 -0.105833,0.402165 -0.370416,0.96308 -0.264582,0.550332 -0.518581,1.12183 -0.254,0.571498 -0.423332,1.09008 -0.15875,0.518581 -0.0635,0.86783 0.211666,0.04233 0.402165,0.01058 0.201083,-0.03175 0.380999,-0.09525 0.190499,-0.07408 0.370415,-0.169333 0.179916,-0.09525 0.359833,-0.190499 0.391582,-0.201083 0.783164,-0.465666 0.391582,-0.264582 0.772581,-0.560914 0.380998,-0.306916 0.740831,-0.613832 0.359832,-0.317499 0.677331,-0.624414 0.08467,-0.0635 0.169333,-0.05292 0.08467,0 0.137582,0.05292 0.05292,0.05292 0.05292,0.137582 0.01058,0.08467 -0.05292,0.169333 -0.666747,0.666748 -1.439328,1.354663 -0.761998,0.677331 -1.566329,1.153579 -0.169332,0.09525 -0.349249,0.211666 -0.179916,0.105833 -0.370415,0.201083 -0.179916,0.09525 -0.370415,0.158749 -0.1905,0.0635 -0.391583,0.07408 -0.169332,0.01058 -0.338665,-0.04233 -0.169333,-0.04233 -0.349249,-0.0635 -0.148166,-0.08467 -0.232833,-0.232833 -0.01058,-0.03175 -0.04233,-0.105833 -0.02117,-0.07408 -0.05292,-0.169333 -0.03175,-0.09525 -0.0635,-0.190499 -0.02117,-0.09525 -0.02117,-0.169333 0.02117,-0.486832 0.169333,-0.952497 0.148166,-0.465665 0.338666,-0.910164 0.201082,-0.455082 0.402165,-0.888997 0.201083,-0.444499 0.349249,-0.89958 -0.476249,0.507998 -0.910164,1.068913 -0.423332,0.550331 -0.857247,1.111246 -0.433915,0.550332 -0.899581,1.079497 -0.455081,0.529165 -0.99483,0.973663 -0.179916,0.105833 -0.317499,0.0635 -0.148166,-0.05292 -0.243416,-0.232832 -0.01058,-0.01058 -0.03175,-0.0635 -0.02117,-0.05292 -0.04233,-0.116416 -0.03175,-0.07408 -0.04233,-0.137583 -0.02117,-0.0635 -0.02117,-0.116417 0.04233,-0.359832 0.15875,-0.846664 0.105833,-0.497415 0.253999,-0.99483 0.137583,-0.507998 0.306916,-0.973663 0.169333,-0.465666 0.338665,-0.783165 z"
           style="font-style:normal;font-variant:normal;font-weight:normal;font-stretch:normal;font-size:10.5833px;font-family:Morsal;-inkscape-font-specification:'Morsal, Normal';font-variant-ligatures:normal;font-variant-caps:normal;font-variant-numeric:normal;font-variant-east-asian:normal;fill:#ffffff;stroke-width:0.264583"
           id="path90" />
        <path
           d="m 49.506549,60.290527 q -0.105833,-0.01058 -0.15875,-0.07408 -0.05292,-0.0635 -0.05292,-0.137583 0.01058,-0.07408 0.0635,-0.137583 0.0635,-0.0635 0.169333,-0.0635 0.476249,-0.09525 0.888997,-0.148166 0.423332,-0.05292 0.825498,-0.0635 0.402165,-0.02117 0.814914,0.01058 0.423332,0.02117 0.910164,0.105833 0.09525,0.02117 0.137582,0.08467 0.04233,0.05292 0.04233,0.126999 0,0.0635 -0.05292,0.127 -0.05292,0.0635 -0.148166,0.07408 -0.476249,0.09525 -0.899581,0.148166 -0.412748,0.05292 -0.814914,0.07408 -0.402165,0.01058 -0.825497,-0.01058 -0.412749,-0.03175 -0.89958,-0.116416 z"
           style="font-style:normal;font-variant:normal;font-weight:normal;font-stretch:normal;font-size:10.5833px;font-family:Morsal;-inkscape-font-specification:'Morsal, Normal';font-variant-ligatures:normal;font-variant-caps:normal;font-variant-numeric:normal;font-variant-east-asian:normal;fill:#ffffff;stroke-width:0.264583"
           id="path92" />
        <path
           d="m 62.068912,53.400799 q 0.0635,0.09525 0.05292,0.179916 -0.01058,0.07408 -0.07408,0.126999 -0.05292,0.04233 -0.148166,0.04233 -0.08467,0 -0.15875,-0.07408 l -0.127,-0.137582 q -0.179916,0.04233 -0.359832,0.07408 -0.179916,0.03175 -0.359832,0.105833 -0.328082,0.126999 -0.719664,0.306915 -0.391582,0.179916 -0.814914,0.412749 -0.423332,0.232833 -0.846664,0.507998 -0.412749,0.264583 -0.783165,0.571499 -0.359832,0.296332 -0.645581,0.613831 -0.285749,0.317499 -0.444498,0.645581 -0.05292,0.116417 -0.03175,0.253999 0.03175,0.137583 0.02117,0.264583 l 0.730248,0.486832 q 0.09525,0.05292 0.275166,0.09525 0.179916,0.03175 0.391582,0.07408 0.222249,0.03175 0.423332,0.07408 0.211666,0.04233 0.359832,0.116416 0.328082,0.158749 0.444499,0.370415 0.126999,0.211666 0.08467,0.444499 -0.03175,0.222249 -0.201083,0.444499 -0.158749,0.211666 -0.391582,0.391582 L 57.602774,60.6821 q -0.211666,0.169333 -0.423332,0.328082 -0.201083,0.15875 -0.412749,0.338666 -0.264582,0.222249 -0.550331,0.465665 -0.275166,0.243416 -0.539749,0.507998 -0.264582,0.264583 -0.486831,0.560915 -0.22225,0.285749 -0.380999,0.613832 -0.1905,0.391582 -0.0635,0.603248 0.127,0.222249 0.402165,0.317499 0.275166,0.105833 0.613832,0.105833 0.338665,0.01058 0.560915,-0.02117 0.613831,-0.08467 1.206496,-0.296332 0.592665,-0.201083 1.153579,-0.476249 0.571499,-0.275166 1.111247,-0.592665 0.550331,-0.328082 1.05833,-0.656164 0.09525,-0.03175 0.158749,-0.01058 0.07408,0.02117 0.116417,0.07408 0.04233,0.05292 0.04233,0.137582 0,0.07408 -0.0635,0.148167 -0.349249,0.243416 -0.698498,0.476248 -0.349249,0.222249 -0.719664,0.444499 -0.507998,0.317499 -1.05833,0.592665 -0.391582,0.190499 -0.814914,0.370415 -0.423332,0.190499 -0.867831,0.317499 -0.433915,0.127 -0.888997,0.169333 -0.444498,0.05292 -0.888997,-0.02117 -0.201083,-0.03175 -0.423332,-0.137583 -0.211666,-0.105833 -0.391582,-0.264582 -0.179916,-0.15875 -0.296333,-0.359832 -0.116416,-0.201083 -0.105833,-0.423332 0.02117,-0.211666 0.0635,-0.412749 0.03175,-0.190499 0.08467,-0.391582 0.08467,-0.338666 0.455082,-0.783164 0.359832,-0.455082 0.825497,-0.910164 0.476248,-0.455082 0.941914,-0.846664 0.476248,-0.402165 0.783164,-0.645581 0.328082,-0.254 0.634998,-0.529165 0.306915,-0.285749 0.666748,-0.465666 0.04233,-0.03175 0.0635,-0.05292 0.02117,-0.03175 0.04233,-0.05292 -0.07408,-0.08467 -0.201083,-0.137582 -0.127,-0.05292 -0.275166,-0.08467 -0.148166,-0.03175 -0.296332,-0.04233 -0.148166,-0.02117 -0.243416,-0.04233 -0.444499,-0.08467 -0.857247,-0.296333 -0.412749,-0.222249 -0.687915,-0.592664 -0.0635,-0.105833 -0.0635,-0.232833 0.01058,-0.317499 0.01058,-0.507998 0.01058,-0.1905 0.03175,-0.317499 0.02117,-0.137583 0.0635,-0.232833 0.05292,-0.09525 0.148167,-0.201083 0.09525,-0.116416 0.243415,-0.275165 0.148167,-0.169333 0.380999,-0.444499 0.264583,-0.306916 0.603248,-0.518582 0.338666,-0.222249 0.677331,-0.433915 0.857248,-0.539748 1.735662,-0.89958 0.878413,-0.370416 1.852077,-0.560915 0.116416,-0.01058 0.201083,0.05292 0.0635,0.0635 0.116416,0.137583 0.0635,0.0635 0.116416,0.127 z m -3.513655,5.429232 v 0.01058 z m -0.03175,0.15875 v -0.01058 z"
           style="font-style:normal;font-variant:normal;font-weight:normal;font-stretch:normal;font-size:10.5833px;font-family:Morsal;-inkscape-font-specification:'Morsal, Normal';font-variant-ligatures:normal;font-variant-caps:normal;font-variant-numeric:normal;font-variant-east-asian:normal;fill:#ffffff;stroke-width:0.264583"
           id="path94" />
        <path
           d="m 65.074565,57.962201 q 0.179916,0.03175 0.338666,0.126999 0.158749,0.08467 0.317499,0.169333 0.148166,-0.444498 0.338665,-0.878414 0.1905,-0.444498 0.476249,-1.015996 0.09525,-0.1905 0.264582,-0.444499 0.169333,-0.253999 0.380999,-0.486832 0.211666,-0.243416 0.455082,-0.423332 0.243416,-0.190499 0.486832,-0.243416 0.179916,-0.04233 0.370415,0 0.1905,0.04233 0.370416,0.07408 0.158749,0.04233 0.232832,0.116417 0.07408,0.07408 0.116417,0.232832 0.03175,0.179916 0.08467,0.359833 0.05292,0.169332 0,0.349248 -0.105833,0.412749 -0.201083,0.751415 -0.09525,0.328082 -0.211666,0.645581 -0.105833,0.306916 -0.253999,0.634998 -0.148166,0.328082 -0.349249,0.730248 -0.275165,0.529165 -0.486831,0.89958 -0.211666,0.370416 -0.433916,0.698498 -0.222249,0.328082 -0.486831,0.677331 -0.254,0.349249 -0.613832,0.825497 -0.04233,0.05292 -0.07408,0.09525 -0.03175,0.04233 -0.0635,0.09525 0,0.02117 0.02117,0.04233 0.201083,0.380999 0.539748,0.476248 0.338666,0.08467 0.698498,0 0.370415,-0.09525 0.709081,-0.296332 0.349249,-0.211666 0.571498,-0.412749 0.116416,-0.116416 0.201083,-0.201082 0.08467,-0.08467 0.148166,-0.169333 0.0635,-0.09525 0.116416,-0.190499 0.05292,-0.09525 0.105833,-0.243416 0.02117,-0.05292 0.08467,-0.179916 0.07408,-0.137583 0.126999,-0.211666 -0.02117,-0.116417 0.09525,-0.211666 l 0.04233,-0.02117 q 0.253999,-0.08467 0.317499,0.158749 0,0.15875 -0.08467,0.28575 -0.07408,0.116416 -0.137583,0.264582 -0.0635,0.137583 -0.105833,0.285749 -0.03175,0.137583 -0.116416,0.275166 -0.179916,0.275166 -0.529165,0.571498 -0.338666,0.285749 -0.751415,0.507998 -0.412748,0.22225 -0.846664,0.338666 -0.433915,0.105833 -0.783164,0.03175 -0.275166,-0.0635 -0.476248,-0.232833 -0.1905,-0.169332 -0.338666,-0.402165 -0.190499,0.211666 -0.402165,0.391582 -0.211666,0.169333 -0.455082,0.296332 -0.306916,0.169333 -0.603248,0.328083 -0.296333,0.169333 -0.603248,0.328082 -0.253999,0.137583 -0.592665,0.105833 -0.338666,-0.02117 -0.656165,-0.158749 -0.317499,-0.137583 -0.560915,-0.370416 -0.253999,-0.232833 -0.338665,-0.507998 -0.07408,-0.232833 -0.0635,-0.476249 0,-0.253999 -0.02117,-0.497415 -0.01058,-0.264582 0.08467,-0.539748 0.09525,-0.285749 0.243416,-0.560915 0.148166,-0.285749 0.317499,-0.539748 0.158749,-0.254 0.275166,-0.455082 0.158749,-0.275166 0.465665,-0.613832 0.306915,-0.338665 0.677331,-0.613831 0.380999,-0.285749 0.783164,-0.455082 0.412749,-0.169333 0.783164,-0.116416 z m 0.211666,2.11666 q 0.08467,-0.412749 0.148166,-0.751415 0.07408,-0.349248 0.15875,-0.656164 -0.137583,-0.08467 -0.275166,-0.15875 -0.137583,-0.07408 -0.285749,-0.08467 -0.328082,-0.03175 -0.666748,0.137583 -0.338665,0.169333 -0.656164,0.455082 -0.317499,0.285749 -0.603248,0.666748 -0.275166,0.380998 -0.486832,0.772581 -0.211666,0.391582 -0.349249,0.77258 -0.137583,0.370416 -0.169333,0.645582 -0.03175,0.306915 0.05292,0.560915 0.08467,0.253999 0.264582,0.423332 0.179916,0.169332 0.444499,0.232832 0.264582,0.05292 0.592664,-0.04233 0.296333,-0.08467 0.560915,-0.243416 0.264583,-0.169333 0.507999,-0.359832 0.232832,-0.1905 0.433915,-0.391582 0.211666,-0.211666 0.412749,-0.433915 -0.02117,-0.05292 -0.04233,-0.105833 -0.01058,-0.05292 -0.03175,-0.105833 -0.116417,-0.306916 -0.09525,-0.656165 0.03175,-0.349249 0.08467,-0.677331 z m 1.936744,-3.386656 q -0.232832,0.391582 -0.486832,0.910164 -0.253999,0.507998 -0.455082,1.079496 -0.190499,0.571498 -0.306915,1.174746 -0.116417,0.592665 -0.08467,1.132414 0.476249,-0.634998 0.888998,-1.333496 0.423331,-0.698498 0.761997,-1.365246 0.105833,-0.201083 0.275166,-0.550331 0.179916,-0.349249 0.338665,-0.730248 0.15875,-0.391582 0.264583,-0.772581 0.105833,-0.380999 0.0635,-0.656165 -0.211666,-0.02117 -0.402166,0.105833 -0.190499,0.116417 -0.359832,0.296333 -0.158749,0.179916 -0.296332,0.380999 -0.127,0.201082 -0.201083,0.328082 z"
           style="font-style:normal;font-variant:normal;font-weight:normal;font-stretch:normal;font-size:10.5833px;font-family:Morsal;-inkscape-font-specification:'Morsal, Normal';font-variant-ligatures:normal;font-variant-caps:normal;font-variant-numeric:normal;font-variant-east-asian:normal;fill:#ffffff;stroke-width:0.264583"
           id="path96" />
        <path
           d="m 69.974623,57.570619 q 0.08467,-0.179916 0.07408,-0.328083 0,-0.148166 0.01058,-0.190499 -0.07408,-0.0635 -0.09525,-0.137583 -0.01058,-0.07408 0.02117,-0.126999 0.03175,-0.0635 0.105833,-0.09525 0.07408,-0.03175 0.169333,-0.01058 0.222249,0.01058 0.349249,0.148166 0.137583,0.137583 0.179916,0.338665 0.04233,0.1905 0,0.412749 -0.04233,0.222249 -0.15875,0.412749 -0.105833,0.179916 -0.296332,0.306915 -0.179916,0.127 -0.423332,0.116417 -0.105833,0.02117 -0.179916,-0.02117 -0.0635,-0.05292 -0.08467,-0.116416 -0.02117,-0.07408 0.01058,-0.148166 0.03175,-0.07408 0.137583,-0.116417 0.09525,-0.09525 0.116416,-0.126999 0.02117,-0.04233 0.02117,-0.08467 0,-0.05292 0.01058,-0.137583 0.01058,-0.09525 0.07408,-0.306915 0.01058,-0.03175 0,0.01058 -0.01058,0.04233 -0.02117,0.09525 -0.01058,0.05292 -0.02117,0.09525 -0.01058,0.03175 0,0.01058 z m 0.179916,-0.253999 q 0.03175,0.02117 0,-0.02117 -0.02117,-0.04233 -0.04233,-0.09525 0,0.09525 0.04233,0.116417 z"
           style="font-style:normal;font-variant:normal;font-weight:normal;font-stretch:normal;font-size:10.5833px;font-family:Morsal;-inkscape-font-specification:'Morsal, Normal';font-variant-ligatures:normal;font-variant-caps:normal;font-variant-numeric:normal;font-variant-east-asian:normal;fill:#ffffff;stroke-width:0.264583"
           id="path98" />
        <path
           d="m 74.197349,57.454202 q 0.105833,0 0.169333,0.0635 0.0635,0.05292 0.0635,0.127 0.01058,0.07408 -0.04233,0.148166 -0.04233,0.0635 -0.148167,0.07408 -0.338665,0.03175 -0.624414,0.116416 -0.285749,0.07408 -0.560915,0.243416 -0.05292,0.07408 -0.105833,0.116417 -0.04233,0.03175 -0.08467,0.05292 -0.04233,0.02117 -0.08467,0.0635 -0.04233,0.03175 -0.09525,0.105833 -0.158749,0.253999 -0.296332,0.550331 -0.127,0.28575 -0.179916,0.592665 -0.05292,0.296333 0,0.592665 0.05292,0.285749 0.253999,0.529165 0.15875,0.179916 0.518582,0.486832 0.359832,0.306916 0.698498,0.677331 0.338665,0.359832 0.518581,0.751414 0.1905,0.380999 0,0.730248 -0.232832,0.412749 -0.518581,0.709081 -0.28575,0.306916 -0.624415,0.507998 -0.338666,0.211666 -0.740831,0.338666 -0.391582,0.137583 -0.846664,0.222249 -0.306916,0.05292 -0.613831,0.05292 -0.317499,0 -0.529165,-0.105833 -0.22225,-0.105833 -0.296333,-0.338666 -0.07408,-0.222249 0.09525,-0.624414 0.05292,-0.09525 0.137583,-0.116417 0.08467,-0.02117 0.148166,0.01058 0.0635,0.03175 0.105833,0.105833 0.03175,0.08467 -0.01058,0.190499 -0.04233,0.127 -0.0635,0.275166 0.07408,0.07408 0.243416,0.07408 0.169333,0 0.359832,-0.03175 0.179916,-0.03175 0.349249,-0.08467 0.158749,-0.05292 0.243416,-0.07408 l 0.158749,-0.0635 h 0.01058 q 0.201083,-0.116417 0.455082,-0.232833 0.264583,-0.116416 0.497415,-0.264582 0.243416,-0.148167 0.423332,-0.338666 0.1905,-0.190499 0.243416,-0.465665 0.03175,-0.179916 -0.169332,-0.444499 -0.1905,-0.264582 -0.465666,-0.529165 -0.275165,-0.275166 -0.550331,-0.518582 -0.264583,-0.253999 -0.380999,-0.412748 -0.285749,-0.380999 -0.370415,-0.836081 -0.07408,-0.455082 0.01058,-0.89958 0.08467,-0.455082 0.317499,-0.867831 0.243416,-0.423332 0.603248,-0.719664 0.349249,-0.306916 0.793747,-0.433916 0.243416,-0.08467 0.486832,-0.09525 0.243416,-0.01058 0.497415,-0.01058 z"
           style="font-style:normal;font-variant:normal;font-weight:normal;font-stretch:normal;font-size:10.5833px;font-family:Morsal;-inkscape-font-specification:'Morsal, Normal';font-variant-ligatures:normal;font-variant-caps:normal;font-variant-numeric:normal;font-variant-east-asian:normal;fill:#ffffff;stroke-width:0.264583"
           id="path100" />
      </g>
      <g
         aria-label="of the Central Coast"
         id="text82"
         style="font-style:normal;font-variant:normal;font-weight:normal;font-stretch:normal;font-size:11.2889px;line-height:1.25;font-family:Gorgone;-inkscape-font-specification:'Gorgone, Normal';font-variant-ligatures:normal;font-variant-caps:normal;font-variant-numeric:normal;font-variant-east-asian:normal;fill:#ffffff;stroke-width:0.264583">
        <path
           d="m 79.123856,60.977061 c 0,1.941691 1.185334,2.946403 2.370669,2.946403 1.162756,0 2.314224,-0.970846 2.314224,-2.946403 0,-1.95298 -1.174045,-2.935114 -2.348091,-2.935114 -1.174046,0 -2.336802,0.970845 -2.336802,2.935114 z m 1.12889,0 c 0,-1.806224 0.6096,-2.709336 1.207912,-2.709336 0.609601,0 1.219201,0.903112 1.219201,2.709336 0,1.817513 -0.598312,2.709336 -1.196623,2.709336 -0.62089,0 -1.23049,-0.914401 -1.23049,-2.709336 z"
           style="font-style:normal;font-variant:normal;font-weight:normal;font-stretch:normal;font-size:11.2889px;font-family:Gorgone;-inkscape-font-specification:'Gorgone, Normal';font-variant-ligatures:normal;font-variant-caps:normal;font-variant-numeric:normal;font-variant-east-asian:normal;fill:#ffffff;stroke-width:0.264583"
           id="path103" />
        <path
           d="m 84.4635,63.799286 h 2.709337 v -0.112889 c -0.598312,0 -0.790223,-0.112889 -0.790223,-0.711201 v -4.594582 h 0.790223 v -0.225778 h -0.790223 c 0,-1.140179 0.146755,-2.020713 1.016001,-2.020713 0.270933,0 0.541867,0.124177 0.722489,0.395111 l 0.124178,-0.191911 c -0.225778,-0.327378 -0.6096,-0.462845 -1.02729,-0.462845 -0.620889,0 -1.264357,0.293511 -1.557868,0.677334 -0.327378,0.440267 -0.4064,1.016001 -0.4064,1.603024 H 84.4635 v 0.225778 h 0.790224 v 4.594582 c 0,0.598312 -0.191912,0.711201 -0.790224,0.711201 z"
           style="font-style:normal;font-variant:normal;font-weight:normal;font-stretch:normal;font-size:11.2889px;font-family:Gorgone;-inkscape-font-specification:'Gorgone, Normal';font-variant-ligatures:normal;font-variant-caps:normal;font-variant-numeric:normal;font-variant-east-asian:normal;fill:#ffffff;stroke-width:0.264583"
           id="path105" />
        <path
           d="m 92.63663,56.416345 c 0,-0.02258 -0.214489,1.738491 -1.625601,1.738491 h -0.135467 v 0.225778 h 0.790223 v 3.928537 c 0,1.061157 0.553156,1.490135 1.53529,1.490135 1.038579,0 1.049868,-1.061157 1.049868,-1.12889 h -0.112889 c -0.04516,0.620889 -0.372534,0.948267 -0.699912,0.948267 -0.316089,0 -0.632178,-0.316089 -0.643467,-0.970845 v -4.267204 h 0.790223 v -0.225778 h -0.790223 v -1.738491 z"
           style="font-style:normal;font-variant:normal;font-weight:normal;font-stretch:normal;font-size:11.2889px;font-family:Gorgone;-inkscape-font-specification:'Gorgone, Normal';font-variant-ligatures:normal;font-variant-caps:normal;font-variant-numeric:normal;font-variant-east-asian:normal;fill:#ffffff;stroke-width:0.264583"
           id="path107" />
        <path
           d="m 97.885959,63.799286 h 2.709331 v -0.112889 c -0.57573,0 -0.778929,-0.1016 -0.790218,-0.62089 v -2.065868 c 0,-1.354668 0.01129,-2.98027 -2.246491,-2.98027 -0.609601,0 -0.948268,0.361245 -1.140179,0.790223 V 55.332611 H 94.499289 V 55.4455 c 0.564445,0 0.767645,0.1016 0.790223,0.632178 v 6.897518 c 0,0.598312 -0.191912,0.711201 -0.790223,0.711201 v 0.112889 h 2.709336 v -0.112889 c -0.598312,0 -0.790223,-0.112889 -0.790223,-0.711201 V 59.85946 c 0.03387,-0.632179 0.248355,-1.614313 1.140179,-1.614313 1.117601,0 1.117601,1.512713 1.117601,2.754492 v 2.065868 c -0.02258,0.51929 -0.225778,0.62089 -0.790223,0.62089 z"
           style="font-style:normal;font-variant:normal;font-weight:normal;font-stretch:normal;font-size:11.2889px;font-family:Gorgone;-inkscape-font-specification:'Gorgone, Normal';font-variant-ligatures:normal;font-variant-caps:normal;font-variant-numeric:normal;font-variant-east-asian:normal;fill:#ffffff;stroke-width:0.264583"
           id="path109" />
        <path
           d="m 101.32907,59.249859 c -0.24835,0.451556 -0.39511,1.02729 -0.39511,1.727202 0,1.986846 1.23049,2.946403 2.4384,2.946403 0.63218,0 1.29823,-0.304801 1.64818,-0.869246 l -0.21449,-0.259644 c -0.21449,0.643467 -0.98213,0.880534 -1.46755,0.880534 -0.63218,0 -1.27565,-0.846668 -1.27565,-2.686758 h 3.30765 c 0,-1.95298 -1.08374,-2.946403 -2.19005,-2.946403 -0.69991,0 -1.41111,0.4064 -1.85138,1.207912 z m 0.99342,0 c 0.22578,-0.632178 0.57574,-0.959556 0.92569,-0.959556 0.56445,0 1.12889,0.824089 1.17405,2.472269 h -2.35938 c 0.0113,-0.62089 0.11289,-1.12889 0.25964,-1.512713 z"
           style="font-style:normal;font-variant:normal;font-weight:normal;font-stretch:normal;font-size:11.2889px;font-family:Gorgone;-inkscape-font-specification:'Gorgone, Normal';font-variant-ligatures:normal;font-variant-caps:normal;font-variant-numeric:normal;font-variant-east-asian:normal;fill:#ffffff;stroke-width:0.264583"
           id="path111" />
        <path
           d="m 115.36114,58.685414 v -2.077158 h -0.11289 c 0,0.270934 -0.079,0.361245 -0.16934,0.361245 -0.12417,0 -0.25964,-0.124178 -0.32737,-0.191911 l 0.0113,0.02258 c -0.83538,-1.02729 -1.95298,-1.016001 -1.98685,-1.016001 h -0.0903 c -0.13547,0 -3.29636,0.02258 -3.29636,4.064004 0,4.007559 3.29636,4.064004 3.29636,4.064004 h 0.0903 c 0,0 1.98685,-0.04516 2.67547,-2.370669 h -0.22578 c -0.6096,2.190046 -2.38196,2.144891 -2.44969,2.144891 h -0.0903 c -0.0113,0 -2.16747,0.1016 -2.16747,-3.838226 0,-3.928538 2.15618,-3.838226 2.16747,-3.838226 h 0.0903 c 0.0564,0 1.25307,-0.01129 2.032,1.196623 l 0.2032,0.395112 c 0.16933,0.327378 0.23707,0.643467 0.23707,1.083734 z"
           style="font-style:normal;font-variant:normal;font-weight:normal;font-stretch:normal;font-size:11.2889px;font-family:Gorgone;-inkscape-font-specification:'Gorgone, Normal';font-variant-ligatures:normal;font-variant-caps:normal;font-variant-numeric:normal;font-variant-east-asian:normal;fill:#ffffff;stroke-width:0.264583"
           id="path113" />
        <path
           d="m 116.55774,59.249859 c -0.24835,0.451556 -0.39511,1.02729 -0.39511,1.727202 0,1.986846 1.23049,2.946403 2.4384,2.946403 0.63218,0 1.29823,-0.304801 1.64818,-0.869246 l -0.21449,-0.259644 c -0.21448,0.643467 -0.98213,0.880534 -1.46755,0.880534 -0.63218,0 -1.27565,-0.846668 -1.27565,-2.686758 h 3.30765 c 0,-1.95298 -1.08373,-2.946403 -2.19005,-2.946403 -0.69991,0 -1.41111,0.4064 -1.85138,1.207912 z m 0.99343,0 c 0.22577,-0.632178 0.57573,-0.959556 0.92569,-0.959556 0.56444,0 1.12889,0.824089 1.17404,2.472269 h -2.35938 c 0.0113,-0.62089 0.11289,-1.12889 0.25965,-1.512713 z"
           style="font-style:normal;font-variant:normal;font-weight:normal;font-stretch:normal;font-size:11.2889px;font-family:Gorgone;-inkscape-font-specification:'Gorgone, Normal';font-variant-ligatures:normal;font-variant-caps:normal;font-variant-numeric:normal;font-variant-east-asian:normal;fill:#ffffff;stroke-width:0.264583"
           id="path115" />
        <path
           d="m 121.25391,58.267725 c 0.56444,0 0.76764,0.1016 0.79022,0.632178 v 4.165604 c -0.0226,0.51929 -0.22578,0.62089 -0.79022,0.62089 v 0.112889 h 2.70933 v -0.112889 c -0.59831,0 -0.79022,-0.112889 -0.79022,-0.711201 V 59.85946 c 0.0339,-0.632179 0.24836,-1.614313 1.14018,-1.614313 1.1176,0 1.1176,1.512713 1.1176,2.754492 v 2.065868 c -0.0226,0.51929 -0.22578,0.62089 -0.79022,0.62089 v 0.112889 h 2.70933 v -0.112889 c -0.57573,0 -0.77893,-0.1016 -0.79022,-0.62089 v -2.065868 c 0,-1.354668 0.0113,-2.98027 -2.24649,-2.98027 -0.6096,0 -0.94827,0.361245 -1.14018,0.790223 v -0.654756 h -1.91911 z"
           style="font-style:normal;font-variant:normal;font-weight:normal;font-stretch:normal;font-size:11.2889px;font-family:Gorgone;-inkscape-font-specification:'Gorgone, Normal';font-variant-ligatures:normal;font-variant-caps:normal;font-variant-numeric:normal;font-variant-east-asian:normal;fill:#ffffff;stroke-width:0.264583"
           id="path117" />
        <path
           d="m 129.44964,56.416345 c 0,-0.02258 -0.21448,1.738491 -1.6256,1.738491 h -0.13546 v 0.225778 h 0.79022 v 3.928537 c 0,1.061157 0.55315,1.490135 1.53529,1.490135 1.03858,0 1.04987,-1.061157 1.04987,-1.12889 h -0.11289 c -0.0452,0.620889 -0.37254,0.948267 -0.69991,0.948267 -0.31609,0 -0.63218,-0.316089 -0.64347,-0.970845 v -4.267204 h 0.79022 v -0.225778 h -0.79022 v -1.738491 z"
           style="font-style:normal;font-variant:normal;font-weight:normal;font-stretch:normal;font-size:11.2889px;font-family:Gorgone;-inkscape-font-specification:'Gorgone, Normal';font-variant-ligatures:normal;font-variant-caps:normal;font-variant-numeric:normal;font-variant-east-asian:normal;fill:#ffffff;stroke-width:0.264583"
           id="path119" />
        <path
           d="m 134.64253,59.148259 c 0,0.259645 0.2032,0.462845 0.46284,0.462845 0.25965,0 0.46285,-0.2032 0.46285,-0.462845 V 59.03537 c 0,-0.158045 -0.0339,-0.993423 -0.85796,-0.993423 -0.83538,0 -1.26436,0.6096 -1.47885,1.275645 v -1.162756 h -1.91911 v 0.112889 c 0.56445,0 0.76765,0.1016 0.79022,0.632178 v 4.075293 c 0,0.598312 -0.19191,0.711201 -0.79022,0.711201 v 0.112889 h 2.70934 v -0.112889 c -0.59831,0 -0.79023,-0.112889 -0.79023,-0.711201 v -2.325513 c 0.0226,-0.778934 0.22578,-2.381958 1.47885,-2.381958 0.21449,0 0.36125,0.214489 0.4064,0.417689 h -0.0113 c -0.25964,0 -0.46284,0.2032 -0.46284,0.462845 z"
           style="font-style:normal;font-variant:normal;font-weight:normal;font-stretch:normal;font-size:11.2889px;font-family:Gorgone;-inkscape-font-specification:'Gorgone, Normal';font-variant-ligatures:normal;font-variant-caps:normal;font-variant-numeric:normal;font-variant-east-asian:normal;fill:#ffffff;stroke-width:0.264583"
           id="path121" />
        <path
           d="m 141.22395,63.686397 c -0.59832,0 -0.79023,-0.112889 -0.79023,-0.711201 l -0.0113,0.02258 c 0,-1.02729 0.0113,-1.941691 0.0113,-3.18347 0,-0.225778 -0.0903,-1.772357 -2.25778,-1.772357 -1.71591,0 -1.84009,1.411112 -1.84009,1.727201 0,0.02258 0,0.03387 0,0.04516 v 0.03387 c 0,0.259644 0.2032,0.462845 0.46285,0.462845 0.25964,0 0.46284,-0.203201 0.46284,-0.462845 0,-0.41769 -0.51929,-0.383823 -0.51929,-0.632179 0,-0.508 0.58703,-0.948267 1.43369,-0.948267 1.17405,0 1.12889,1.501423 1.12889,1.580446 0,0.338667 -0.0113,0.688623 -0.0113,1.02729 -0.18062,-0.282223 -0.56444,-0.508001 -1.26435,-0.508001 -1.67076,0 -2.11103,1.016001 -2.11103,1.828802 0,1.444979 1.23049,1.727202 2.11103,1.727202 0.58702,0 1.02729,-0.259645 1.27564,-0.778934 v 0.654756 h 1.91912 z m -3.19476,0.01129 c -0.68863,0 -1.06116,-0.587023 -1.06116,-1.388535 0,-0.72249 0.22578,-1.715913 1.06116,-1.715913 1.02729,0 1.23049,0.643468 1.26435,0.982135 v 0.395111 c 0,1.140179 -0.48542,1.727202 -1.26435,1.727202 z"
           style="font-style:normal;font-variant:normal;font-weight:normal;font-stretch:normal;font-size:11.2889px;font-family:Gorgone;-inkscape-font-specification:'Gorgone, Normal';font-variant-ligatures:normal;font-variant-caps:normal;font-variant-numeric:normal;font-variant-east-asian:normal;fill:#ffffff;stroke-width:0.264583"
           id="path123" />
        <path
           d="m 141.56259,55.4455 c 0.59831,0 0.79022,0.112889 0.79022,0.7112 v 6.818496 c 0,0.598312 -0.19191,0.711201 -0.79022,0.711201 v 0.112889 h 2.70934 v -0.112889 c -0.59831,0 -0.79023,-0.112889 -0.79023,-0.711201 v -7.642585 h -1.91911 z"
           style="font-style:normal;font-variant:normal;font-weight:normal;font-stretch:normal;font-size:11.2889px;font-family:Gorgone;-inkscape-font-specification:'Gorgone, Normal';font-variant-ligatures:normal;font-variant-caps:normal;font-variant-numeric:normal;font-variant-east-asian:normal;fill:#ffffff;stroke-width:0.264583"
           id="path125" />
        <path
           d="m 153.94648,58.685414 v -2.077158 h -0.11289 c 0,0.270934 -0.079,0.361245 -0.16933,0.361245 -0.12418,0 -0.25964,-0.124178 -0.32738,-0.191911 l 0.0113,0.02258 c -0.83538,-1.02729 -1.95298,-1.016001 -1.98684,-1.016001 h -0.0903 c -0.13546,0 -3.29635,0.02258 -3.29635,4.064004 0,4.007559 3.29635,4.064004 3.29635,4.064004 h 0.0903 c 0,0 1.98684,-0.04516 2.67546,-2.370669 h -0.22577 c -0.6096,2.190046 -2.38196,2.144891 -2.44969,2.144891 h -0.0903 c -0.0113,0 -2.16746,0.1016 -2.16746,-3.838226 0,-3.928538 2.15618,-3.838226 2.16746,-3.838226 h 0.0903 c 0.0564,0 1.25306,-0.01129 2.032,1.196623 l 0.2032,0.395112 c 0.16933,0.327378 0.23706,0.643467 0.23706,1.083734 z"
           style="font-style:normal;font-variant:normal;font-weight:normal;font-stretch:normal;font-size:11.2889px;font-family:Gorgone;-inkscape-font-specification:'Gorgone, Normal';font-variant-ligatures:normal;font-variant-caps:normal;font-variant-numeric:normal;font-variant-east-asian:normal;fill:#ffffff;stroke-width:0.264583"
           id="path127" />
        <path
           d="m 154.74798,60.977061 c 0,1.941691 1.18533,2.946403 2.37067,2.946403 1.16275,0 2.31422,-0.970846 2.31422,-2.946403 0,-1.95298 -1.17404,-2.935114 -2.34809,-2.935114 -1.17405,0 -2.3368,0.970845 -2.3368,2.935114 z m 1.12889,0 c 0,-1.806224 0.6096,-2.709336 1.20791,-2.709336 0.6096,0 1.2192,0.903112 1.2192,2.709336 0,1.817513 -0.59831,2.709336 -1.19662,2.709336 -0.62089,0 -1.23049,-0.914401 -1.23049,-2.709336 z"
           style="font-style:normal;font-variant:normal;font-weight:normal;font-stretch:normal;font-size:11.2889px;font-family:Gorgone;-inkscape-font-specification:'Gorgone, Normal';font-variant-ligatures:normal;font-variant-caps:normal;font-variant-numeric:normal;font-variant-east-asian:normal;fill:#ffffff;stroke-width:0.264583"
           id="path129" />
        <path
           d="m 165.39341,63.686397 c -0.59831,0 -0.79023,-0.112889 -0.79023,-0.711201 l -0.0113,0.02258 c 0,-1.02729 0.0113,-1.941691 0.0113,-3.18347 0,-0.225778 -0.0903,-1.772357 -2.25778,-1.772357 -1.71591,0 -1.84009,1.411112 -1.84009,1.727201 0,0.02258 0,0.03387 0,0.04516 v 0.03387 c 0,0.259644 0.2032,0.462845 0.46285,0.462845 0.25964,0 0.46284,-0.203201 0.46284,-0.462845 0,-0.41769 -0.51929,-0.383823 -0.51929,-0.632179 0,-0.508 0.58703,-0.948267 1.43369,-0.948267 1.17405,0 1.12889,1.501423 1.12889,1.580446 0,0.338667 -0.0113,0.688623 -0.0113,1.02729 -0.18062,-0.282223 -0.56444,-0.508001 -1.26435,-0.508001 -1.67076,0 -2.11103,1.016001 -2.11103,1.828802 0,1.444979 1.23049,1.727202 2.11103,1.727202 0.58702,0 1.02729,-0.259645 1.27564,-0.778934 v 0.654756 h 1.91912 z m -3.19476,0.01129 c -0.68862,0 -1.06116,-0.587023 -1.06116,-1.388535 0,-0.72249 0.22578,-1.715913 1.06116,-1.715913 1.02729,0 1.23049,0.643468 1.26435,0.982135 v 0.395111 c 0,1.140179 -0.48542,1.727202 -1.26435,1.727202 z"
           style="font-style:normal;font-variant:normal;font-weight:normal;font-stretch:normal;font-size:11.2889px;font-family:Gorgone;-inkscape-font-specification:'Gorgone, Normal';font-variant-ligatures:normal;font-variant-caps:normal;font-variant-numeric:normal;font-variant-east-asian:normal;fill:#ffffff;stroke-width:0.264583"
           id="path131" />
        <path
           d="m 166.72547,59.283726 c 0.0339,-0.541867 0.44027,-1.016001 1.33209,-1.016001 1.56916,0 1.38854,1.241779 1.38854,1.603024 h 0.16933 v -1.783647 h -0.11289 c 0,0.237067 -0.0903,0.31609 -0.2032,0.31609 -0.0452,0 -0.0903,-0.01129 -0.13547,-0.03387 -0.23706,-0.191911 -0.57573,-0.327378 -1.10631,-0.327378 -1.30951,0 -2.15618,0.677334 -2.15618,1.603024 0,2.494847 3.23992,1.512712 3.23992,3.183469 0,0.169334 -0.16934,0.857957 -1.24178,0.857957 -1.70463,0 -1.78365,-1.083735 -1.79494,-1.783646 h -0.16933 v 1.241779 0.541867 h 0.11289 c 0,-0.237067 0.0903,-0.316089 0.19191,-0.316089 0.079,0 0.16933,0.04516 0.23707,0.09031 0.29351,0.270933 0.74506,0.451556 1.4224,0.451556 1.38853,0 1.94169,-0.733779 1.94169,-1.444979 0,-2.483558 -3.11574,-1.524002 -3.11574,-3.104448 0,-0.02258 0,-0.05644 0,-0.07902 z"
           style="font-style:normal;font-variant:normal;font-weight:normal;font-stretch:normal;font-size:11.2889px;font-family:Gorgone;-inkscape-font-specification:'Gorgone, Normal';font-variant-ligatures:normal;font-variant-caps:normal;font-variant-numeric:normal;font-variant-east-asian:normal;fill:#ffffff;stroke-width:0.264583"
           id="path133" />
        <path
           d="m 172.44893,56.416345 c 0,-0.02258 -0.21448,1.738491 -1.6256,1.738491 h -0.13546 v 0.225778 h 0.79022 v 3.928537 c 0,1.061157 0.55316,1.490135 1.53529,1.490135 1.03858,0 1.04987,-1.061157 1.04987,-1.12889 h -0.11289 c -0.0452,0.620889 -0.37254,0.948267 -0.69991,0.948267 -0.31609,0 -0.63218,-0.316089 -0.64347,-0.970845 v -4.267204 h 0.79022 v -0.225778 h -0.79022 v -1.738491 z"
           style="font-style:normal;font-variant:normal;font-weight:normal;font-stretch:normal;font-size:11.2889px;font-family:Gorgone;-inkscape-font-specification:'Gorgone, Normal';font-variant-ligatures:normal;font-variant-caps:normal;font-variant-numeric:normal;font-variant-east-asian:normal;fill:#ffffff;stroke-width:0.264583"
           id="path135" />
      </g>
    </g>
  </g>
</svg>
